<svg id="visual" viewBox="0 0 900 675" width="900" height="675" xmlns="http://www.w3.org/2000/svg" xmlns:xlink="http://www.w3.org/1999/xlink" version="1.1"><rect x="0" y="0" width="900" height="675" fill="#b2ccda"></rect><defs><linearGradient id="grad1_0" x1="25%" y1="0%" x2="100%" y2="100%"><stop offset="23.333333333333336%" stop-color="#f7770f" stop-opacity="1"></stop><stop offset="76.66666666666666%" stop-color="#f7770f" stop-opacity="1"></stop></linearGradient></defs><defs><linearGradient id="grad1_1" x1="25%" y1="0%" x2="100%" y2="100%"><stop offset="23.333333333333336%" stop-color="#f7770f" stop-opacity="1"></stop><stop offset="76.66666666666666%" stop-color="#ff6b61" stop-opacity="1"></stop></linearGradient></defs><defs><linearGradient id="grad1_2" x1="25%" y1="0%" x2="100%" y2="100%"><stop offset="23.333333333333336%" stop-color="#ff749e" stop-opacity="1"></stop><stop offset="76.66666666666666%" stop-color="#ff6b61" stop-opacity="1"></stop></linearGradient></defs><defs><linearGradient id="grad1_3" x1="25%" y1="0%" x2="100%" y2="100%"><stop offset="23.333333333333336%" stop-color="#ff749e" stop-opacity="1"></stop><stop offset="76.66666666666666%" stop-color="#f68bce" stop-opacity="1"></stop></linearGradient></defs><defs><linearGradient id="grad1_4" x1="25%" y1="0%" x2="100%" y2="100%"><stop offset="23.333333333333336%" stop-color="#d2a3ea" stop-opacity="1"></stop><stop offset="76.66666666666666%" stop-color="#f68bce" stop-opacity="1"></stop></linearGradient></defs><defs><linearGradient id="grad1_5" x1="25%" y1="0%" x2="100%" y2="100%"><stop offset="23.333333333333336%" stop-color="#d2a3ea" stop-opacity="1"></stop><stop offset="76.66666666666666%" stop-color="#b2b7f2" stop-opacity="1"></stop></linearGradient></defs><defs><linearGradient id="grad1_6" x1="25%" y1="0%" x2="100%" y2="100%"><stop offset="23.333333333333336%" stop-color="#a6c4e9" stop-opacity="1"></stop><stop offset="76.66666666666666%" stop-color="#b2b7f2" stop-opacity="1"></stop></linearGradient></defs><defs><linearGradient id="grad1_7" x1="25%" y1="0%" x2="100%" y2="100%"><stop offset="23.333333333333336%" stop-color="#a6c4e9" stop-opacity="1"></stop><stop offset="76.66666666666666%" stop-color="#b2ccda" stop-opacity="1"></stop></linearGradient></defs><defs><linearGradient id="grad2_0" x1="0%" y1="0%" x2="75%" y2="100%"><stop offset="23.333333333333336%" stop-color="#f7770f" stop-opacity="1"></stop><stop offset="76.66666666666666%" stop-color="#f7770f" stop-opacity="1"></stop></linearGradient></defs><defs><linearGradient id="grad2_1" x1="0%" y1="0%" x2="75%" y2="100%"><stop offset="23.333333333333336%" stop-color="#ff6b61" stop-opacity="1"></stop><stop offset="76.66666666666666%" stop-color="#f7770f" stop-opacity="1"></stop></linearGradient></defs><defs><linearGradient id="grad2_2" x1="0%" y1="0%" x2="75%" y2="100%"><stop offset="23.333333333333336%" stop-color="#ff6b61" stop-opacity="1"></stop><stop offset="76.66666666666666%" stop-color="#ff749e" stop-opacity="1"></stop></linearGradient></defs><defs><linearGradient id="grad2_3" x1="0%" y1="0%" x2="75%" y2="100%"><stop offset="23.333333333333336%" stop-color="#f68bce" stop-opacity="1"></stop><stop offset="76.66666666666666%" stop-color="#ff749e" stop-opacity="1"></stop></linearGradient></defs><defs><linearGradient id="grad2_4" x1="0%" y1="0%" x2="75%" y2="100%"><stop offset="23.333333333333336%" stop-color="#f68bce" stop-opacity="1"></stop><stop offset="76.66666666666666%" stop-color="#d2a3ea" stop-opacity="1"></stop></linearGradient></defs><defs><linearGradient id="grad2_5" x1="0%" y1="0%" x2="75%" y2="100%"><stop offset="23.333333333333336%" stop-color="#b2b7f2" stop-opacity="1"></stop><stop offset="76.66666666666666%" stop-color="#d2a3ea" stop-opacity="1"></stop></linearGradient></defs><defs><linearGradient id="grad2_6" x1="0%" y1="0%" x2="75%" y2="100%"><stop offset="23.333333333333336%" stop-color="#b2b7f2" stop-opacity="1"></stop><stop offset="76.66666666666666%" stop-color="#a6c4e9" stop-opacity="1"></stop></linearGradient></defs><defs><linearGradient id="grad2_7" x1="0%" y1="0%" x2="75%" y2="100%"><stop offset="23.333333333333336%" stop-color="#b2ccda" stop-opacity="1"></stop><stop offset="76.66666666666666%" stop-color="#a6c4e9" stop-opacity="1"></stop></linearGradient></defs><g transform="translate(900, 0)"><path d="M0 562.5C-39.5 567.9 -79 573.4 -109.7 551.7C-140.4 530 -162.3 481.3 -189 456.4C-215.7 431.5 -247.2 430.6 -277.8 415.7C-308.3 400.9 -337.9 372.1 -326.7 326.7C-315.5 281.2 -263.5 219.1 -306.8 205C-350.1 190.9 -488.8 224.9 -499.8 207C-510.9 189.2 -394.3 119.4 -383.5 76.3C-372.7 33.1 -467.6 16.6 -562.5 0L0 0Z" fill="#aac9e2"></path><path d="M0 492.2C-34.6 496.9 -69.2 501.7 -96 482.7C-122.9 463.8 -142.1 421.1 -165.4 399.3C-188.8 377.6 -216.3 376.8 -243.1 363.8C-269.8 350.8 -295.7 325.6 -285.8 285.8C-276 246.1 -230.6 191.7 -268.5 179.4C-306.4 167.1 -427.7 196.8 -437.3 181.2C-447 165.5 -345 104.5 -335.6 66.7C-326.1 29 -409.1 14.5 -492.2 0L0 0Z" fill="#a9beef"></path><path d="M0 421.9C-29.6 425.9 -59.3 430 -82.3 413.8C-105.3 397.5 -121.8 360.9 -141.8 342.3C-161.8 323.7 -185.4 322.9 -208.3 311.8C-231.2 300.7 -253.4 279.1 -245 245C-236.6 210.9 -197.6 164.3 -230.1 153.8C-262.6 143.2 -366.6 168.7 -374.9 155.3C-383.1 141.9 -295.7 89.6 -287.6 57.2C-279.5 24.8 -350.7 12.4 -421.9 0L0 0Z" fill="#c1aef0"></path><path d="M0 351.6C-24.7 355 -49.4 358.4 -68.6 344.8C-87.8 331.3 -101.5 300.8 -118.2 285.2C-134.8 269.7 -154.5 269.1 -173.6 259.8C-192.7 250.6 -211.2 232.6 -204.2 204.2C-197.2 175.8 -164.7 136.9 -191.8 128.1C-218.8 119.3 -305.5 140.6 -312.4 129.4C-319.3 118.2 -246.4 74.6 -239.7 47.7C-232.9 20.7 -292.2 10.4 -351.6 0L0 0Z" fill="#e597df"></path><path d="M0 281.3C-19.8 284 -39.5 286.7 -54.9 275.8C-70.2 265 -81.2 240.6 -94.5 228.2C-107.9 215.8 -123.6 215.3 -138.9 207.9C-154.2 200.4 -168.9 186.1 -163.3 163.3C-157.7 140.6 -131.7 109.5 -153.4 102.5C-175.1 95.5 -244.4 112.5 -249.9 103.5C-255.4 94.6 -197.2 59.7 -191.7 38.1C-186.3 16.6 -233.8 8.3 -281.2 0L0 0Z" fill="#ff7eb8"></path><path d="M0 210.9C-14.8 213 -29.6 215 -41.2 206.9C-52.7 198.8 -60.9 180.5 -70.9 171.1C-80.9 161.8 -92.7 161.5 -104.2 155.9C-115.6 150.3 -126.7 139.5 -122.5 122.5C-118.3 105.5 -98.8 82.2 -115.1 76.9C-131.3 71.6 -183.3 84.3 -187.4 77.6C-191.6 70.9 -147.9 44.8 -143.8 28.6C-139.8 12.4 -175.3 6.2 -210.9 0L0 0Z" fill="#ff6d80"></path><path d="M0 140.6C-9.9 142 -19.8 143.3 -27.4 137.9C-35.1 132.5 -40.6 120.3 -47.3 114.1C-53.9 107.9 -61.8 107.6 -69.4 103.9C-77.1 100.2 -84.5 93 -81.7 81.7C-78.9 70.3 -65.9 54.8 -76.7 51.3C-87.5 47.7 -122.2 56.2 -125 51.8C-127.7 47.3 -98.6 29.9 -95.9 19.1C-93.2 8.3 -116.9 4.1 -140.6 0L0 0Z" fill="#ff6f3f"></path><path d="M0 70.3C-4.9 71 -9.9 71.7 -13.7 69C-17.6 66.3 -20.3 60.2 -23.6 57C-27 53.9 -30.9 53.8 -34.7 52C-38.5 50.1 -42.2 46.5 -40.8 40.8C-39.4 35.2 -32.9 27.4 -38.4 25.6C-43.8 23.9 -61.1 28.1 -62.5 25.9C-63.9 23.6 -49.3 14.9 -47.9 9.5C-46.6 4.1 -58.4 2.1 -70.3 0L0 0Z" fill="#f7770f"></path></g><g transform="translate(0, 675)"><path d="M0 -562.5C37.8 -552.8 75.6 -543.1 102.8 -516.9C130 -490.6 146.6 -447.8 184.5 -445.3C222.3 -442.8 281.2 -480.7 312.5 -467.7C343.8 -454.8 347.3 -391 339.4 -339.4C331.5 -287.8 312.1 -248.3 348.4 -232.8C384.6 -217.3 476.5 -225.7 489.7 -202.8C502.9 -180 437.4 -125.8 436.4 -86.8C435.5 -47.8 499 -23.9 562.5 0L0 0Z" fill="#aac9e2"></path><path d="M0 -492.2C33.1 -483.7 66.2 -475.2 90 -452.3C113.8 -429.3 128.3 -391.8 161.4 -389.6C194.5 -387.5 246.1 -420.6 273.4 -409.2C300.8 -397.9 303.9 -342.1 297 -297C290.1 -251.8 273.1 -217.3 304.8 -203.7C336.5 -190.1 416.9 -197.5 428.4 -177.5C440 -157.5 382.7 -110.1 381.9 -76C381 -41.8 436.6 -20.9 492.2 0L0 0Z" fill="#a9beef"></path><path d="M0 -421.9C28.4 -414.6 56.7 -407.3 77.1 -387.7C97.5 -368 110 -335.9 138.3 -334C166.7 -332.1 210.9 -360.5 234.4 -350.8C257.8 -341.1 260.5 -293.3 254.6 -254.6C248.6 -215.9 234.1 -186.2 261.3 -174.6C288.5 -162.9 357.3 -169.3 367.2 -152.1C377.1 -135 328.1 -94.4 327.3 -65.1C326.6 -35.8 374.2 -17.9 421.9 0L0 0Z" fill="#c1aef0"></path><path d="M0 -351.6C23.6 -345.5 47.3 -339.5 64.3 -323C81.3 -306.6 91.7 -279.9 115.3 -278.3C138.9 -276.8 175.8 -300.4 195.3 -292.3C214.9 -284.2 217.1 -244.4 212.1 -212.1C207.2 -179.9 195.1 -155.2 217.7 -145.5C240.4 -135.8 297.8 -141 306 -126.8C314.3 -112.5 273.4 -78.6 272.8 -54.3C272.2 -29.9 311.9 -14.9 351.6 0L0 0Z" fill="#e597df"></path><path d="M0 -281.2C18.9 -276.4 37.8 -271.6 51.4 -258.4C65 -245.3 73.3 -223.9 92.2 -222.7C111.1 -221.4 140.6 -240.3 156.3 -233.9C171.9 -227.4 173.7 -195.5 169.7 -169.7C165.8 -143.9 156.1 -124.2 174.2 -116.4C192.3 -108.6 238.2 -112.8 244.8 -101.4C251.4 -90 218.7 -62.9 218.2 -43.4C217.7 -23.9 249.5 -11.9 281.3 0L0 0Z" fill="#ff7eb8"></path><path d="M0 -210.9C14.2 -207.3 28.4 -203.7 38.6 -193.8C48.8 -184 55 -167.9 69.2 -167C83.3 -166.1 105.5 -180.2 117.2 -175.4C128.9 -170.5 130.2 -146.6 127.3 -127.3C124.3 -107.9 117.1 -93.1 130.6 -87.3C144.2 -81.5 178.7 -84.6 183.6 -76.1C188.6 -67.5 164 -47.2 163.7 -32.6C163.3 -17.9 187.1 -9 210.9 0L0 0Z" fill="#ff6d80"></path><path d="M0 -140.6C9.5 -138.2 18.9 -135.8 25.7 -129.2C32.5 -122.7 36.7 -112 46.1 -111.3C55.6 -110.7 70.3 -120.2 78.1 -116.9C85.9 -113.7 86.8 -97.8 84.9 -84.9C82.9 -72 78 -62.1 87.1 -58.2C96.2 -54.3 119.1 -56.4 122.4 -50.7C125.7 -45 109.4 -31.5 109.1 -21.7C108.9 -11.9 124.7 -6 140.6 0L0 0Z" fill="#ff6f3f"></path><path d="M0 -70.3C4.7 -69.1 9.5 -67.9 12.9 -64.6C16.3 -61.3 18.3 -56 23.1 -55.7C27.8 -55.4 35.2 -60.1 39.1 -58.5C43 -56.8 43.4 -48.9 42.4 -42.4C41.4 -36 39 -31 43.5 -29.1C48.1 -27.2 59.6 -28.2 61.2 -25.4C62.9 -22.5 54.7 -15.7 54.6 -10.9C54.4 -6 62.4 -3 70.3 0L0 0Z" fill="#f7770f"></path></g></svg>