<svg id="visual" viewBox="0 0 900 600" width="900" height="600" xmlns="http://www.w3.org/2000/svg" xmlns:xlink="http://www.w3.org/1999/xlink" version="1.1"><g><g transform="translate(562 471)"><path d="M45 -48.3C58.4 -31.5 69.6 -15.7 71.2 1.6C72.8 19 64.8 37.9 51.4 50.7C37.9 63.6 19 70.2 1.8 68.4C-15.3 66.6 -30.7 56.3 -38.4 43.5C-46.1 30.7 -46.2 15.3 -47 -0.8C-47.9 -17 -49.5 -34 -41.8 -50.8C-34 -67.6 -17 -84.1 -0.6 -83.5C15.7 -82.8 31.5 -65 45 -48.3Z" fill="#f1984f"></path></g><g transform="translate(897 495)"><path d="M43.5 -41C56.9 -30.2 68.5 -15.1 69.8 1.3C71.1 17.8 62.2 35.5 48.8 41.6C35.5 47.7 17.8 42.1 0.6 41.5C-16.6 40.9 -33.2 45.3 -38.5 39.3C-43.9 33.2 -38.1 16.6 -37.7 0.4C-37.4 -15.9 -42.5 -31.7 -37.1 -42.6C-31.7 -53.4 -15.9 -59.3 -0.4 -58.9C15.1 -58.5 30.2 -51.9 43.5 -41Z" fill="#f1984f"></path></g><g transform="translate(198 467)"><path d="M48.7 -43.3C62.8 -34.7 73.6 -17.3 70.8 -2.9C67.9 11.6 51.3 23.1 37.2 30.4C23.1 37.6 11.6 40.6 0.9 39.6C-9.7 38.7 -19.4 33.9 -31 26.7C-42.6 19.4 -56.1 9.7 -57.6 -1.5C-59.1 -12.7 -48.6 -25.4 -37 -34.1C-25.4 -42.7 -12.7 -47.3 2.3 -49.6C17.3 -52 34.7 -52 48.7 -43.3Z" fill="#f1984f"></path></g><g transform="translate(177 81)"><path d="M42.6 -39.7C53.6 -31.6 59.7 -15.8 58 -1.8C56.2 12.3 46.5 24.6 35.5 37.7C24.6 50.8 12.3 64.8 -1.8 66.6C-15.8 68.3 -31.6 57.8 -38.7 44.7C-45.9 31.6 -44.4 15.8 -45.9 -1.5C-47.4 -18.8 -51.9 -37.6 -44.7 -45.7C-37.6 -53.8 -18.8 -51.3 -1.5 -49.8C15.8 -48.3 31.6 -47.8 42.6 -39.7Z" fill="#f1984f"></path></g><g transform="translate(446 271)"><path d="M18.1 -21.6C23 -13.2 26.2 -6.6 29.3 3.1C32.4 12.7 35.3 25.5 30.4 33C25.5 40.6 12.7 43 -0.5 43.6C-13.8 44.1 -27.6 42.8 -35.8 35.2C-44 27.6 -46.6 13.8 -45.8 0.8C-45 -12.2 -40.8 -24.4 -32.6 -32.8C-24.4 -41.1 -12.2 -45.7 -2.8 -42.9C6.6 -40.1 13.2 -29.9 18.1 -21.6Z" fill="#f1984f"></path></g><g transform="translate(698 23)"><path d="M33.8 -28.9C45.9 -21.7 59.2 -10.9 57.3 -1.9C55.4 7 38.2 14 26.1 18.8C14 23.6 7 26.2 -2.1 28.3C-11.2 30.4 -22.4 32 -33.7 27.2C-45.1 22.4 -56.6 11.2 -59.7 -3.1C-62.7 -17.3 -57.4 -34.7 -46 -41.9C-34.7 -49.1 -17.3 -46.1 -3.2 -42.9C10.9 -39.7 21.7 -36.1 33.8 -28.9Z" fill="#f1984f"></path></g><g transform="translate(71 287)"><path d="M30.9 -29C38.3 -23.5 41.3 -11.7 38.6 -2.7C36 6.4 27.6 12.8 20.2 17.5C12.8 22.2 6.4 25.1 -1.5 26.6C-9.4 28.1 -18.8 28.1 -24.5 23.5C-30.2 18.8 -32.2 9.4 -34.2 -1.9C-36.1 -13.3 -37.9 -26.5 -32.2 -32.1C-26.5 -37.7 -13.3 -35.6 -0.8 -34.8C11.7 -34.1 23.5 -34.6 30.9 -29Z" fill="#f1984f"></path></g><g transform="translate(806 266)"><path d="M45.1 -54.5C52.2 -38 47.4 -19 45.2 -2.2C43 14.7 43.5 29.3 36.4 41.2C29.3 53.1 14.7 62.2 -1.5 63.6C-17.6 65.1 -35.2 58.9 -51.7 47C-68.2 35.2 -83.6 17.6 -84.6 -1C-85.6 -19.6 -72.2 -39.2 -55.7 -55.7C-39.2 -72.2 -19.6 -85.7 -0.3 -85.4C19 -85.1 38 -71 45.1 -54.5Z" fill="#f1984f"></path></g><g transform="translate(5 577)"><path d="M49.1 -51.8C60.4 -37.8 64 -18.9 64.1 0C64.1 18.9 60.5 37.9 49.2 51C37.9 64.1 18.9 71.3 2 69.3C-14.8 67.2 -29.7 55.9 -45.7 42.8C-61.6 29.7 -78.7 14.8 -79.3 -0.6C-79.9 -16 -64 -32.1 -48.1 -46.1C-32.1 -60.1 -16 -72.1 1.4 -73.5C18.9 -74.9 37.8 -65.8 49.1 -51.8Z" fill="#f1984f"></path></g><g transform="translate(456 29)"><path d="M20.8 -15.8C29.2 -12.5 39.7 -6.2 40.3 0.6C40.9 7.4 31.6 14.9 23.3 19.4C14.9 24 7.4 25.6 -0.2 25.8C-7.8 26 -15.6 24.7 -23.1 20.1C-30.5 15.6 -37.6 7.8 -39.2 -1.6C-40.8 -11 -36.9 -21.9 -29.4 -25.2C-21.9 -28.5 -11 -24.1 -2.4 -21.8C6.2 -19.4 12.5 -19.1 20.8 -15.8Z" fill="#f1984f"></path></g></g></svg>