<svg id="visual" viewBox="0 0 900 600" width="900" height="600" xmlns="http://www.w3.org/2000/svg" xmlns:xlink="http://www.w3.org/1999/xlink" version="1.1"><g><g transform="translate(655 79)"><path d="M8.5 -4.4C9.8 -2.5 9 1.1 7.2 3C5.5 4.9 2.7 5 0.3 4.8C-2.1 4.7 -4.2 4.1 -5.1 2.8C-6 1.4 -5.7 -0.9 -4.6 -2.6C-3.6 -4.3 -1.8 -5.4 0.9 -6C3.5 -6.5 7.1 -6.3 8.5 -4.4Z" fill="#e8d7ce"></path></g><g transform="translate(783 581)"><path d="M3.4 -2.2C4.6 0.1 5.8 2.1 5.3 2.9C4.7 3.8 2.4 3.4 0.3 3.3C-1.8 3.1 -3.5 3.1 -3.9 2.3C-4.3 1.6 -3.3 0.1 -2.4 -2C-1.5 -4.1 -0.8 -7 0.2 -7.1C1.1 -7.2 2.2 -4.5 3.4 -2.2Z" fill="#e8d7ce"></path></g><g transform="translate(353 387)"><path d="M1.9 -1.2C2.1 -0.7 1.8 0.1 1.4 0.5C1 0.9 0.5 1 -0.1 1.1C-0.8 1.2 -1.5 1.2 -1.8 0.9C-2 0.6 -1.8 -0.2 -1.4 -0.8C-1 -1.5 -0.5 -2 0.2 -2.1C0.8 -2.2 1.7 -1.8 1.9 -1.2Z" fill="#e8d7ce"></path></g><g transform="translate(815 79)"><path d="M1.4 -0.8C1.7 -0.4 1.7 0.3 1.4 0.7C1.1 1.2 0.5 1.4 0.1 1.3C-0.4 1.3 -0.8 1 -1.2 0.6C-1.5 0.1 -1.8 -0.5 -1.6 -0.9C-1.4 -1.3 -0.7 -1.5 -0.1 -1.5C0.6 -1.4 1.2 -1.2 1.4 -0.8Z" fill="#e8d7ce"></path></g><g transform="translate(402 383)"><path d="M4.7 -2.4C5.4 -1.5 4.8 0.5 3.8 1.8C2.8 3.2 1.4 3.9 -0.1 4C-1.7 4.1 -3.4 3.5 -4.5 2.1C-5.6 0.6 -6.2 -1.6 -5.3 -2.5C-4.5 -3.5 -2.2 -3 -0.1 -3C2 -2.9 4 -3.2 4.7 -2.4Z" fill="#e8d7ce"></path></g><g transform="translate(389 453)"><path d="M5.1 -2.5C6.2 -1.1 6.3 1.3 5.3 3.3C4.3 5.2 2.1 6.7 -0.2 6.8C-2.5 6.9 -4.9 5.6 -6.1 3.5C-7.2 1.5 -7.1 -1.2 -5.8 -2.8C-4.6 -4.3 -2.3 -4.6 -0.1 -4.5C2 -4.4 4 -4 5.1 -2.5Z" fill="#e8d7ce"></path></g><g transform="translate(611 573)"><path d="M5.5 -3.5C6 -2.4 4.4 -0.4 3.2 1.5C1.9 3.4 0.9 5.1 -0.5 5.4C-2 5.7 -4 4.6 -4.8 3C-5.6 1.4 -5.1 -0.6 -4.1 -2.1C-3.1 -3.5 -1.6 -4.3 0.5 -4.6C2.5 -4.9 5.1 -4.6 5.5 -3.5Z" fill="#e8d7ce"></path></g><g transform="translate(856 275)"><path d="M2.6 -2.5C3.1 -0.7 2.9 0.5 2.4 1.9C1.9 3.3 0.9 5 -0.2 5.1C-1.3 5.2 -2.6 3.8 -3.1 2.4C-3.6 1 -3.1 -0.3 -2.5 -2.2C-1.8 -4.1 -0.9 -6.6 0.1 -6.6C1.1 -6.7 2.1 -4.3 2.6 -2.5Z" fill="#e8d7ce"></path></g><g transform="translate(440 533)"><path d="M5 -2.9C5.4 -2.2 3.9 -0.4 2.8 0.6C1.6 1.7 0.8 1.9 0.1 1.9C-0.7 1.8 -1.4 1.5 -1.7 1C-2 0.4 -1.9 -0.3 -1.6 -1.1C-1.3 -1.8 -0.6 -2.5 0.8 -3C2.3 -3.5 4.5 -3.7 5 -2.9Z" fill="#e8d7ce"></path></g><g transform="translate(549 132)"><path d="M2.8 -2.5C3.3 -0.8 3.1 0.4 2.5 1.4C1.9 2.4 1 3.2 -0.9 3.7C-2.7 4.2 -5.4 4.4 -6.7 3C-8 1.6 -7.9 -1.5 -6.6 -3.7C-5.2 -5.9 -2.6 -7.3 -0.7 -6.9C1.2 -6.5 2.3 -4.2 2.8 -2.5Z" fill="#e8d7ce"></path></g><g transform="translate(718 109)"><path d="M3.7 -2.7C4.1 -1.5 3.1 -0.1 2.3 0.9C1.4 2 0.7 2.8 -0.3 3C-1.3 3.1 -2.6 2.7 -3.3 1.7C-4.1 0.7 -4.1 -0.9 -3.5 -2.2C-2.8 -3.5 -1.4 -4.7 0.1 -4.8C1.7 -4.8 3.4 -3.9 3.7 -2.7Z" fill="#e8d7ce"></path></g><g transform="translate(710 31)"><path d="M5.3 -3.1C6.3 -1.2 6.3 1.2 5.3 2.3C4.2 3.5 2.1 3.3 -0.6 3.7C-3.3 4 -6.5 4.8 -8 3.4C-9.5 2.1 -9.2 -1.5 -7.6 -3.7C-5.9 -5.9 -3 -6.7 -0.4 -6.4C2.1 -6.2 4.2 -4.9 5.3 -3.1Z" fill="#e8d7ce"></path></g><g transform="translate(784 324)"><path d="M3.2 -1.1C4.5 0.5 6.3 2.6 5.8 3.3C5.3 4.1 2.7 3.7 0.2 3.6C-2.3 3.5 -4.7 3.8 -5.5 2.8C-6.2 1.8 -5.5 -0.4 -4.3 -2C-3.1 -3.5 -1.6 -4.2 -0.3 -4C0.9 -3.8 1.8 -2.7 3.2 -1.1Z" fill="#e8d7ce"></path></g><g transform="translate(842 461)"><path d="M3.6 -2.4C4.3 -0.9 4.3 0.8 3.5 2.1C2.8 3.4 1.4 4.3 0.3 4.1C-0.8 4 -1.6 2.7 -2.6 1.2C-3.6 -0.2 -4.8 -1.8 -4.4 -3.1C-4 -4.5 -2 -5.4 -0.3 -5.3C1.5 -5.1 2.9 -3.8 3.6 -2.4Z" fill="#e8d7ce"></path></g><g transform="translate(249 408)"><path d="M1.1 -0.5C1.2 -0.3 1.2 0.2 1 0.4C0.7 0.6 0.4 0.6 0 0.6C-0.4 0.6 -0.8 0.6 -1 0.5C-1.1 0.3 -1 -0.1 -0.8 -0.4C-0.6 -0.7 -0.3 -0.8 0.1 -0.8C0.4 -0.8 0.9 -0.8 1.1 -0.5Z" fill="#e8d7ce"></path></g><g transform="translate(95 269)"><path d="M2.4 -1C2.9 -0.5 3 0.6 2.5 1.4C2 2.2 1 2.7 0.2 2.6C-0.6 2.5 -1.1 1.7 -1.5 1C-2 0.2 -2.2 -0.6 -1.9 -1C-1.6 -1.5 -0.8 -1.6 0.1 -1.6C0.9 -1.6 1.9 -1.6 2.4 -1Z" fill="#e8d7ce"></path></g><g transform="translate(599 112)"><path d="M2.3 -1.6C2.5 -1 1.9 -0.1 1.4 0.5C0.8 1.1 0.4 1.4 -0.2 1.5C-0.8 1.6 -1.7 1.5 -2.3 0.9C-3 0.2 -3.5 -1.1 -3.1 -1.8C-2.7 -2.5 -1.3 -2.6 -0.1 -2.5C1.1 -2.5 2.1 -2.1 2.3 -1.6Z" fill="#e8d7ce"></path></g><g transform="translate(701 403)"><path d="M1.8 -1.4C2 -0.6 1.7 0.1 1.3 0.8C0.9 1.5 0.4 2.2 0 2.2C-0.5 2.2 -0.9 1.5 -1.4 0.7C-2 -0.1 -2.6 -1 -2.3 -1.7C-2.1 -2.5 -1.1 -3.1 -0.1 -3C0.8 -2.9 1.6 -2.1 1.8 -1.4Z" fill="#e8d7ce"></path></g><g transform="translate(407 566)"><path d="M6 -3.5C6.9 -1.9 6.2 0.6 4.9 2.4C3.6 4.1 1.8 5 -0.3 5.2C-2.5 5.4 -5 4.8 -5.9 3.4C-6.7 1.9 -6 -0.6 -4.7 -2.4C-3.5 -4.2 -1.7 -5.4 0.4 -5.6C2.5 -5.8 5.1 -5.1 6 -3.5Z" fill="#e8d7ce"></path></g><g transform="translate(233 237)"><path d="M1.9 -1.2C2.2 -0.6 2 0.2 1.6 0.8C1.2 1.4 0.6 1.7 -0.2 1.8C-1 1.9 -1.9 1.8 -2.3 1.2C-2.7 0.7 -2.6 -0.4 -2.1 -1.1C-1.6 -1.7 -0.8 -2.1 0 -2.1C0.8 -2.1 1.6 -1.7 1.9 -1.2Z" fill="#e8d7ce"></path></g><g transform="translate(139 553)"><path d="M2.4 -1.1C2.8 -0.6 2.7 0.5 2.3 1.1C1.8 1.7 0.9 1.8 0.1 1.8C-0.8 1.8 -1.5 1.5 -2.2 0.8C-2.8 0.1 -3.4 -1.1 -3 -1.5C-2.6 -1.9 -1.3 -1.6 -0.2 -1.5C1 -1.4 1.9 -1.5 2.4 -1.1Z" fill="#e8d7ce"></path></g><g transform="translate(388 14)"><path d="M6.4 -3.6C7.4 -2.1 6.5 0.6 5.1 2.3C3.7 4.1 1.9 4.9 -0.1 5C-2.1 5 -4.2 4.3 -5.3 2.7C-6.5 1 -6.8 -1.5 -5.8 -3.2C-4.7 -4.8 -2.4 -5.5 0.2 -5.6C2.7 -5.7 5.5 -5.2 6.4 -3.6Z" fill="#e8d7ce"></path></g><g transform="translate(708 445)"><path d="M1.6 -1.1C1.7 -0.7 1.2 -0.1 0.8 0.5C0.5 1.2 0.2 2 -0.1 2.1C-0.5 2.1 -1 1.5 -1.4 0.8C-1.8 0.1 -2 -0.6 -1.8 -1C-1.5 -1.5 -0.8 -1.7 0 -1.7C0.7 -1.6 1.4 -1.4 1.6 -1.1Z" fill="#e8d7ce"></path></g><g transform="translate(724 532)"><path d="M2.6 -1.4C3.2 -0.5 3.3 0.8 2.8 1.9C2.3 3 1.2 4 -0.1 4C-1.4 4.1 -2.8 3.3 -3.6 2C-4.3 0.8 -4.4 -0.9 -3.7 -1.9C-3 -2.9 -1.5 -3.2 -0.2 -3.1C1 -2.9 2 -2.3 2.6 -1.4Z" fill="#e8d7ce"></path></g><g transform="translate(129 583)"><path d="M1.3 -0.9C1.7 -0.1 2 0.6 1.8 1C1.6 1.3 0.8 1.2 0.2 1.1C-0.4 1 -0.8 0.9 -1.2 0.5C-1.6 0.1 -1.9 -0.6 -1.7 -1.3C-1.5 -1.9 -0.8 -2.6 -0.1 -2.5C0.5 -2.4 0.9 -1.6 1.3 -0.9Z" fill="#e8d7ce"></path></g><g transform="translate(168 469)"><path d="M5.8 -3.1C7.3 -0.8 8 2.1 7 4.1C5.9 6.1 2.9 7.1 0.1 7C-2.7 6.9 -5.4 5.8 -6.4 3.8C-7.5 1.9 -6.9 -0.9 -5.6 -3.1C-4.2 -5.3 -2.1 -6.9 0 -6.9C2.2 -6.9 4.3 -5.3 5.8 -3.1Z" fill="#e8d7ce"></path></g><g transform="translate(468 382)"><path d="M2.8 -2.4C3.5 -0.5 3.7 0.9 3.2 1.6C2.6 2.4 1.3 2.5 0.1 2.5C-1.2 2.4 -2.3 2.2 -3.3 1.2C-4.2 0.3 -4.9 -1.5 -4.3 -3.4C-3.7 -5.3 -1.9 -7.3 -0.4 -7.1C1.1 -6.9 2.2 -4.4 2.8 -2.4Z" fill="#e8d7ce"></path></g><g transform="translate(354 546)"><path d="M4.8 -2.9C5.2 -2.1 3.7 -0.4 2.6 1.1C1.5 2.7 0.7 4.1 -0.5 4.4C-1.8 4.7 -3.7 3.9 -4.7 2.4C-5.7 0.9 -6 -1.3 -5 -2.3C-4.1 -3.4 -2.1 -3.2 0.1 -3.2C2.2 -3.3 4.4 -3.6 4.8 -2.9Z" fill="#e8d7ce"></path></g><g transform="translate(86 558)"><path d="M2.2 -1.7C2.6 -0.6 2.5 0.4 2 1.4C1.6 2.5 0.8 3.6 -0.2 3.7C-1.1 3.8 -2.2 2.9 -2.8 1.8C-3.3 0.7 -3.2 -0.5 -2.6 -1.7C-2.1 -2.9 -1 -3.9 -0.1 -3.9C0.9 -3.9 1.8 -2.7 2.2 -1.7Z" fill="#e8d7ce"></path></g><g transform="translate(506 39)"><path d="M1.6 -1.1C1.8 -0.6 1.5 0.1 1.2 1C0.8 2 0.4 3.2 -0.3 3.4C-1 3.5 -2 2.6 -2.6 1.5C-3.3 0.4 -3.5 -0.9 -3 -1.5C-2.5 -2.2 -1.2 -2.2 -0.3 -2.1C0.7 -1.9 1.4 -1.6 1.6 -1.1Z" fill="#e8d7ce"></path></g><g transform="translate(122 136)"><path d="M0.6 -0.4C0.7 -0.2 0.6 0.1 0.5 0.2C0.3 0.3 0.2 0.3 0 0.3C-0.1 0.3 -0.2 0.2 -0.4 0.1C-0.5 0 -0.7 -0.3 -0.6 -0.4C-0.6 -0.6 -0.3 -0.7 0 -0.7C0.3 -0.7 0.5 -0.6 0.6 -0.4Z" fill="#e8d7ce"></path></g><g transform="translate(223 297)"><path d="M2.2 -2.2C2.7 -0.4 2.9 0.7 2.4 1.8C2 3 1 4.3 -0.1 4.3C-1.1 4.4 -2.3 3.2 -3 1.9C-3.6 0.5 -3.8 -0.9 -3.3 -2.7C-2.7 -4.5 -1.4 -6.6 -0.2 -6.5C0.9 -6.3 1.7 -3.9 2.2 -2.2Z" fill="#e8d7ce"></path></g><g transform="translate(404 104)"><path d="M2.2 -2.2C2.7 -0.5 2.7 0.6 2.3 2.6C1.9 4.7 0.9 7.8 -0.2 8C-1.3 8.1 -2.7 5.2 -3.6 2.8C-4.6 0.4 -5.1 -1.4 -4.5 -3.3C-3.8 -5.1 -1.9 -6.9 -0.5 -6.6C0.9 -6.3 1.8 -3.9 2.2 -2.2Z" fill="#e8d7ce"></path></g><g transform="translate(8 478)"><path d="M4.4 -3.1C5.2 -1.3 4.8 0.7 3.9 2.8C3 4.8 1.5 7.1 -0.6 7.4C-2.7 7.8 -5.5 6.3 -6.5 4.1C-7.5 2 -6.7 -0.7 -5.4 -2.9C-4 -5.1 -2 -6.8 -0.1 -6.7C1.8 -6.7 3.7 -4.9 4.4 -3.1Z" fill="#e8d7ce"></path></g><g transform="translate(864 400)"><path d="M6.8 -4.3C8.2 -1.5 8.4 1.7 7 3.3C5.6 4.9 2.8 4.9 0.2 4.8C-2.5 4.7 -4.9 4.5 -5.4 3.4C-5.9 2.3 -4.4 0.3 -3.2 -2.4C-2 -5.1 -1 -8.4 0.9 -8.9C2.7 -9.4 5.4 -7.1 6.8 -4.3Z" fill="#e8d7ce"></path></g><g transform="translate(468 172)"><path d="M6.2 -3.9C6.9 -2.3 5.6 0.1 4.2 1.8C2.9 3.4 1.4 4.4 -0.4 4.6C-2.2 4.8 -4.4 4.3 -5.5 2.8C-6.5 1.3 -6.4 -1.2 -5.3 -2.9C-4.2 -4.7 -2.1 -5.7 0.3 -5.9C2.7 -6.1 5.5 -5.4 6.2 -3.9Z" fill="#e8d7ce"></path></g><g transform="translate(751 359)"><path d="M1.1 -0.7C1.3 -0.3 1.3 0.2 1.1 0.6C0.9 1 0.4 1.3 0.1 1.3C-0.3 1.2 -0.6 0.9 -0.8 0.5C-1 0.1 -1.2 -0.3 -1 -0.7C-0.8 -1 -0.4 -1.3 0 -1.3C0.5 -1.3 0.9 -1 1.1 -0.7Z" fill="#e8d7ce"></path></g><g transform="translate(631 537)"><path d="M1.9 -1.1C2 -0.8 1.4 -0.2 1 0.4C0.5 1 0.3 1.6 0 1.6C-0.2 1.6 -0.5 1 -0.7 0.5C-1 0 -1.2 -0.4 -1.1 -0.7C-1 -0.9 -0.5 -1 0.2 -1.1C0.9 -1.2 1.7 -1.3 1.9 -1.1Z" fill="#e8d7ce"></path></g><g transform="translate(514 552)"><path d="M1.3 -0.6C1.6 -0.4 1.4 0.2 1.2 0.6C0.9 1 0.4 1.1 0.1 1.1C-0.2 1 -0.4 0.6 -0.5 0.3C-0.7 0 -0.9 -0.3 -0.8 -0.5C-0.7 -0.6 -0.4 -0.6 0.1 -0.7C0.6 -0.7 1.1 -0.8 1.3 -0.6Z" fill="#e8d7ce"></path></g><g transform="translate(351 134)"><path d="M0.5 -0.3C0.6 0 0.8 0.3 0.7 0.6C0.7 1 0.3 1.4 0.1 1.4C-0.1 1.3 -0.3 0.8 -0.5 0.3C-0.8 -0.1 -1.1 -0.5 -1 -0.8C-1 -1.1 -0.5 -1.3 -0.2 -1.2C0.1 -1.1 0.3 -0.7 0.5 -0.3Z" fill="#e8d7ce"></path></g><g transform="translate(556 547)"><path d="M3.5 -2.2C4.5 -0.3 5.2 1.5 4.6 3.5C3.9 5.5 2 7.6 0.4 7.4C-1.2 7.2 -2.4 4.6 -3.8 2.2C-5.2 -0.2 -6.7 -2.4 -6.1 -4.1C-5.5 -5.8 -2.7 -6.9 -0.7 -6.5C1.3 -6 2.6 -4.1 3.5 -2.2Z" fill="#e8d7ce"></path></g><g transform="translate(221 356)"><path d="M4.7 -2.9C5.4 -1.4 5 0.6 4 1.9C3 3.2 1.5 3.8 -0.3 3.9C-2.1 4.1 -4.2 3.9 -5 2.7C-5.8 1.5 -5.3 -0.6 -4.2 -2.3C-3.2 -4 -1.6 -5.1 0.2 -5.2C2 -5.3 3.9 -4.4 4.7 -2.9Z" fill="#e8d7ce"></path></g><g transform="translate(606 367)"><path d="M1.2 -0.4C1.6 0 2 0.7 1.8 1C1.6 1.3 0.8 1.2 0.1 1.1C-0.6 1.1 -1.3 1.1 -1.7 0.7C-2.1 0.2 -2.3 -0.6 -2 -1C-1.7 -1.3 -0.8 -1.1 -0.2 -1C0.4 -0.9 0.8 -0.8 1.2 -0.4Z" fill="#e8d7ce"></path></g><g transform="translate(347 321)"><path d="M2.5 -1.9C3 -0.7 2.8 0.4 2.3 1.3C1.7 2.2 0.9 2.9 -0.2 3C-1.3 3.1 -2.7 2.7 -3.2 1.8C-3.8 0.9 -3.5 -0.5 -2.8 -1.8C-2.2 -3.2 -1.1 -4.5 0 -4.5C1 -4.5 2.1 -3.1 2.5 -1.9Z" fill="#e8d7ce"></path></g><g transform="translate(481 568)"><path d="M1.9 -1.2C2.1 -0.6 1.9 0.2 1.5 0.6C1.1 1 0.6 1.1 -0.1 1.2C-0.8 1.2 -1.6 1.3 -2 0.9C-2.3 0.5 -2.2 -0.3 -1.8 -1C-1.4 -1.7 -0.7 -2.2 0 -2.3C0.8 -2.3 1.6 -1.8 1.9 -1.2Z" fill="#e8d7ce"></path></g><g transform="translate(551 483)"><path d="M5.9 -2.6C7.5 -0.6 8.7 2.5 7.6 4.6C6.5 6.7 3.3 7.8 -0.1 7.9C-3.4 7.9 -6.8 6.9 -7.4 5.1C-8 3.3 -5.7 0.7 -4 -1.4C-2.3 -3.5 -1.1 -5 0.5 -5.3C2.1 -5.6 4.3 -4.6 5.9 -2.6Z" fill="#e8d7ce"></path></g><g transform="translate(674 318)"><path d="M2.8 -2.2C3.5 -0.5 3.8 1 3.3 1.9C2.7 2.8 1.4 3.3 -0.1 3.4C-1.6 3.4 -3.1 3.1 -3.7 2.1C-4.3 1.1 -3.9 -0.4 -3.1 -2.2C-2.3 -4 -1.2 -6 0 -6C1.1 -6 2.2 -3.9 2.8 -2.2Z" fill="#e8d7ce"></path></g><g transform="translate(318 99)"><path d="M0.8 -0.4C1 0 1.2 0.4 1.1 0.7C1 1 0.5 1.3 0 1.3C-0.6 1.3 -1.1 1.2 -1.2 0.9C-1.3 0.6 -0.9 0.1 -0.6 -0.3C-0.3 -0.7 -0.2 -1 0 -1.1C0.3 -1.1 0.5 -0.8 0.8 -0.4Z" fill="#e8d7ce"></path></g><g transform="translate(309 53)"><path d="M4.7 -2.9C5.3 -1.7 4.4 0.2 3.4 1.8C2.4 3.5 1.2 5 -0.6 5.3C-2.3 5.6 -4.6 4.8 -5.3 3.3C-6 1.8 -5.1 -0.3 -4 -1.8C-2.8 -3.3 -1.4 -4.1 0.3 -4.3C2.1 -4.4 4.2 -4 4.7 -2.9Z" fill="#e8d7ce"></path></g><g transform="translate(808 542)"><path d="M3.8 -1.8C4.8 -0.5 5.3 1.4 4.6 2.7C3.9 4 1.9 4.7 0.7 4.2C-0.5 3.8 -1.1 2.4 -2.1 0.9C-3.1 -0.5 -4.5 -2 -4.3 -2.9C-4 -3.8 -2 -4.2 -0.3 -4.1C1.4 -3.9 2.8 -3.2 3.8 -1.8Z" fill="#e8d7ce"></path></g><g transform="translate(843 563)"><path d="M3.4 -1.9C3.8 -1.1 3.4 0.3 2.7 1.2C1.9 2.2 1 2.7 -0.1 2.8C-1.2 2.8 -2.4 2.5 -2.8 1.7C-3.2 0.9 -2.9 -0.3 -2.3 -1.1C-1.7 -2 -0.8 -2.5 0.3 -2.6C1.4 -2.8 2.9 -2.6 3.4 -1.9Z" fill="#e8d7ce"></path></g><g transform="translate(481 239)"><path d="M0.4 -0.3C0.5 -0.1 0.5 0.1 0.4 0.3C0.3 0.5 0.2 0.6 -0.2 0.7C-0.5 0.8 -1.1 0.9 -1.2 0.7C-1.3 0.5 -1.1 0 -0.8 -0.3C-0.5 -0.6 -0.3 -0.6 -0.1 -0.6C0.2 -0.6 0.3 -0.4 0.4 -0.3Z" fill="#e8d7ce"></path></g><g transform="translate(515 175)"><path d="M3.2 -2.5C3.8 -0.7 3.8 0.7 3.2 2.1C2.6 3.5 1.3 4.7 -0.6 5.1C-2.5 5.5 -5 4.9 -5.6 3.6C-6.1 2.3 -4.7 0.2 -3.5 -1.9C-2.2 -4 -1.1 -6.2 0.1 -6.2C1.3 -6.3 2.6 -4.2 3.2 -2.5Z" fill="#e8d7ce"></path></g><g transform="translate(255 124)"><path d="M3.1 -1.8C4.2 0 5.3 1.9 4.8 3.5C4.3 5.1 2.2 6.4 0.4 6.1C-1.3 5.9 -2.6 4.1 -3.8 2.1C-5 0.2 -6 -1.9 -5.3 -3.5C-4.6 -5.2 -2.3 -6.4 -0.6 -6C1 -5.6 2.1 -3.7 3.1 -1.8Z" fill="#e8d7ce"></path></g><g transform="translate(560 2)"><path d="M1 -0.6C1.1 -0.4 0.9 0 0.6 0.4C0.4 0.8 0.2 1.3 -0.2 1.4C-0.5 1.5 -1 1.2 -1.1 0.8C-1.3 0.5 -1 0 -0.7 -0.3C-0.5 -0.5 -0.2 -0.7 0.1 -0.8C0.5 -0.8 0.9 -0.8 1 -0.6Z" fill="#e8d7ce"></path></g><g transform="translate(543 264)"><path d="M5.4 -3.8C6.1 -2 5 0.1 3.8 1.7C2.6 3.2 1.3 4.2 -0.5 4.5C-2.4 4.9 -4.8 4.5 -5.1 3.4C-5.5 2.3 -3.9 0.5 -2.7 -1.6C-1.5 -3.7 -0.7 -6.2 0.8 -6.7C2.4 -7.2 4.8 -5.7 5.4 -3.8Z" fill="#e8d7ce"></path></g><g transform="translate(654 276)"><path d="M3.2 -1C4.3 0.1 5.5 2 5 2.7C4.5 3.4 2.3 2.8 -0.1 2.9C-2.5 3 -5 3.6 -5.6 2.9C-6.3 2.1 -5 0 -3.8 -1.3C-2.6 -2.5 -1.3 -2.7 -0.1 -2.7C1 -2.6 2 -2.2 3.2 -1Z" fill="#e8d7ce"></path></g><g transform="translate(606 498)"><path d="M4.2 -3C4.6 -1.8 3.4 -0.2 2.5 1.5C1.5 3.2 0.8 5.1 -0.1 5.1C-0.9 5.2 -1.9 3.4 -2.6 1.8C-3.3 0.3 -3.8 -1.1 -3.4 -2.4C-2.9 -3.6 -1.4 -4.8 0.2 -4.9C1.9 -5 3.8 -4.2 4.2 -3Z" fill="#e8d7ce"></path></g><g transform="translate(684 248)"><path d="M2.7 -1.7C3.2 -0.6 3.3 0.6 2.7 1.6C2.2 2.5 1.1 3.1 0 3.1C-1 3 -2 2.4 -2.5 1.5C-3 0.6 -2.9 -0.5 -2.4 -1.5C-1.9 -2.5 -0.9 -3.5 0.1 -3.5C1.1 -3.5 2.1 -2.7 2.7 -1.7Z" fill="#e8d7ce"></path></g><g transform="translate(516 149)"><path d="M3.4 -1.4C4.4 -0.1 5.4 1.8 4.8 3C4.2 4.2 2.1 4.8 0.1 4.8C-1.9 4.7 -3.8 4 -4.3 2.8C-4.8 1.7 -3.9 0 -2.9 -1.2C-2 -2.5 -1 -3.2 0.1 -3.3C1.2 -3.3 2.3 -2.7 3.4 -1.4Z" fill="#e8d7ce"></path></g><g transform="translate(897 218)"><path d="M0.5 -0.4C0.7 -0.1 0.8 0.2 0.7 0.5C0.6 0.8 0.3 1.1 0.1 1.1C-0.2 1 -0.3 0.7 -0.5 0.3C-0.7 -0.1 -1 -0.4 -0.9 -0.7C-0.9 -1 -0.4 -1.2 -0.1 -1.1C0.2 -1.1 0.4 -0.7 0.5 -0.4Z" fill="#e8d7ce"></path></g><g transform="translate(138 106)"><path d="M1.7 -1.1C2 -0.4 2 0.4 1.7 1.3C1.3 2.2 0.7 3.3 -0.3 3.5C-1.2 3.6 -2.4 2.9 -3 1.8C-3.6 0.7 -3.6 -0.7 -3 -1.5C-2.4 -2.4 -1.2 -2.7 -0.3 -2.6C0.7 -2.4 1.3 -1.8 1.7 -1.1Z" fill="#e8d7ce"></path></g><g transform="translate(766 524)"><path d="M2.4 -0.9C3.3 0.2 4.4 1.7 4 3C3.6 4.3 1.8 5.4 0.5 5.1C-0.9 4.9 -1.8 3.2 -2.6 1.7C-3.4 0.2 -4 -1.3 -3.6 -2.1C-3.1 -3 -1.6 -3.3 -0.4 -3.1C0.7 -2.9 1.5 -2.1 2.4 -0.9Z" fill="#e8d7ce"></path></g><g transform="translate(750 260)"><path d="M2.8 -1C3.6 -0.3 4.2 1.2 3.7 2.1C3.2 2.9 1.6 3 0.6 2.7C-0.4 2.3 -0.9 1.6 -1.4 0.7C-1.9 -0.1 -2.5 -1 -2.3 -1.3C-2.1 -1.7 -1 -1.6 0 -1.6C1 -1.6 2 -1.7 2.8 -1Z" fill="#e8d7ce"></path></g><g transform="translate(602 176)"><path d="M1.4 -0.8C1.6 -0.4 1.6 0.3 1.3 0.7C1 1.1 0.5 1.3 0.2 1.2C-0.2 1.1 -0.4 0.7 -0.7 0.3C-0.9 -0.1 -1.3 -0.5 -1.2 -0.9C-1.1 -1.3 -0.5 -1.6 0 -1.6C0.6 -1.6 1.1 -1.3 1.4 -0.8Z" fill="#e8d7ce"></path></g><g transform="translate(273 559)"><path d="M3.9 -1.5C5 -0.3 5.9 1.8 5.2 3C4.5 4.3 2.3 4.6 0.6 4.3C-1 3.9 -2 2.8 -2.4 1.8C-2.8 0.7 -2.6 -0.3 -2.1 -1.1C-1.6 -2 -0.8 -2.6 0.3 -2.7C1.4 -2.9 2.8 -2.7 3.9 -1.5Z" fill="#e8d7ce"></path></g><g transform="translate(38 543)"><path d="M3.3 -2.2C4.1 -0.4 4.6 1.3 4 3C3.4 4.8 1.7 6.6 -0.3 6.8C-2.4 7 -4.7 5.5 -5.6 3.6C-6.5 1.7 -5.9 -0.7 -4.7 -2.7C-3.5 -4.6 -1.8 -6.2 -0.3 -6.1C1.2 -5.9 2.4 -4 3.3 -2.2Z" fill="#e8d7ce"></path></g><g transform="translate(118 486)"><path d="M1.9 -1.6C2.1 -0.7 1.7 0 1.2 0.6C0.8 1.3 0.4 1.8 -0.2 2C-0.9 2.1 -1.8 1.8 -2.1 1.3C-2.4 0.7 -2 -0.2 -1.6 -1.2C-1.2 -2.2 -0.6 -3.3 0.1 -3.4C0.8 -3.5 1.7 -2.5 1.9 -1.6Z" fill="#e8d7ce"></path></g><g transform="translate(666 53)"><path d="M3.8 -2.2C4.5 -0.9 4.5 0.9 3.8 2.3C3 3.7 1.5 4.9 0.4 4.6C-0.7 4.4 -1.3 2.8 -1.6 1.6C-1.9 0.5 -1.8 -0.2 -1.4 -1.4C-1.1 -2.5 -0.5 -4 0.5 -4.3C1.5 -4.6 3 -3.6 3.8 -2.2Z" fill="#e8d7ce"></path></g><g transform="translate(508 596)"><path d="M5.6 -2.8C6.9 -1.1 7.1 1.6 6 2.7C4.9 3.8 2.5 3.4 0.7 3C-1.1 2.7 -2.3 2.3 -2.9 1.5C-3.5 0.6 -3.6 -0.7 -3 -2C-2.4 -3.3 -1.2 -4.5 0.5 -4.7C2.2 -5 4.4 -4.4 5.6 -2.8Z" fill="#e8d7ce"></path></g><g transform="translate(560 305)"><path d="M0.7 -0.3C0.8 -0.2 0.8 0.1 0.7 0.3C0.5 0.4 0.3 0.4 0 0.4C-0.3 0.4 -0.5 0.4 -0.6 0.3C-0.6 0.2 -0.4 0 -0.3 -0.1C-0.2 -0.3 -0.1 -0.4 0.1 -0.4C0.3 -0.5 0.6 -0.5 0.7 -0.3Z" fill="#e8d7ce"></path></g><g transform="translate(739 467)"><path d="M2.7 -1.5C3.8 0.2 5 1.9 4.5 2.6C4.1 3.3 2 3.1 0 3.1C-2 3.1 -4 3.3 -5.3 2.1C-6.6 0.9 -7.1 -1.8 -6.1 -3.4C-5.1 -5 -2.5 -5.7 -0.8 -5.2C0.9 -4.7 1.7 -3.1 2.7 -1.5Z" fill="#e8d7ce"></path></g><g transform="translate(66 49)"><path d="M3.7 -1.8C4.7 -0.3 5.5 1.7 4.8 3C4.2 4.4 2.1 5.1 0 5.1C-2 5.1 -4.1 4.3 -4.7 3C-5.3 1.6 -4.4 -0.2 -3.4 -1.7C-2.4 -3.3 -1.2 -4.5 0.1 -4.5C1.3 -4.5 2.6 -3.4 3.7 -1.8Z" fill="#e8d7ce"></path></g><g transform="translate(643 415)"><path d="M3 -1.8C3.6 -0.7 3.6 0.7 3 1.5C2.4 2.2 1.2 2.3 0.3 2.1C-0.6 2 -1.2 1.5 -1.8 0.8C-2.4 0 -2.9 -1 -2.6 -1.9C-2.3 -2.9 -1.2 -3.8 0 -3.8C1.2 -3.8 2.4 -3 3 -1.8Z" fill="#e8d7ce"></path></g><g transform="translate(714 208)"><path d="M1.3 -0.7C1.5 -0.4 1.3 0.1 1.1 0.5C0.8 0.8 0.4 1 -0.3 1.2C-1 1.3 -1.9 1.5 -2.5 1C-3 0.5 -3.2 -0.7 -2.7 -1.2C-2.2 -1.6 -1.1 -1.3 -0.3 -1.2C0.5 -1 1.1 -1 1.3 -0.7Z" fill="#e8d7ce"></path></g><g transform="translate(90 415)"><path d="M1.3 -0.8C1.6 -0.3 1.6 0.4 1.4 0.8C1.1 1.2 0.6 1.5 0 1.5C-0.5 1.4 -1 1.1 -1.2 0.7C-1.3 0.3 -1.2 -0.2 -1 -0.7C-0.8 -1.2 -0.4 -1.7 0.1 -1.7C0.5 -1.7 1 -1.3 1.3 -0.8Z" fill="#e8d7ce"></path></g><g transform="translate(175 74)"><path d="M4.4 -1.9C5.4 -0.8 5.7 1.3 4.8 2.6C4 3.8 2 4.2 0.5 3.9C-1 3.6 -2 2.7 -2.6 1.6C-3.1 0.5 -3.3 -0.8 -2.8 -1.5C-2.3 -2.3 -1.2 -2.5 0.3 -2.7C1.7 -2.9 3.4 -2.9 4.4 -1.9Z" fill="#e8d7ce"></path></g><g transform="translate(63 437)"><path d="M2.2 -0.8C3 0.1 3.9 1.4 3.5 2C3.2 2.6 1.6 2.4 0.4 2.2C-0.8 1.9 -1.5 1.6 -2.1 0.9C-2.7 0.2 -3.1 -0.9 -2.8 -1.6C-2.4 -2.4 -1.2 -2.7 -0.2 -2.5C0.7 -2.4 1.4 -1.8 2.2 -0.8Z" fill="#e8d7ce"></path></g><g transform="translate(726 69)"><path d="M4.8 -2.5C5.9 -0.8 6.4 1.6 5.4 3.1C4.5 4.5 2.3 5.2 0.5 4.9C-1.3 4.6 -2.7 3.5 -3.4 2.1C-4.2 0.7 -4.4 -1 -3.8 -2.4C-3.1 -3.8 -1.5 -5 0.1 -5.1C1.8 -5.2 3.7 -4.2 4.8 -2.5Z" fill="#e8d7ce"></path></g><g transform="translate(753 216)"><path d="M2.9 -0.9C4.3 0.7 6.3 2.8 5.9 4.2C5.5 5.7 2.8 6.5 0 6.5C-2.8 6.5 -5.5 5.6 -6.3 3.9C-7.2 2.2 -6 -0.3 -4.7 -1.9C-3.3 -3.5 -1.6 -4.1 -0.4 -3.8C0.8 -3.6 1.5 -2.5 2.9 -0.9Z" fill="#e8d7ce"></path></g><g transform="translate(841 319)"><path d="M2.5 -1.4C3.1 -0.5 3.2 0.7 2.7 1.4C2.2 2.2 1.1 2.4 0 2.4C-1.1 2.4 -2.3 2.2 -2.8 1.5C-3.3 0.7 -3.2 -0.5 -2.6 -1.4C-2 -2.3 -1 -2.8 0 -2.8C1 -2.8 2 -2.3 2.5 -1.4Z" fill="#e8d7ce"></path></g><g transform="translate(81 104)"><path d="M1.2 -0.6C1.5 -0.1 1.8 0.5 1.5 1.1C1.3 1.6 0.7 2 0.2 1.9C-0.3 1.8 -0.5 1.1 -0.8 0.6C-1.1 0 -1.3 -0.5 -1.2 -0.9C-1.1 -1.3 -0.5 -1.7 -0.1 -1.6C0.4 -1.6 0.9 -1.2 1.2 -0.6Z" fill="#e8d7ce"></path></g><g transform="translate(156 400)"><path d="M5.4 -3.1C6.4 -1.4 6.2 1 5.1 3.1C4 5.3 2 7.1 0.2 7C-1.6 6.8 -3.1 4.8 -4.3 2.6C-5.5 0.4 -6.4 -1.9 -5.6 -3.5C-4.8 -5 -2.4 -5.9 -0.1 -5.9C2.2 -5.8 4.4 -4.8 5.4 -3.1Z" fill="#e8d7ce"></path></g><g transform="translate(84 295)"><path d="M3.5 -1.3C4.8 0.4 6.5 2.5 6 3.9C5.4 5.3 2.7 6 0.8 5.5C-1.2 5.1 -2.4 3.6 -3.2 2C-4 0.4 -4.5 -1.2 -3.9 -2.4C-3.3 -3.6 -1.7 -4.3 -0.3 -4.2C1.1 -4 2.1 -2.9 3.5 -1.3Z" fill="#e8d7ce"></path></g><g transform="translate(791 294)"><path d="M5.1 -2.1C6.5 -0.6 7.3 2 6.4 3.1C5.4 4.2 2.7 3.8 -0.2 3.9C-3.2 4.1 -6.4 4.8 -7.4 3.7C-8.3 2.6 -7.1 -0.4 -5.5 -2C-3.9 -3.7 -1.9 -4 0 -4C1.9 -4 3.8 -3.6 5.1 -2.1Z" fill="#e8d7ce"></path></g><g transform="translate(420 434)"><path d="M2.3 -1.3C2.8 -0.5 2.7 0.5 2.3 1.4C1.8 2.3 0.9 3 0 3C-0.9 3 -1.9 2.3 -2.2 1.5C-2.6 0.7 -2.4 -0.3 -1.9 -1C-1.4 -1.7 -0.7 -2.2 0.1 -2.3C0.9 -2.3 1.8 -2 2.3 -1.3Z" fill="#e8d7ce"></path></g><g transform="translate(168 41)"><path d="M0.9 -0.4C1 -0.1 1.1 0.3 1 0.6C0.8 0.9 0.4 1.2 0 1.2C-0.4 1.2 -0.8 1 -0.9 0.7C-1 0.4 -0.8 0.1 -0.5 -0.2C-0.3 -0.4 -0.2 -0.4 0.1 -0.5C0.3 -0.5 0.7 -0.6 0.9 -0.4Z" fill="#e8d7ce"></path></g><g transform="translate(4 38)"><path d="M0.3 -0.3C0.4 -0.1 0.3 0 0.2 0.1C0.2 0.2 0.1 0.2 -0.1 0.3C-0.2 0.3 -0.4 0.3 -0.5 0.2C-0.6 0.1 -0.6 -0.1 -0.5 -0.3C-0.4 -0.5 -0.2 -0.7 0 -0.7C0.1 -0.7 0.3 -0.5 0.3 -0.3Z" fill="#e8d7ce"></path></g><g transform="translate(403 522)"><path d="M1 -0.6C1.2 -0.3 1.1 0.2 0.9 0.5C0.7 0.8 0.3 1 0.1 1C-0.2 0.9 -0.4 0.6 -0.5 0.3C-0.7 0 -0.9 -0.3 -0.8 -0.6C-0.7 -0.9 -0.3 -1.2 0 -1.2C0.4 -1.2 0.8 -1 1 -0.6Z" fill="#e8d7ce"></path></g><g transform="translate(599 535)"><path d="M6 -3C7.5 -0.9 8.2 2.1 7.1 4.5C5.9 6.9 3 8.7 0.8 8.2C-1.4 7.8 -2.9 5.1 -3.8 2.9C-4.6 0.6 -5 -1.2 -4.3 -2.9C-3.6 -4.6 -1.8 -6.2 0.2 -6.3C2.3 -6.4 4.5 -5.2 6 -3Z" fill="#e8d7ce"></path></g><g transform="translate(638 110)"><path d="M5.2 -2.3C6.7 -0.5 7.7 2.3 6.8 3.6C5.9 4.8 2.9 4.5 1 4C-1 3.4 -2 2.6 -2.8 1.4C-3.6 0.2 -4.2 -1.3 -3.7 -2.5C-3.2 -3.8 -1.6 -4.8 0.1 -4.8C1.9 -4.9 3.7 -4.1 5.2 -2.3Z" fill="#e8d7ce"></path></g><g transform="translate(277 511)"><path d="M2.4 -1.6C2.7 -0.9 2.1 0 1.6 0.8C1.1 1.6 0.5 2.2 0 2.3C-0.6 2.3 -1.2 1.6 -1.4 1C-1.7 0.4 -1.7 -0.3 -1.4 -1C-1.1 -1.6 -0.5 -2.3 0.3 -2.5C1.1 -2.6 2.1 -2.2 2.4 -1.6Z" fill="#e8d7ce"></path></g><g transform="translate(374 218)"><path d="M1.1 -0.5C1.2 -0.3 1.1 0.1 0.9 0.4C0.7 0.6 0.3 0.7 0 0.7C-0.4 0.7 -0.9 0.7 -1 0.5C-1.2 0.3 -1.1 -0.1 -0.8 -0.3C-0.6 -0.6 -0.3 -0.6 0.1 -0.6C0.4 -0.7 0.9 -0.7 1.1 -0.5Z" fill="#e8d7ce"></path></g><g transform="translate(488 283)"><path d="M3.4 -2.4C3.9 -1.2 3.3 0.2 2.5 1.1C1.8 2.1 0.9 2.6 0 2.6C-0.9 2.6 -1.8 2 -2 1.4C-2.2 0.8 -1.8 0 -1.4 -1.3C-0.9 -2.5 -0.5 -4.2 0.5 -4.5C1.5 -4.8 3 -3.7 3.4 -2.4Z" fill="#e8d7ce"></path></g><g transform="translate(841 124)"><path d="M3.2 -1.4C4 -0.4 4.5 1.2 3.9 2.7C3.3 4.2 1.6 5.6 -0.2 5.7C-2 5.8 -4 4.7 -4.6 3.2C-5.1 1.7 -4.1 -0.1 -3.1 -1.1C-2.1 -2.1 -1.1 -2.4 0.1 -2.5C1.2 -2.5 2.4 -2.3 3.2 -1.4Z" fill="#e8d7ce"></path></g><g transform="translate(826 267)"><path d="M0.7 -0.4C1 0 1.2 0.4 1.1 0.6C1 0.8 0.5 0.8 0.1 0.7C-0.3 0.7 -0.6 0.6 -0.9 0.3C-1.1 0 -1.4 -0.5 -1.3 -0.8C-1.1 -1.2 -0.6 -1.4 -0.2 -1.3C0.2 -1.2 0.5 -0.8 0.7 -0.4Z" fill="#e8d7ce"></path></g><g transform="translate(372 476)"><path d="M1.1 -0.5C1.3 -0.3 1.3 0.2 1 0.7C0.8 1.3 0.4 1.8 0 1.8C-0.4 1.8 -0.8 1.2 -1.2 0.6C-1.6 0 -2 -0.7 -1.8 -1C-1.6 -1.2 -0.8 -1.1 -0.2 -1C0.4 -0.9 0.9 -0.8 1.1 -0.5Z" fill="#e8d7ce"></path></g><g transform="translate(675 354)"><path d="M5 -2.1C6.2 -0.7 6.8 1.8 5.8 3.2C4.9 4.7 2.5 5.1 0 5.1C-2.4 5 -4.7 4.6 -5.9 2.9C-7.2 1.3 -7.2 -1.4 -6 -2.7C-4.9 -4 -2.4 -3.9 -0.3 -3.7C1.9 -3.5 3.7 -3.4 5 -2.1Z" fill="#e8d7ce"></path></g><g transform="translate(306 26)"><path d="M1.4 -1C1.6 -0.4 1.5 0.2 1.2 0.5C0.9 0.9 0.5 0.9 0.1 0.9C-0.3 0.8 -0.5 0.6 -0.6 0.4C-0.8 0.1 -0.8 -0.2 -0.7 -0.7C-0.5 -1.2 -0.3 -1.9 0.2 -2C0.6 -2.1 1.2 -1.6 1.4 -1Z" fill="#e8d7ce"></path></g><g transform="translate(537 428)"><path d="M0.4 -0.1C0.5 0 0.7 0.2 0.6 0.4C0.5 0.5 0.3 0.6 0.1 0.5C-0.1 0.5 -0.2 0.3 -0.3 0.2C-0.4 0 -0.5 -0.2 -0.5 -0.3C-0.4 -0.3 -0.2 -0.3 0 -0.3C0.1 -0.3 0.3 -0.3 0.4 -0.1Z" fill="#e8d7ce"></path></g><g transform="translate(90 158)"><path d="M2.6 -1.6C3.4 -0.2 3.9 1.2 3.4 2C3 2.9 1.5 3.2 0.2 3.1C-1.1 3 -2.2 2.4 -3 1.3C-3.9 0.2 -4.6 -1.4 -4.1 -2.7C-3.5 -3.9 -1.8 -4.7 -0.4 -4.5C0.9 -4.3 1.9 -2.9 2.6 -1.6Z" fill="#e8d7ce"></path></g><g transform="translate(312 287)"><path d="M1.6 -1C2.1 -0.1 2.5 0.8 2.2 1.2C1.9 1.7 0.9 1.7 0.1 1.7C-0.7 1.6 -1.4 1.4 -2 0.8C-2.5 0.2 -3 -0.9 -2.6 -1.7C-2.2 -2.5 -1.1 -3.1 -0.3 -2.9C0.6 -2.7 1.1 -1.9 1.6 -1Z" fill="#e8d7ce"></path></g><g transform="translate(819 347)"><path d="M0.4 -0.2C0.4 -0.1 0.5 0.1 0.4 0.3C0.3 0.4 0.2 0.5 0 0.5C-0.2 0.5 -0.4 0.4 -0.4 0.3C-0.5 0.1 -0.4 0 -0.3 -0.2C-0.2 -0.3 -0.1 -0.4 0 -0.4C0.1 -0.4 0.3 -0.3 0.4 -0.2Z" fill="#e8d7ce"></path></g><g transform="translate(468 596)"><path d="M1.2 -0.7C1.4 -0.4 1.2 0.1 1 0.6C0.7 1 0.4 1.4 0 1.4C-0.4 1.4 -0.7 1 -1 0.6C-1.3 0.1 -1.4 -0.4 -1.2 -0.8C-1 -1.1 -0.5 -1.4 0 -1.4C0.5 -1.4 1 -1.1 1.2 -0.7Z" fill="#e8d7ce"></path></g><g transform="translate(176 347)"><path d="M1.5 -0.9C1.8 -0.5 1.6 0.2 1.3 0.6C1 1.1 0.5 1.4 0.1 1.4C-0.4 1.3 -0.7 1 -1.1 0.5C-1.4 0 -1.8 -0.6 -1.6 -1C-1.5 -1.3 -0.7 -1.4 0 -1.3C0.7 -1.3 1.3 -1.2 1.5 -0.9Z" fill="#e8d7ce"></path></g><g transform="translate(142 366)"><path d="M0.3 -0.2C0.3 -0.1 0.3 0 0.2 0.2C0.2 0.3 0.1 0.4 -0.1 0.4C-0.2 0.5 -0.4 0.4 -0.5 0.3C-0.6 0.1 -0.6 -0.1 -0.5 -0.3C-0.4 -0.5 -0.2 -0.7 0 -0.7C0.1 -0.6 0.2 -0.4 0.3 -0.2Z" fill="#e8d7ce"></path></g><g transform="translate(321 499)"><path d="M5.2 -2.6C6.3 -1.1 6.5 1.3 5.4 2.7C4.4 4 2.2 4.1 0.1 4.1C-2 4 -4 3.7 -4.7 2.6C-5.4 1.5 -4.7 -0.4 -3.7 -1.8C-2.7 -3.2 -1.4 -4.1 0.4 -4.3C2.1 -4.5 4.1 -4 5.2 -2.6Z" fill="#e8d7ce"></path></g><g transform="translate(569 242)"><path d="M3.8 -1.7C4.6 -0.7 4.9 1.1 4.1 1.8C3.4 2.5 1.7 2.1 0.3 1.9C-1 1.7 -2.1 1.8 -2.5 1.2C-3 0.7 -2.8 -0.4 -2.3 -1.2C-1.8 -2 -0.9 -2.5 0.3 -2.7C1.5 -2.8 2.9 -2.7 3.8 -1.7Z" fill="#e8d7ce"></path></g><g transform="translate(778 195)"><path d="M1.7 -0.9C2.2 -0.1 2.6 0.8 2.3 1.7C2 2.5 1 3.3 0.2 3.2C-0.5 3 -1 2 -1.4 1C-1.8 0.1 -2.1 -0.6 -1.9 -1.3C-1.6 -1.9 -0.8 -2.3 -0.1 -2.3C0.6 -2.2 1.2 -1.6 1.7 -0.9Z" fill="#e8d7ce"></path></g><g transform="translate(371 517)"><path d="M1 -0.5C1.3 -0.2 1.3 0.3 1.1 0.6C0.9 1 0.5 1.1 0 1.1C-0.4 1.1 -0.8 0.9 -0.9 0.6C-1 0.4 -0.8 0 -0.6 -0.3C-0.4 -0.6 -0.2 -0.9 0.1 -0.9C0.4 -1 0.8 -0.8 1 -0.5Z" fill="#e8d7ce"></path></g><g transform="translate(690 116)"><path d="M4.9 -2.9C6.2 -0.7 6.8 1.8 5.9 3.7C5 5.6 2.5 6.8 0.6 6.4C-1.3 6.1 -2.5 4.1 -3 2.5C-3.6 0.8 -3.3 -0.5 -2.7 -2.3C-2.1 -4.2 -1 -6.6 0.4 -6.8C1.8 -7 3.7 -5.1 4.9 -2.9Z" fill="#e8d7ce"></path></g><g transform="translate(732 432)"><path d="M2.2 -1C2.7 -0.6 2.6 0.5 2.2 1.3C1.7 2.2 0.9 3 0.1 2.9C-0.7 2.9 -1.4 2.1 -1.8 1.3C-2.1 0.5 -1.9 -0.3 -1.6 -0.7C-1.2 -1.1 -0.6 -1.1 0.1 -1.2C0.9 -1.3 1.8 -1.4 2.2 -1Z" fill="#e8d7ce"></path></g><g transform="translate(238 501)"><path d="M2.4 -1.2C3.4 0.4 4.8 2 4.5 3.5C4.2 5 2.1 6.4 0.2 6.3C-1.8 6.2 -3.5 4.6 -4.1 3C-4.7 1.4 -4.1 -0.3 -3.2 -1.8C-2.3 -3.3 -1.2 -4.7 -0.2 -4.5C0.7 -4.4 1.3 -2.8 2.4 -1.2Z" fill="#e8d7ce"></path></g><g transform="translate(327 457)"><path d="M1.6 -0.9C1.8 -0.5 1.7 0.2 1.3 0.6C1 0.9 0.5 1 0 1C-0.4 0.9 -0.9 0.9 -1.2 0.5C-1.6 0.1 -1.8 -0.5 -1.6 -0.9C-1.4 -1.3 -0.7 -1.5 0 -1.5C0.7 -1.5 1.3 -1.3 1.6 -0.9Z" fill="#e8d7ce"></path></g><g transform="translate(762 7)"><path d="M1.5 -0.9C2 -0.1 2.3 0.7 2 1.2C1.8 1.6 0.9 1.7 0.1 1.6C-0.7 1.6 -1.4 1.4 -1.9 0.8C-2.3 0.2 -2.6 -0.7 -2.3 -1.5C-2 -2.3 -1 -2.8 -0.2 -2.7C0.5 -2.6 1.1 -1.8 1.5 -0.9Z" fill="#e8d7ce"></path></g><g transform="translate(618 134)"><path d="M1.8 -1C2.1 -0.6 1.8 0.1 1.4 0.7C1 1.3 0.5 1.7 0.1 1.7C-0.3 1.6 -0.6 1.1 -1 0.5C-1.3 0 -1.7 -0.6 -1.5 -0.9C-1.4 -1.2 -0.7 -1.2 0.1 -1.2C0.8 -1.3 1.6 -1.3 1.8 -1Z" fill="#e8d7ce"></path></g><g transform="translate(364 431)"><path d="M4.1 -1.9C5.4 -0.3 6.4 2 5.7 3.6C4.9 5.2 2.5 6.2 -0.2 6.3C-2.9 6.4 -5.7 5.7 -6.6 3.9C-7.6 2.2 -6.6 -0.5 -5.2 -2.3C-3.8 -4.1 -1.9 -4.9 -0.2 -4.7C1.5 -4.6 2.9 -3.6 4.1 -1.9Z" fill="#e8d7ce"></path></g><g transform="translate(321 591)"><path d="M1.2 -0.8C1.4 -0.3 1.4 0.2 1.1 0.8C0.9 1.3 0.5 1.8 0 1.8C-0.4 1.8 -0.8 1.3 -1 0.7C-1.3 0.2 -1.3 -0.3 -1.1 -0.8C-0.9 -1.3 -0.5 -1.9 0 -1.9C0.5 -1.9 1 -1.4 1.2 -0.8Z" fill="#e8d7ce"></path></g><g transform="translate(444 253)"><path d="M3.8 -3.2C4.5 -1.1 4.2 0.6 3.4 1.8C2.6 3 1.3 3.7 -0.6 4.1C-2.6 4.4 -5.1 4.4 -6.5 2.9C-7.9 1.4 -8 -1.7 -6.8 -4.1C-5.5 -6.6 -2.7 -8.5 -0.6 -8.1C1.6 -7.8 3.2 -5.3 3.8 -3.2Z" fill="#e8d7ce"></path></g><g transform="translate(495 64)"><path d="M6.4 -2.8C7.7 -1.4 7.8 1.6 6.5 2.9C5.3 4.3 2.6 4.1 0.9 3.6C-0.9 3.1 -1.8 2.4 -2.8 1.2C-3.7 0 -4.7 -1.7 -4.2 -2.5C-3.8 -3.4 -1.9 -3.6 0.3 -3.8C2.6 -4 5.1 -4.2 6.4 -2.8Z" fill="#e8d7ce"></path></g><g transform="translate(270 590)"><path d="M6 -3.3C7.5 -1 8 1.9 6.8 3.1C5.7 4.4 2.8 3.8 0.2 3.7C-2.5 3.6 -4.9 3.9 -6.4 2.5C-7.9 1.1 -8.4 -2 -7.2 -4.1C-5.9 -6.2 -3 -7.3 -0.3 -7.1C2.3 -6.9 4.6 -5.5 6 -3.3Z" fill="#e8d7ce"></path></g><g transform="translate(274 76)"><path d="M1.2 -0.7C1.5 -0.3 1.5 0.3 1.2 0.6C1 1 0.5 1.2 0.1 1.1C-0.4 1.1 -0.7 0.9 -1 0.5C-1.3 0.1 -1.5 -0.4 -1.3 -0.8C-1.1 -1.1 -0.5 -1.3 0 -1.3C0.5 -1.2 1 -1 1.2 -0.7Z" fill="#e8d7ce"></path></g><g transform="translate(45 234)"><path d="M5 -3.5C5.5 -2.1 4.1 -0.2 3 1.3C1.9 2.8 0.9 4 0 4C-0.8 3.9 -1.7 2.7 -2.6 1.3C-3.5 -0.1 -4.6 -1.7 -4.2 -3.1C-3.7 -4.5 -1.9 -5.8 0.2 -5.9C2.3 -6 4.5 -5 5 -3.5Z" fill="#e8d7ce"></path></g><g transform="translate(326 394)"><path d="M1.4 -0.7C1.9 0 2.4 0.8 2.2 1.3C1.9 1.8 1 2 -0.2 2.1C-1.4 2.3 -2.9 2.4 -3.7 1.6C-4.4 0.7 -4.6 -1 -3.9 -1.8C-3.2 -2.7 -1.6 -2.7 -0.5 -2.3C0.5 -2 1 -1.4 1.4 -0.7Z" fill="#e8d7ce"></path></g><g transform="translate(477 466)"><path d="M2.8 -1.5C3.2 -0.9 2.9 0.3 2.3 0.9C1.8 1.5 0.9 1.5 -0.1 1.6C-1.1 1.6 -2.2 1.8 -2.4 1.4C-2.7 0.9 -2.1 0 -1.6 -0.7C-1.1 -1.4 -0.5 -1.8 0.3 -2C1.2 -2.2 2.4 -2.1 2.8 -1.5Z" fill="#e8d7ce"></path></g><g transform="translate(444 60)"><path d="M0.6 -0.4C0.8 -0.1 0.8 0.2 0.7 0.8C0.6 1.3 0.3 2.1 -0.1 2.2C-0.6 2.2 -1.2 1.6 -1.5 0.9C-1.9 0.2 -2.1 -0.5 -1.8 -0.9C-1.5 -1.3 -0.8 -1.4 -0.3 -1.2C0.2 -1.1 0.5 -0.7 0.6 -0.4Z" fill="#e8d7ce"></path></g><g transform="translate(656 505)"><path d="M3.7 -1.3C4.6 -0.4 5.2 1.4 4.5 2.9C3.9 4.3 1.9 5.3 0.7 4.9C-0.5 4.5 -1.1 2.7 -1.6 1.4C-2 0.1 -2.4 -0.7 -2.1 -1.2C-1.8 -1.7 -0.9 -1.9 0.2 -2C1.4 -2.1 2.7 -2.2 3.7 -1.3Z" fill="#e8d7ce"></path></g><g transform="translate(734 401)"><path d="M0.5 -0.3C0.6 -0.2 0.5 0 0.4 0.2C0.3 0.3 0.1 0.4 0 0.4C-0.2 0.4 -0.3 0.4 -0.4 0.2C-0.5 0.1 -0.4 -0.1 -0.4 -0.2C-0.3 -0.4 -0.1 -0.6 0 -0.6C0.2 -0.6 0.4 -0.5 0.5 -0.3Z" fill="#e8d7ce"></path></g><g transform="translate(470 433)"><path d="M5.3 -3.1C6.2 -1.5 5.8 0.8 4.7 2.7C3.6 4.6 1.8 6.2 -0.3 6.3C-2.3 6.5 -4.7 5.3 -5.7 3.4C-6.7 1.5 -6.3 -1 -5.2 -2.7C-4 -4.4 -2 -5.4 0.1 -5.4C2.2 -5.5 4.4 -4.7 5.3 -3.1Z" fill="#e8d7ce"></path></g><g transform="translate(72 506)"><path d="M4.5 -2.8C5 -1.7 4 0 3 1.6C2 3.1 1 4.5 0.2 4.4C-0.7 4.3 -1.3 2.7 -2.1 1.3C-2.8 -0.1 -3.6 -1.3 -3.3 -2.3C-3 -3.2 -1.5 -3.9 0.2 -4C2 -4.2 4 -3.8 4.5 -2.8Z" fill="#e8d7ce"></path></g><g transform="translate(259 434)"><path d="M3.7 -1.8C4.9 0 6.1 2.1 5.5 4.1C4.9 6.2 2.5 8.1 -0.1 8.1C-2.6 8.1 -5.2 6.3 -6.3 4C-7.4 1.7 -7 -1.1 -5.7 -2.9C-4.4 -4.7 -2.2 -5.6 -0.5 -5.3C1.2 -5 2.5 -3.6 3.7 -1.8Z" fill="#e8d7ce"></path></g><g transform="translate(316 164)"><path d="M0.6 -0.3C0.9 0.1 1.2 0.4 1.1 0.6C1 0.8 0.5 0.7 0.1 0.6C-0.2 0.6 -0.4 0.5 -0.6 0.3C-0.8 0.1 -0.9 -0.3 -0.8 -0.6C-0.7 -0.9 -0.3 -1.3 -0.1 -1.2C0.2 -1.2 0.4 -0.8 0.6 -0.3Z" fill="#e8d7ce"></path></g><g transform="translate(689 149)"><path d="M1.7 -0.7C2.1 -0.3 2.3 0.6 1.9 1.3C1.6 2 0.8 2.5 0.1 2.4C-0.6 2.4 -1.1 1.7 -1.4 1C-1.7 0.3 -1.7 -0.3 -1.4 -0.7C-1.2 -1 -0.6 -1 0 -1.1C0.6 -1.1 1.3 -1.1 1.7 -0.7Z" fill="#e8d7ce"></path></g><g transform="translate(835 38)"><path d="M4 -2.6C4.5 -1.3 3.9 0.3 3.1 1.5C2.2 2.6 1.1 3.4 0 3.4C-1.2 3.4 -2.4 2.8 -2.7 1.9C-3 1 -2.5 0 -1.9 -1.3C-1.3 -2.6 -0.6 -4.1 0.5 -4.4C1.7 -4.7 3.4 -3.8 4 -2.6Z" fill="#e8d7ce"></path></g><g transform="translate(895 383)"><path d="M2.3 -1.9C2.6 -0.8 2.2 0.2 1.7 1.2C1.2 2.3 0.6 3.4 -0.4 3.7C-1.4 3.9 -2.8 3.1 -3.4 2C-4.1 0.9 -4 -0.7 -3.3 -2C-2.6 -3.4 -1.3 -4.6 -0.2 -4.5C1 -4.4 1.9 -3 2.3 -1.9Z" fill="#e8d7ce"></path></g><g transform="translate(766 422)"><path d="M2.8 -1.6C3.9 0.2 5.1 1.9 4.6 3C4.2 4.2 2.1 4.7 0.3 4.5C-1.5 4.3 -2.9 3.4 -3.4 2.3C-3.8 1.2 -3.2 -0.2 -2.5 -1.7C-1.8 -3.3 -0.9 -5.1 0 -5.1C0.9 -5.1 1.8 -3.3 2.8 -1.6Z" fill="#e8d7ce"></path></g><g transform="translate(237 21)"><path d="M1.2 -0.8C1.4 -0.4 1.3 0.2 1 0.4C0.8 0.7 0.4 0.8 0.1 0.8C-0.2 0.7 -0.5 0.6 -0.7 0.3C-0.9 0 -1.2 -0.4 -1.1 -0.7C-0.9 -1.1 -0.5 -1.4 0 -1.4C0.5 -1.4 1 -1.1 1.2 -0.8Z" fill="#e8d7ce"></path></g><g transform="translate(129 246)"><path d="M4.9 -2.3C5.7 -1.4 5.2 0.7 4.2 1.9C3.2 3 1.6 3.3 -0.1 3.4C-1.9 3.5 -3.8 3.4 -4.9 2.2C-5.9 0.9 -6.2 -1.4 -5.2 -2.3C-4.3 -3.3 -2.2 -2.8 0 -2.8C2.1 -2.7 4.1 -3.1 4.9 -2.3Z" fill="#e8d7ce"></path></g><g transform="translate(728 594)"><path d="M0.5 -0.4C0.6 -0.1 0.7 0.2 0.6 0.5C0.5 0.8 0.3 1.1 0 1.1C-0.2 1.1 -0.4 0.8 -0.6 0.4C-0.8 0.1 -0.9 -0.3 -0.8 -0.6C-0.7 -0.9 -0.3 -1.2 -0.1 -1.1C0.2 -1.1 0.4 -0.7 0.5 -0.4Z" fill="#e8d7ce"></path></g><g transform="translate(62 185)"><path d="M4.1 -2.5C5.2 -0.5 5.9 1.6 5.1 2.8C4.4 3.9 2.2 4 0.3 3.8C-1.5 3.6 -3 3.1 -4 1.8C-5 0.6 -5.5 -1.5 -4.8 -3.3C-4 -5.1 -2 -6.8 -0.3 -6.6C1.5 -6.5 3 -4.6 4.1 -2.5Z" fill="#e8d7ce"></path></g><g transform="translate(447 483)"><path d="M2.4 -1.5C3.3 0.2 4.5 1.7 4.1 2.9C3.7 4.1 1.9 5 0.6 4.7C-0.7 4.4 -1.4 2.8 -2.3 1.2C-3.2 -0.3 -4.4 -1.7 -4.1 -3.1C-3.7 -4.5 -1.9 -5.7 -0.6 -5.4C0.7 -5.1 1.5 -3.2 2.4 -1.5Z" fill="#e8d7ce"></path></g><g transform="translate(542 235)"><path d="M3.4 -1.8C4 -0.9 3.9 0.6 3.2 1.5C2.5 2.3 1.2 2.5 -0.2 2.7C-1.7 2.8 -3.4 2.9 -3.7 2.3C-4 1.6 -2.9 0.3 -2 -0.7C-1.1 -1.7 -0.6 -2.4 0.4 -2.6C1.4 -2.9 2.8 -2.6 3.4 -1.8Z" fill="#e8d7ce"></path></g><g transform="translate(322 3)"><path d="M5.6 -3.3C6.7 -1.2 6.8 1.4 5.7 2.6C4.6 3.8 2.3 3.7 0 3.7C-2.3 3.7 -4.7 3.8 -6 2.5C-7.3 1.1 -7.7 -1.7 -6.5 -3.8C-5.3 -5.9 -2.7 -7.2 -0.2 -7C2.2 -6.9 4.4 -5.4 5.6 -3.3Z" fill="#e8d7ce"></path></g><g transform="translate(229 559)"><path d="M0.7 -0.5C0.9 -0.1 0.9 0.2 0.8 0.7C0.7 1.1 0.3 1.6 -0.1 1.7C-0.6 1.8 -1.1 1.4 -1.4 0.9C-1.6 0.4 -1.5 -0.2 -1.2 -0.7C-0.9 -1.1 -0.5 -1.4 -0.1 -1.3C0.3 -1.2 0.5 -0.8 0.7 -0.5Z" fill="#e8d7ce"></path></g><g transform="translate(29 371)"><path d="M7.7 -4.3C9.2 -1.9 9 1.6 7.4 3.4C5.9 5.3 2.9 5.5 1 4.9C-0.8 4.3 -1.7 2.9 -3.3 1C-4.8 -0.8 -7.1 -3.1 -6.7 -4.9C-6.3 -6.7 -3.1 -7.9 0 -7.9C3.1 -7.9 6.3 -6.7 7.7 -4.3Z" fill="#e8d7ce"></path></g><g transform="translate(4 362)"><path d="M5.1 -3.4C6 -1.4 5.6 0.8 4.5 2.3C3.5 3.8 1.7 4.6 0.2 4.5C-1.4 4.4 -2.8 3.4 -3.6 2.1C-4.4 0.7 -4.5 -1 -3.8 -2.9C-3.1 -4.7 -1.6 -6.7 0.3 -6.8C2.1 -7 4.2 -5.3 5.1 -3.4Z" fill="#e8d7ce"></path></g><g transform="translate(190 515)"><path d="M1.3 -1C1.7 -0.1 1.9 0.6 1.7 1.2C1.5 1.8 0.7 2.4 0.1 2.3C-0.6 2.3 -1.2 1.7 -1.6 0.9C-2.1 0.2 -2.3 -0.6 -2 -1.5C-1.7 -2.4 -0.8 -3.3 -0.2 -3.2C0.5 -3.1 0.9 -2 1.3 -1Z" fill="#e8d7ce"></path></g><g transform="translate(395 190)"><path d="M2.6 -1.5C3.5 0 4.4 1.6 4 3.3C3.6 5.1 1.8 7.1 -0.7 7.5C-3.2 7.9 -6.3 6.7 -6.8 4.9C-7.2 3.2 -4.9 0.9 -3.3 -1.1C-1.7 -3 -0.8 -4.6 0 -4.6C0.9 -4.6 1.7 -3 2.6 -1.5Z" fill="#e8d7ce"></path></g><g transform="translate(171 143)"><path d="M2.4 -1.5C2.7 -0.9 2.2 0.1 1.7 0.7C1.2 1.4 0.6 1.8 -0.4 2C-1.3 2.3 -2.7 2.3 -3.1 1.7C-3.6 1 -3.2 -0.3 -2.5 -1.1C-1.8 -2 -0.9 -2.4 0.1 -2.5C1.1 -2.5 2.1 -2.2 2.4 -1.5Z" fill="#e8d7ce"></path></g><g transform="translate(215 58)"><path d="M1.3 -0.9C1.8 0.1 2.3 0.8 2.1 1.3C1.9 1.7 0.9 1.8 0 1.8C-0.9 1.7 -1.7 1.6 -2.1 1.1C-2.6 0.5 -2.6 -0.5 -2.2 -1.4C-1.7 -2.3 -0.9 -3.1 -0.2 -3C0.4 -2.8 0.8 -1.8 1.3 -0.9Z" fill="#e8d7ce"></path></g><g transform="translate(78 476)"><path d="M2.2 -1C3 0.2 4 1.5 3.7 2C3.3 2.4 1.7 2 0.2 1.9C-1.3 1.8 -2.6 2.1 -3.4 1.3C-4.2 0.6 -4.4 -1 -3.8 -2.1C-3.1 -3.2 -1.6 -3.7 -0.4 -3.5C0.7 -3.2 1.4 -2.2 2.2 -1Z" fill="#e8d7ce"></path></g><g transform="translate(36 452)"><path d="M3.1 -1.3C3.8 -0.6 3.9 0.8 3.3 1.6C2.7 2.4 1.3 2.6 0.3 2.3C-0.6 2.1 -1.3 1.6 -1.9 0.8C-2.4 0 -3 -1 -2.7 -1.5C-2.4 -1.9 -1.2 -1.7 0 -1.7C1.2 -1.7 2.5 -1.9 3.1 -1.3Z" fill="#e8d7ce"></path></g><g transform="translate(106 394)"><path d="M4.4 -2.2C5.6 -0.4 6.5 1.9 5.7 3.3C4.9 4.6 2.4 5 0.7 4.6C-1.1 4.2 -2.1 3 -2.9 1.7C-3.6 0.4 -4 -1.1 -3.5 -2.5C-2.9 -3.9 -1.5 -5.2 0.1 -5.2C1.6 -5.3 3.2 -4 4.4 -2.2Z" fill="#e8d7ce"></path></g><g transform="translate(675 391)"><path d="M3.8 -2.1C4.3 -1.3 3.7 0.2 2.9 1.7C2 3.2 1 4.6 -0.1 4.6C-1.2 4.7 -2.3 3.4 -3 2C-3.7 0.6 -3.8 -0.9 -3.3 -1.7C-2.7 -2.6 -1.3 -2.9 0.2 -3C1.6 -3 3.3 -2.9 3.8 -2.1Z" fill="#e8d7ce"></path></g><g transform="translate(822 387)"><path d="M1.7 -1.1C2.1 -0.3 2.3 0.6 2 1.1C1.7 1.7 0.8 2 -0.1 2C-1.1 2.1 -2.2 2 -2.5 1.4C-2.9 0.8 -2.5 -0.2 -2 -1.1C-1.5 -2.1 -0.7 -2.9 0 -2.9C0.7 -2.9 1.3 -2 1.7 -1.1Z" fill="#e8d7ce"></path></g><g transform="translate(416 246)"><path d="M5.7 -2.7C7 -1.2 7.2 1.5 6.1 3C4.9 4.4 2.5 4.5 0.2 4.4C-2 4.3 -4.1 3.9 -5.5 2.3C-7 0.6 -8 -2.3 -6.9 -3.6C-5.9 -5 -3 -4.8 -0.4 -4.6C2.3 -4.4 4.5 -4.2 5.7 -2.7Z" fill="#e8d7ce"></path></g><g transform="translate(437 588)"><path d="M6.4 -4.3C7.2 -2.4 5.9 0.1 4.5 2.1C3.1 4.1 1.5 5.5 -0.8 5.9C-3.1 6.4 -6.2 5.9 -7.2 4.1C-8.3 2.4 -7.2 -0.6 -5.7 -3C-4.1 -5.4 -2.1 -7.2 0.4 -7.4C2.8 -7.6 5.7 -6.3 6.4 -4.3Z" fill="#e8d7ce"></path></g><g transform="translate(355 573)"><path d="M6.2 -2.7C7.4 -1.5 7.3 1.4 6.1 3.4C4.8 5.4 2.4 6.6 0.1 6.6C-2.3 6.6 -4.6 5.3 -5.4 3.5C-6.2 1.7 -5.4 -0.5 -4.3 -1.7C-3.2 -2.8 -1.6 -2.9 0.5 -3.2C2.5 -3.4 5 -3.9 6.2 -2.7Z" fill="#e8d7ce"></path></g><g transform="translate(646 353)"><path d="M1.1 -0.6C1.4 0 1.7 0.6 1.5 0.9C1.4 1.2 0.7 1.2 -0.1 1.2C-0.8 1.3 -1.6 1.3 -1.8 1C-2.1 0.6 -1.8 -0.1 -1.4 -0.7C-1 -1.2 -0.5 -1.6 -0.1 -1.5C0.4 -1.5 0.7 -1.1 1.1 -0.6Z" fill="#e8d7ce"></path></g><g transform="translate(278 361)"><path d="M2 -1.3C2.9 0.3 4 1.6 3.7 2.6C3.4 3.5 1.7 4.1 0.4 3.9C-0.9 3.7 -1.7 2.6 -2.2 1.5C-2.6 0.5 -2.7 -0.6 -2.3 -1.9C-1.8 -3.3 -0.9 -5.1 -0.2 -5C0.6 -4.9 1.2 -3 2 -1.3Z" fill="#e8d7ce"></path></g><g transform="translate(520 284)"><path d="M5.1 -3C6.3 -1 6.5 1.4 5.5 3.3C4.5 5.2 2.2 6.6 0.3 6.4C-1.6 6.2 -3.2 4.5 -3.5 3C-3.8 1.5 -2.8 0.2 -2 -1.5C-1.2 -3.3 -0.6 -5.6 0.7 -6C2 -6.4 4 -4.9 5.1 -3Z" fill="#e8d7ce"></path></g><g transform="translate(300 253)"><path d="M2.3 -1.3C2.6 -0.8 2.2 0.1 1.7 1.2C1.2 2.3 0.6 3.6 0.1 3.5C-0.5 3.5 -0.9 2.1 -1.3 1.1C-1.7 0.1 -2 -0.6 -1.8 -1.1C-1.5 -1.6 -0.8 -1.8 0.1 -1.9C1 -2 2 -1.9 2.3 -1.3Z" fill="#e8d7ce"></path></g><g transform="translate(344 97)"><path d="M1.1 -0.6C1.2 -0.3 1.1 0.1 0.9 0.6C0.6 1.1 0.3 1.7 -0.4 1.9C-1 2.1 -2.1 2 -2.3 1.5C-2.5 1 -1.8 0.2 -1.3 -0.3C-0.8 -0.8 -0.4 -1 0 -1C0.4 -1.1 0.9 -0.9 1.1 -0.6Z" fill="#e8d7ce"></path></g><g transform="translate(593 446)"><path d="M4.6 -3.4C5.2 -1.6 4.4 0.3 3.5 2.5C2.5 4.8 1.2 7.5 -0.8 7.9C-2.9 8.4 -5.8 6.7 -7.4 4.1C-9 1.5 -9.2 -1.9 -7.7 -4.3C-6.3 -6.6 -3.1 -7.8 -0.6 -7.4C2 -7.1 3.9 -5.2 4.6 -3.4Z" fill="#e8d7ce"></path></g><g transform="translate(885 420)"><path d="M5.1 -2.4C6.1 -1.3 5.9 1 4.9 3.2C3.9 5.4 1.9 7.4 0.4 7.2C-1.2 7 -2.3 4.5 -3.3 2.3C-4.3 0.2 -5.2 -1.6 -4.6 -2.5C-4 -3.5 -2 -3.5 0 -3.5C2.1 -3.5 4.2 -3.6 5.1 -2.4Z" fill="#e8d7ce"></path></g><g transform="translate(889 589)"><path d="M3.2 -1.2C4 -0.5 4.4 1.2 3.8 1.8C3.2 2.4 1.6 2 0.3 1.8C-1 1.6 -2 1.7 -2.7 1.1C-3.3 0.4 -3.6 -0.9 -3.1 -1.4C-2.5 -2 -1.3 -1.8 0 -1.7C1.2 -1.7 2.4 -1.9 3.2 -1.2Z" fill="#e8d7ce"></path></g><g transform="translate(319 351)"><path d="M3.1 -1.7C3.8 -0.5 4.1 1.1 3.6 2.4C3 3.7 1.5 4.8 -0.1 4.8C-1.6 4.8 -3.2 3.8 -3.8 2.5C-4.4 1.2 -3.9 -0.4 -3.1 -1.6C-2.3 -2.9 -1.2 -3.8 0 -3.8C1.2 -3.8 2.3 -2.9 3.1 -1.7Z" fill="#e8d7ce"></path></g><g transform="translate(766 457)"><path d="M1.3 -1.3C1.6 -0.2 1.8 0.4 1.5 1.2C1.3 2.1 0.6 3 0 3C-0.6 3 -1.1 2 -1.9 0.9C-2.6 -0.2 -3.5 -1.4 -3.2 -2.4C-3 -3.5 -1.5 -4.3 -0.5 -4.1C0.5 -3.8 1 -2.3 1.3 -1.3Z" fill="#e8d7ce"></path></g><g transform="translate(195 446)"><path d="M3.2 -2.3C3.7 -0.9 3.5 0.5 2.9 1.5C2.2 2.4 1.1 3 -0.2 3.1C-1.4 3.1 -2.9 2.8 -3.7 1.8C-4.5 0.7 -4.6 -1 -3.9 -2.5C-3.2 -4 -1.6 -5.3 -0.1 -5.2C1.3 -5.1 2.6 -3.7 3.2 -2.3Z" fill="#e8d7ce"></path></g><g transform="translate(612 281)"><path d="M2.1 -1.1C2.6 -0.4 2.7 0.7 2.3 1.1C1.9 1.5 1 1.4 0 1.4C-1 1.4 -2 1.6 -2.4 1.1C-2.8 0.7 -2.5 -0.3 -2 -1.1C-1.5 -1.9 -0.8 -2.5 0 -2.5C0.8 -2.5 1.6 -1.9 2.1 -1.1Z" fill="#e8d7ce"></path></g><g transform="translate(377 163)"><path d="M0.5 -0.4C0.6 0 0.8 0.3 0.7 0.6C0.6 0.9 0.3 1.3 0.1 1.3C-0.2 1.2 -0.4 0.8 -0.5 0.4C-0.7 0 -0.9 -0.3 -0.8 -0.6C-0.7 -0.9 -0.3 -1.3 -0.1 -1.2C0.2 -1.1 0.3 -0.7 0.5 -0.4Z" fill="#e8d7ce"></path></g><g transform="translate(638 161)"><path d="M3.9 -2.9C4.7 -1 4.5 0.7 3.7 2.8C2.9 4.9 1.4 7.3 -0.4 7.5C-2.1 7.7 -4.3 5.7 -5.4 3.4C-6.6 1.1 -6.8 -1.5 -5.7 -3.5C-4.7 -5.6 -2.3 -7.2 -0.4 -6.9C1.6 -6.7 3.2 -4.8 3.9 -2.9Z" fill="#e8d7ce"></path></g><g transform="translate(349 493)"><path d="M2.1 -1.3C2.7 -0.3 3 0.8 2.6 1.6C2.2 2.4 1.1 2.8 0.2 2.7C-0.7 2.6 -1.5 1.9 -2 1.1C-2.6 0.2 -2.9 -0.8 -2.5 -1.7C-2.1 -2.7 -1.1 -3.4 -0.1 -3.4C0.8 -3.3 1.6 -2.3 2.1 -1.3Z" fill="#e8d7ce"></path></g><g transform="translate(426 362)"><path d="M3.1 -2.2C3.9 -0.6 4.1 1 3.5 2.2C2.9 3.5 1.4 4.4 -0.4 4.7C-2.2 4.9 -4.4 4.3 -5 3.1C-5.5 1.9 -4.4 0 -3.3 -1.9C-2.2 -3.8 -1.1 -5.6 0.1 -5.6C1.2 -5.7 2.4 -3.9 3.1 -2.2Z" fill="#e8d7ce"></path></g><g transform="translate(593 6)"><path d="M5.2 -2.6C6 -1.6 5.3 0.5 4.2 3C3.1 5.5 1.6 8.3 -0.7 8.7C-3 9.1 -5.9 7.1 -7.1 4.6C-8.2 2.1 -7.5 -0.9 -6 -2.3C-4.5 -3.7 -2.3 -3.5 0 -3.5C2.2 -3.5 4.4 -3.6 5.2 -2.6Z" fill="#e8d7ce"></path></g><g transform="translate(452 26)"><path d="M4 -2.8C4.8 -1 4.7 0.8 3.8 2.8C3 4.7 1.5 6.9 0.1 6.8C-1.4 6.8 -2.7 4.6 -3.3 2.8C-3.8 0.9 -3.5 -0.5 -2.8 -2.2C-2.2 -4 -1.1 -6.1 0.3 -6.3C1.6 -6.5 3.3 -4.6 4 -2.8Z" fill="#e8d7ce"></path></g><g transform="translate(426 156)"><path d="M1.6 -1C2.1 -0.1 2.5 0.8 2.2 1.6C1.9 2.3 1 3 -0.1 3C-1.2 3.1 -2.4 2.6 -3.1 1.6C-3.7 0.6 -3.9 -0.8 -3.3 -1.8C-2.7 -2.8 -1.3 -3.2 -0.4 -3C0.6 -2.8 1.1 -1.9 1.6 -1Z" fill="#e8d7ce"></path></g><g transform="translate(40 401)"><path d="M1.6 -0.5C2.2 0.1 2.9 1.1 2.6 1.6C2.4 2 1.2 2 0 2C-1.1 1.9 -2.3 1.9 -2.8 1.3C-3.2 0.7 -3.1 -0.5 -2.5 -1.1C-2 -1.7 -1 -1.7 -0.3 -1.6C0.5 -1.4 1 -1.1 1.6 -0.5Z" fill="#e8d7ce"></path></g><g transform="translate(601 246)"><path d="M3 -1.6C3.8 -0.3 4.3 1.3 3.8 2.5C3.3 3.7 1.6 4.5 -0.3 4.7C-2.2 4.8 -4.4 4.3 -6 2.5C-7.6 0.7 -8.5 -2.4 -7.4 -3.8C-6.4 -5.3 -3.2 -5 -1 -4.4C1.1 -3.8 2.2 -2.8 3 -1.6Z" fill="#e8d7ce"></path></g><g transform="translate(182 234)"><path d="M2.8 -2.1C3.4 -0.5 3.6 0.8 3 1.6C2.5 2.3 1.2 2.5 -0.2 2.6C-1.6 2.6 -3.1 2.7 -3.9 1.8C-4.7 0.9 -4.7 -0.9 -3.9 -2.6C-3.1 -4.2 -1.6 -5.7 -0.2 -5.6C1.1 -5.5 2.1 -3.7 2.8 -2.1Z" fill="#e8d7ce"></path></g><g transform="translate(505 506)"><path d="M2.6 -0.8C3.7 0.4 5.1 2.1 4.7 3.6C4.3 5.1 2.2 6.4 0.1 6.3C-1.9 6.2 -3.8 4.8 -4.8 2.9C-5.7 1.1 -5.8 -1.1 -4.8 -2.3C-3.9 -3.5 -1.9 -3.6 -0.6 -3.2C0.7 -2.9 1.5 -2.1 2.6 -0.8Z" fill="#e8d7ce"></path></g><g transform="translate(257 322)"><path d="M5.2 -3.9C5.9 -1.8 5 0.3 3.9 2.1C2.8 3.9 1.4 5.3 0.1 5.3C-1.2 5.2 -2.4 3.6 -4 1.6C-5.5 -0.4 -7.4 -2.9 -6.8 -5C-6.2 -7.1 -3.1 -8.8 -0.4 -8.6C2.2 -8.3 4.5 -6.1 5.2 -3.9Z" fill="#e8d7ce"></path></g><g transform="translate(45 330)"><path d="M2.7 -1.8C3.4 -0.3 3.8 1.1 3.3 2.5C2.9 3.9 1.4 5.4 0.1 5.4C-1.3 5.3 -2.6 3.8 -3 2.4C-3.4 1.1 -2.8 -0.1 -2.1 -1.5C-1.5 -3 -0.7 -4.7 0.1 -4.7C1 -4.8 1.9 -3.2 2.7 -1.8Z" fill="#e8d7ce"></path></g><g transform="translate(882 506)"><path d="M6.5 -3.9C7.9 -1.5 7.9 1.6 6.6 3.6C5.3 5.7 2.7 6.7 0.3 6.5C-2 6.3 -4 4.9 -4.4 3.4C-4.8 1.8 -3.7 0.2 -2.7 -2.1C-1.6 -4.3 -0.8 -7.3 0.9 -7.8C2.6 -8.3 5.2 -6.4 6.5 -3.9Z" fill="#e8d7ce"></path></g><g transform="translate(180 412)"><path d="M0.7 -0.7C0.9 -0.1 0.9 0.2 0.8 0.5C0.6 0.8 0.3 1.1 -0.2 1.2C-0.8 1.4 -1.6 1.4 -1.7 1.1C-1.9 0.7 -1.4 0.1 -1 -0.5C-0.6 -1.2 -0.3 -1.9 0 -1.9C0.3 -1.8 0.6 -1.2 0.7 -0.7Z" fill="#e8d7ce"></path></g><g transform="translate(792 100)"><path d="M0.9 -0.5C1.1 -0.2 1.1 0.2 0.9 0.4C0.7 0.6 0.3 0.6 0 0.6C-0.3 0.5 -0.6 0.5 -0.8 0.3C-1 0.1 -1.2 -0.3 -1 -0.6C-0.9 -0.9 -0.4 -1.1 0 -1.1C0.4 -1 0.7 -0.8 0.9 -0.5Z" fill="#e8d7ce"></path></g><g transform="translate(132 276)"><path d="M7.2 -3.3C8.5 -2 7.9 1.1 6.4 3.5C4.9 5.8 2.5 7.4 -0.2 7.5C-2.8 7.6 -5.6 6.3 -7.1 3.9C-8.6 1.6 -8.7 -1.8 -7.3 -3.1C-5.9 -4.4 -2.9 -3.8 0 -3.8C3 -3.8 6 -4.5 7.2 -3.3Z" fill="#e8d7ce"></path></g><g transform="translate(373 308)"><path d="M2.7 -1.7C3 -1 2.4 0 1.8 1.1C1.2 2.1 0.6 3.3 0.1 3.2C-0.4 3.2 -0.8 2 -1.2 1C-1.6 0.1 -1.9 -0.6 -1.7 -1.2C-1.5 -1.8 -0.7 -2.3 0.2 -2.4C1.2 -2.6 2.4 -2.3 2.7 -1.7Z" fill="#e8d7ce"></path></g><g transform="translate(173 536)"><path d="M4.6 -2.3C6.2 0 7.7 2.7 6.9 4.5C6.2 6.3 3.1 7.3 0.8 6.9C-1.5 6.4 -3 4.5 -4.5 2.3C-5.9 0.1 -7.3 -2.5 -6.5 -4.3C-5.8 -6.2 -2.9 -7.4 -0.7 -7C1.5 -6.7 3.1 -4.7 4.6 -2.3Z" fill="#e8d7ce"></path></g><g transform="translate(224 90)"><path d="M2.3 -1C3 -0.2 3.4 1 3 1.9C2.6 2.7 1.3 3.2 -0.3 3.3C-1.9 3.5 -3.8 3.4 -4.6 2.4C-5.3 1.4 -4.9 -0.6 -3.9 -1.6C-2.9 -2.6 -1.5 -2.6 -0.3 -2.4C0.8 -2.3 1.7 -1.9 2.3 -1Z" fill="#e8d7ce"></path></g><g transform="translate(103 14)"><path d="M0.6 -0.3C0.8 0 1 0.4 0.9 0.6C0.8 0.7 0.4 0.7 0.1 0.7C-0.2 0.6 -0.3 0.4 -0.5 0.2C-0.7 -0.1 -1 -0.4 -0.9 -0.6C-0.8 -0.9 -0.4 -1.2 -0.1 -1.1C0.2 -1 0.4 -0.7 0.6 -0.3Z" fill="#e8d7ce"></path></g><g transform="translate(556 165)"><path d="M4.9 -1.9C6.4 -0.3 7.6 2.4 6.7 3.5C5.8 4.6 2.9 4.1 -0.1 4.1C-3.1 4.2 -6.1 4.8 -6.8 3.7C-7.5 2.7 -5.9 0.2 -4.3 -1.5C-2.8 -3.1 -1.4 -3.7 0.2 -3.8C1.7 -3.9 3.5 -3.5 4.9 -1.9Z" fill="#e8d7ce"></path></g><g transform="translate(33 117)"><path d="M2.1 -1.1C2.4 -0.8 2 0.1 1.5 0.6C1.1 1 0.5 1.1 0 1.1C-0.5 1.1 -1.1 1 -1.4 0.7C-1.7 0.3 -1.7 -0.3 -1.4 -0.7C-1.1 -1.1 -0.6 -1.2 0.2 -1.3C0.9 -1.4 1.9 -1.5 2.1 -1.1Z" fill="#e8d7ce"></path></g><g transform="translate(20 308)"><path d="M3.5 -2.1C4.2 -0.8 4.2 0.8 3.5 2.1C2.8 3.4 1.4 4.3 0.1 4.2C-1.1 4.1 -2.2 3 -2.8 1.8C-3.3 0.7 -3.3 -0.6 -2.7 -1.8C-2.1 -3 -1.1 -4.2 0.2 -4.3C1.4 -4.4 2.8 -3.4 3.5 -2.1Z" fill="#e8d7ce"></path></g><g transform="translate(39 279)"><path d="M3.8 -2C4.4 -1 4.2 0.6 3.4 1.6C2.6 2.6 1.3 3 -0.1 3.1C-1.5 3.1 -2.9 2.8 -3.3 2C-3.8 1.2 -3.2 -0.2 -2.5 -1.1C-1.7 -2.1 -0.9 -2.7 0.3 -2.9C1.6 -3.1 3.1 -2.9 3.8 -2Z" fill="#e8d7ce"></path></g><g transform="translate(5 3)"><path d="M5.5 -2.7C6.6 -1.4 6.4 1.1 5.2 3C4.1 5 2 6.5 0.4 6.3C-1.2 6 -2.5 4.1 -3 2.4C-3.6 0.8 -3.5 -0.6 -2.9 -1.7C-2.3 -2.8 -1.2 -3.5 0.6 -3.9C2.3 -4.2 4.5 -4 5.5 -2.7Z" fill="#e8d7ce"></path></g><g transform="translate(286 298)"><path d="M2.3 -1.3C2.7 -0.6 2.7 0.5 2.2 1.3C1.8 2.1 0.9 2.8 -0.4 3C-1.7 3.2 -3.4 3.1 -3.8 2.4C-4.1 1.6 -3 0.2 -2.2 -0.7C-1.3 -1.7 -0.6 -2.2 0.1 -2.3C0.9 -2.4 1.9 -2 2.3 -1.3Z" fill="#e8d7ce"></path></g><g transform="translate(690 285)"><path d="M3.5 -2.4C4.1 -1 3.9 0.6 3.2 1.5C2.4 2.5 1.2 2.9 -0.3 3.1C-1.9 3.3 -3.8 3.3 -4.4 2.4C-4.9 1.6 -4.1 -0.1 -3.1 -1.7C-2.2 -3.3 -1.1 -4.7 0.2 -4.8C1.5 -4.9 2.9 -3.7 3.5 -2.4Z" fill="#e8d7ce"></path></g><g transform="translate(833 158)"><path d="M3.3 -1.3C4.5 0.2 6 2.3 5.5 3.9C4.9 5.5 2.5 6.7 0 6.6C-2.4 6.6 -4.8 5.4 -5.2 3.8C-5.7 2.2 -4.3 0.3 -3.1 -1.2C-1.9 -2.6 -0.9 -3.6 0 -3.7C1 -3.7 2.1 -2.7 3.3 -1.3Z" fill="#e8d7ce"></path></g><g transform="translate(800 209)"><path d="M0.4 -0.3C0.4 -0.1 0.3 0 0.3 0.1C0.2 0.2 0.1 0.2 -0.1 0.3C-0.2 0.3 -0.5 0.4 -0.6 0.3C-0.7 0.2 -0.6 -0.1 -0.5 -0.3C-0.4 -0.4 -0.2 -0.5 0 -0.5C0.2 -0.5 0.3 -0.4 0.4 -0.3Z" fill="#e8d7ce"></path></g><g transform="translate(392 65)"><path d="M1.2 -0.8C1.3 -0.4 1.2 0.1 0.9 0.4C0.7 0.7 0.3 0.9 -0.3 1.1C-1 1.3 -2 1.5 -2.1 1.2C-2.3 1 -1.6 0.2 -1.1 -0.4C-0.6 -1 -0.3 -1.5 0.1 -1.6C0.5 -1.7 1 -1.3 1.2 -0.8Z" fill="#e8d7ce"></path></g><g transform="translate(252 46)"><path d="M6.6 -3C8.1 -1.1 8.7 2.1 7.5 4.1C6.2 6 3.1 6.6 1 6C-1.1 5.5 -2.3 3.7 -3.2 2C-4.1 0.2 -4.8 -1.5 -4.2 -2.9C-3.7 -4.2 -1.8 -5.3 0.3 -5.5C2.5 -5.6 5 -5 6.6 -3Z" fill="#e8d7ce"></path></g><g transform="translate(137 516)"><path d="M5.3 -2.9C6.3 -1.3 6.2 1.1 5.2 2.9C4.1 4.7 2 5.8 0.6 5.4C-0.8 5 -1.6 3.2 -2.4 1.6C-3.1 0.1 -3.9 -1.3 -3.5 -2.6C-3.1 -3.8 -1.5 -5 0.3 -5.2C2.1 -5.4 4.3 -4.5 5.3 -2.9Z" fill="#e8d7ce"></path></g><g transform="translate(775 34)"><path d="M1.8 -0.8C2.3 -0.3 2.4 0.6 2.1 0.9C1.7 1.3 0.9 1.1 0.1 1C-0.6 0.9 -1.1 1 -1.5 0.6C-1.9 0.2 -2.1 -0.5 -1.8 -0.9C-1.5 -1.3 -0.8 -1.3 0 -1.3C0.7 -1.3 1.4 -1.2 1.8 -0.8Z" fill="#e8d7ce"></path></g><g transform="translate(30 188)"><path d="M6.6 -4.2C7.6 -2.2 6.7 0.6 5.3 2.8C3.9 5 1.9 6.7 0 6.7C-1.9 6.7 -3.9 5 -5.3 2.8C-6.7 0.6 -7.6 -2.2 -6.7 -4.2C-5.7 -6.3 -2.8 -7.6 0 -7.6C2.8 -7.6 5.7 -6.3 6.6 -4.2Z" fill="#e8d7ce"></path></g><g transform="translate(563 54)"><path d="M3.1 -2.1C3.6 -0.8 3.6 0.6 2.9 1.5C2.3 2.3 1.2 2.6 0.1 2.6C-1 2.5 -2 2.1 -2.4 1.4C-2.9 0.7 -2.7 -0.4 -2.2 -1.7C-1.7 -2.9 -0.8 -4.4 0.2 -4.5C1.2 -4.6 2.5 -3.4 3.1 -2.1Z" fill="#e8d7ce"></path></g><g transform="translate(142 438)"><path d="M2.5 -1.5C3 -0.6 3 0.6 2.5 1.3C2 2 1 2.2 0.2 2.1C-0.7 2 -1.4 1.6 -2.1 0.8C-2.8 0 -3.5 -1.2 -3.2 -2.1C-2.9 -3 -1.4 -3.5 -0.2 -3.4C1 -3.3 2 -2.5 2.5 -1.5Z" fill="#e8d7ce"></path></g><g transform="translate(495 203)"><path d="M2.9 -2.2C3.2 -1.2 2.4 -0.1 1.8 1.1C1.1 2.3 0.5 3.6 0 3.6C-0.4 3.6 -0.9 2.2 -1.3 1.1C-1.8 0 -2.2 -0.8 -2 -1.8C-1.8 -2.8 -0.9 -4 0.2 -4.1C1.3 -4.3 2.7 -3.3 2.9 -2.2Z" fill="#e8d7ce"></path></g><g transform="translate(475 120)"><path d="M0.3 -0.2C0.4 0 0.5 0.2 0.4 0.3C0.4 0.4 0.2 0.6 0 0.5C-0.1 0.5 -0.3 0.4 -0.3 0.2C-0.4 0.1 -0.4 -0.1 -0.4 -0.3C-0.3 -0.4 -0.2 -0.6 0 -0.6C0.1 -0.6 0.2 -0.4 0.3 -0.2Z" fill="#e8d7ce"></path></g><g transform="translate(56 567)"><path d="M2.3 -1.1C2.9 -0.2 3.4 1 3 1.9C2.6 2.8 1.3 3.4 0.3 3.2C-0.6 3 -1.3 2.1 -2 0.9C-2.8 -0.2 -3.7 -1.4 -3.4 -2.1C-3.1 -2.8 -1.6 -2.9 -0.4 -2.7C0.8 -2.5 1.6 -2 2.3 -1.1Z" fill="#e8d7ce"></path></g><g transform="translate(401 134)"><path d="M3.7 -2.4C4.4 -0.9 4.3 0.8 3.6 2.2C2.8 3.6 1.4 4.6 -0.1 4.7C-1.7 4.8 -3.3 3.8 -3.9 2.6C-4.5 1.3 -4 -0.4 -3.1 -2C-2.3 -3.6 -1.2 -5.1 0.2 -5.2C1.5 -5.3 2.9 -3.9 3.7 -2.4Z" fill="#e8d7ce"></path></g><g transform="translate(536 398)"><path d="M4.2 -2.5C4.7 -1.5 3.9 0.2 3 1.9C2.1 3.6 1.1 5.4 -0.4 5.6C-1.8 5.9 -3.7 4.5 -4.1 3C-4.6 1.6 -3.7 0 -2.8 -1.2C-1.9 -2.4 -0.9 -3.2 0.4 -3.5C1.8 -3.7 3.6 -3.4 4.2 -2.5Z" fill="#e8d7ce"></path></g><g transform="translate(728 168)"><path d="M2.1 -1.2C2.5 -0.5 2.4 0.4 2 0.8C1.6 1.2 0.8 1 0.3 0.9C-0.3 0.7 -0.5 0.6 -0.9 0.3C-1.2 -0.1 -1.6 -0.6 -1.4 -1.1C-1.3 -1.6 -0.7 -2.2 0.1 -2.2C0.8 -2.3 1.7 -1.9 2.1 -1.2Z" fill="#e8d7ce"></path></g><g transform="translate(451 560)"><path d="M5.6 -2.1C7 -0.7 7.8 2.1 6.7 4.1C5.7 6 2.9 7.2 0.1 7.1C-2.6 7 -5.2 5.7 -6.4 3.7C-7.6 1.6 -7.4 -1.3 -6.1 -2.6C-4.8 -3.9 -2.4 -3.6 -0.2 -3.5C2.1 -3.5 4.1 -3.5 5.6 -2.1Z" fill="#e8d7ce"></path></g><g transform="translate(849 64)"><path d="M0.8 -0.6C1 -0.3 0.9 0.1 0.7 0.5C0.5 0.9 0.3 1.3 -0.1 1.3C-0.4 1.4 -0.8 1 -0.8 0.7C-0.9 0.4 -0.7 0 -0.5 -0.3C-0.3 -0.7 -0.2 -1.1 0.1 -1.1C0.4 -1.2 0.7 -0.9 0.8 -0.6Z" fill="#e8d7ce"></path></g><g transform="translate(158 595)"><path d="M2.5 -1.1C3 -0.6 2.9 0.5 2.4 1.1C1.9 1.6 0.9 1.6 0.1 1.6C-0.7 1.5 -1.4 1.3 -1.6 0.9C-1.8 0.5 -1.6 -0.1 -1.2 -0.5C-0.9 -0.9 -0.4 -1.1 0.3 -1.2C1 -1.4 2.1 -1.6 2.5 -1.1Z" fill="#e8d7ce"></path></g><g transform="translate(285 211)"><path d="M1.5 -0.9C1.9 -0.2 2 0.5 1.8 0.9C1.5 1.4 0.7 1.5 0.1 1.4C-0.5 1.4 -1.1 1.1 -1.3 0.7C-1.6 0.3 -1.6 -0.3 -1.4 -0.9C-1.1 -1.5 -0.5 -2.1 0 -2.1C0.6 -2.1 1.2 -1.6 1.5 -0.9Z" fill="#e8d7ce"></path></g><g transform="translate(113 528)"><path d="M4.4 -2.7C5 -1.5 4.3 0.3 3.3 1.3C2.4 2.2 1.2 2.4 0.3 2.2C-0.6 2 -1.1 1.5 -1.4 0.9C-1.6 0.3 -1.6 -0.3 -1.4 -1.3C-1.1 -2.3 -0.5 -3.6 0.7 -4C1.9 -4.4 3.8 -3.8 4.4 -2.7Z" fill="#e8d7ce"></path></g><g transform="translate(657 9)"><path d="M2.8 -2C3.8 0.3 5.1 2 4.7 2.8C4.3 3.6 2.1 3.6 0.6 3.2C-0.9 2.9 -1.9 2.3 -2.2 1.5C-2.6 0.7 -2.4 -0.3 -1.9 -2.2C-1.5 -4.1 -0.7 -6.9 0.1 -7C0.9 -7 1.7 -4.2 2.8 -2Z" fill="#e8d7ce"></path></g><g transform="translate(184 191)"><path d="M2.2 -1.2C2.9 0 3.7 1.3 3.3 2.2C2.9 3.1 1.5 3.7 -0.4 3.9C-2.2 4.2 -4.5 4 -4.9 3.1C-5.2 2.2 -3.7 0.5 -2.6 -1C-1.5 -2.4 -0.7 -3.6 0 -3.6C0.7 -3.6 1.5 -2.4 2.2 -1.2Z" fill="#e8d7ce"></path></g><g transform="translate(248 188)"><path d="M0.9 -0.5C1.2 -0.1 1.4 0.4 1.2 0.6C1.1 0.8 0.5 0.8 0.1 0.7C-0.4 0.7 -0.8 0.7 -1 0.4C-1.2 0.2 -1.3 -0.3 -1.1 -0.7C-0.9 -1.1 -0.5 -1.3 -0.1 -1.3C0.3 -1.3 0.7 -0.9 0.9 -0.5Z" fill="#e8d7ce"></path></g><g transform="translate(477 523)"><path d="M6 -3.5C6.9 -1.7 6.4 0.8 5.2 2.5C4 4.2 2 4.9 0.2 4.8C-1.5 4.7 -3.1 3.7 -3.6 2.5C-4 1.2 -3.4 -0.2 -2.7 -1.8C-1.9 -3.4 -0.9 -5.3 0.8 -5.7C2.5 -6.2 5 -5.2 6 -3.5Z" fill="#e8d7ce"></path></g><g transform="translate(11 394)"><path d="M3 -1.5C3.5 -0.9 3.1 0.3 2.5 1.4C1.9 2.4 0.9 3.2 -0.1 3.3C-1.2 3.4 -2.3 2.7 -2.9 1.7C-3.5 0.7 -3.5 -0.7 -2.9 -1.4C-2.3 -2 -1.2 -2 0.1 -2.1C1.3 -2.1 2.5 -2.1 3 -1.5Z" fill="#e8d7ce"></path></g><g transform="translate(727 330)"><path d="M5.1 -2.8C5.7 -2 4.5 0 3.4 1.5C2.3 3.1 1.1 4.3 -0.1 4.3C-1.4 4.4 -2.8 3.4 -3.8 1.9C-4.8 0.4 -5.5 -1.6 -4.8 -2.4C-4.1 -3.3 -2.1 -3 0.1 -3C2.3 -3.1 4.6 -3.5 5.1 -2.8Z" fill="#e8d7ce"></path></g><g transform="translate(250 157)"><path d="M3.4 -1.7C4.1 -0.8 4 0.8 3.4 1.6C2.7 2.5 1.3 2.7 0.4 2.4C-0.5 2.2 -1 1.5 -1.6 0.7C-2.2 -0.1 -2.9 -1.1 -2.6 -1.8C-2.4 -2.5 -1.2 -2.9 0.1 -3C1.4 -3 2.7 -2.7 3.4 -1.7Z" fill="#e8d7ce"></path></g><g transform="translate(834 242)"><path d="M0.6 -0.3C0.7 -0.2 0.7 0.1 0.6 0.3C0.4 0.5 0.2 0.6 0.1 0.5C-0.1 0.5 -0.2 0.3 -0.2 0.2C-0.3 0 -0.3 -0.1 -0.2 -0.2C-0.2 -0.3 -0.1 -0.5 0.1 -0.5C0.3 -0.6 0.5 -0.5 0.6 -0.3Z" fill="#e8d7ce"></path></g><g transform="translate(491 310)"><path d="M4.9 -3.1C5.3 -2.1 3.9 -0.3 2.8 1.7C1.7 3.7 0.8 6 -0.1 6.1C-1 6.1 -2.1 4 -2.9 2.1C-3.8 0.2 -4.4 -1.3 -3.9 -2.4C-3.4 -3.5 -1.7 -4 0.3 -4.2C2.2 -4.3 4.4 -4.1 4.9 -3.1Z" fill="#e8d7ce"></path></g><g transform="translate(827 209)"><path d="M2.1 -1.2C2.9 0.1 3.7 1.3 3.3 2.7C3 4.1 1.5 5.6 -0.2 5.7C-2 5.8 -4 4.7 -4.6 3.1C-5.2 1.6 -4.3 -0.2 -3.3 -1.6C-2.3 -2.9 -1.2 -3.8 -0.2 -3.7C0.7 -3.6 1.4 -2.4 2.1 -1.2Z" fill="#e8d7ce"></path></g><g transform="translate(199 108)"><path d="M3.5 -2C5 0.7 7.2 3.1 6.8 4.5C6.3 5.8 3.2 6.2 0.4 5.9C-2.4 5.7 -4.7 4.9 -6 3.1C-7.3 1.2 -7.6 -1.7 -6.4 -4.1C-5.2 -6.6 -2.6 -8.7 -0.8 -8.2C0.9 -7.7 1.9 -4.7 3.5 -2Z" fill="#e8d7ce"></path></g><g transform="translate(691 519)"><path d="M2.2 -1C2.8 -0.4 3 0.8 2.6 1.4C2.2 2.1 1.1 2.2 -0.1 2.3C-1.2 2.3 -2.5 2.2 -2.7 1.7C-2.9 1.2 -2.1 0.2 -1.5 -0.5C-0.9 -1.2 -0.4 -1.6 0.2 -1.7C0.8 -1.8 1.7 -1.7 2.2 -1Z" fill="#e8d7ce"></path></g><g transform="translate(587 474)"><path d="M3.5 -2.4C4.1 -1 3.8 0.5 3.1 2.4C2.3 4.2 1.2 6.4 -0.7 6.8C-2.5 7.2 -5.1 5.8 -5.4 4.1C-5.8 2.5 -4 0.6 -2.8 -1.2C-1.5 -3.1 -0.8 -4.8 0.3 -5C1.4 -5.2 2.9 -3.9 3.5 -2.4Z" fill="#e8d7ce"></path></g><g transform="translate(416 26)"><path d="M3.2 -2.3C3.5 -1.4 2.6 -0.2 1.9 0.8C1.1 1.8 0.6 2.6 0 2.6C-0.7 2.6 -1.3 1.9 -1.8 1C-2.3 0.2 -2.7 -0.8 -2.4 -1.7C-2 -2.7 -1 -3.6 0.2 -3.8C1.5 -3.9 2.9 -3.2 3.2 -2.3Z" fill="#e8d7ce"></path></g><g transform="translate(588 39)"><path d="M1.2 -0.8C1.5 -0.2 1.6 0.4 1.4 0.7C1.2 1 0.6 1.1 0 1.1C-0.6 1.1 -1.1 1 -1.3 0.7C-1.4 0.5 -1.2 0 -0.9 -0.6C-0.6 -1.2 -0.3 -1.9 0.1 -1.9C0.4 -2 0.9 -1.4 1.2 -0.8Z" fill="#e8d7ce"></path></g><g transform="translate(161 209)"><path d="M2.9 -2.2C3.1 -1.3 2.2 -0.3 1.5 0.5C0.8 1.2 0.4 1.8 -0.2 1.9C-0.8 2 -1.6 1.7 -2.3 0.9C-3.1 0.1 -3.7 -1.2 -3.3 -2.2C-2.9 -3.2 -1.4 -3.8 0 -3.8C1.4 -3.8 2.7 -3.1 2.9 -2.2Z" fill="#e8d7ce"></path></g><g transform="translate(766 282)"><path d="M2 -1C2.5 -0.3 2.8 0.8 2.5 1.2C2.1 1.5 1 1.3 0 1.3C-1 1.2 -1.9 1.4 -2.4 1C-2.9 0.5 -3 -0.6 -2.5 -1.3C-2 -2.1 -1 -2.4 -0.1 -2.3C0.7 -2.2 1.5 -1.8 2 -1Z" fill="#e8d7ce"></path></g><g transform="translate(241 595)"><path d="M2.5 -1.5C3 -0.7 2.8 0.4 2.3 1.3C1.8 2.2 0.9 2.9 -0.7 3.3C-2.2 3.7 -4.4 3.8 -5.5 2.5C-6.5 1.3 -6.4 -1.2 -5.3 -2.4C-4.2 -3.6 -2.1 -3.6 -0.5 -3.3C1 -3 2.1 -2.4 2.5 -1.5Z" fill="#e8d7ce"></path></g><g transform="translate(291 413)"><path d="M4.4 -2.3C5 -1.4 4.5 0.4 3.5 1.8C2.6 3.2 1.3 4.1 0.1 4C-1.1 3.9 -2.1 2.9 -2.9 1.6C-3.7 0.3 -4.3 -1.2 -3.7 -2C-3.2 -2.8 -1.6 -2.9 0.1 -3C1.9 -3.1 3.7 -3.1 4.4 -2.3Z" fill="#e8d7ce"></path></g><g transform="translate(647 238)"><path d="M1.1 -0.6C1.5 0 1.8 0.6 1.6 1.1C1.5 1.5 0.7 1.7 0.1 1.7C-0.5 1.6 -1 1.2 -1.3 0.7C-1.6 0.2 -1.8 -0.5 -1.5 -1C-1.3 -1.5 -0.6 -1.8 -0.1 -1.7C0.4 -1.6 0.7 -1.1 1.1 -0.6Z" fill="#e8d7ce"></path></g><g transform="translate(566 578)"><path d="M1.9 -1.2C2.1 -0.7 1.6 0 1.2 0.4C0.8 0.8 0.4 0.9 0 1C-0.5 1 -0.9 0.9 -1.3 0.5C-1.6 0.2 -1.7 -0.4 -1.5 -1C-1.2 -1.5 -0.6 -1.9 0.1 -1.9C0.8 -2 1.7 -1.7 1.9 -1.2Z" fill="#e8d7ce"></path></g><g transform="translate(779 227)"><path d="M1.9 -1C2.5 0 3.2 1.1 2.9 1.9C2.5 2.6 1.3 3 0.3 2.9C-0.8 2.7 -1.5 2 -2.3 1C-3.1 -0.1 -4 -1.4 -3.6 -2.3C-3.2 -3.2 -1.6 -3.6 -0.5 -3.4C0.6 -3.1 1.3 -2.1 1.9 -1Z" fill="#e8d7ce"></path></g><g transform="translate(569 350)"><path d="M3.8 -2.6C4.2 -1.5 3.3 -0.1 2.4 1.9C1.6 4 0.8 6.6 -0.9 7.1C-2.6 7.6 -5.2 6.1 -6.5 3.8C-7.8 1.5 -7.9 -1.5 -6.6 -3.1C-5.3 -4.6 -2.6 -4.7 -0.5 -4.4C1.7 -4.2 3.4 -3.6 3.8 -2.6Z" fill="#e8d7ce"></path></g><g transform="translate(782 491)"><path d="M0.3 -0.2C0.4 -0.1 0.3 0 0.2 0.2C0.2 0.3 0.1 0.5 0 0.5C-0.1 0.5 -0.2 0.4 -0.3 0.2C-0.4 0 -0.4 -0.1 -0.4 -0.3C-0.3 -0.4 -0.2 -0.5 0 -0.5C0.1 -0.4 0.3 -0.4 0.3 -0.2Z" fill="#e8d7ce"></path></g><g transform="translate(434 105)"><path d="M1.9 -1.3C2.3 -0.4 2.3 0.4 1.9 1C1.5 1.6 0.8 1.9 0.2 1.8C-0.4 1.7 -0.7 1.2 -1 0.6C-1.3 0.1 -1.5 -0.4 -1.3 -1.1C-1.1 -1.8 -0.6 -2.7 0.1 -2.8C0.8 -2.8 1.5 -2.1 1.9 -1.3Z" fill="#e8d7ce"></path></g><g transform="translate(379 592)"><path d="M2.8 -2.2C3.1 -1.2 2.4 -0.1 1.7 1.1C1.1 2.3 0.5 3.7 -0.3 3.8C-1.1 4 -2.2 2.9 -3 1.6C-3.8 0.3 -4.3 -1.2 -3.8 -2.4C-3.2 -3.6 -1.6 -4.3 -0.2 -4.2C1.3 -4.1 2.5 -3.2 2.8 -2.2Z" fill="#e8d7ce"></path></g><g transform="translate(479 87)"><path d="M7 -4.2C7.8 -2.7 6.3 0 4.7 2.4C3.2 4.8 1.6 6.8 -0.4 7C-2.4 7.2 -4.7 5.7 -6.1 3.4C-7.5 1.1 -7.9 -1.8 -6.7 -3.5C-5.5 -5.2 -2.8 -5.7 0.2 -5.8C3.1 -5.9 6.2 -5.6 7 -4.2Z" fill="#e8d7ce"></path></g><g transform="translate(33 588)"><path d="M0.7 -0.4C0.8 -0.2 0.8 0.2 0.7 0.5C0.6 0.8 0.3 1.1 -0.2 1.2C-0.7 1.3 -1.4 1.3 -1.8 0.8C-2.1 0.4 -2.2 -0.5 -1.9 -0.8C-1.5 -1.1 -0.8 -1 -0.2 -0.8C0.3 -0.7 0.6 -0.6 0.7 -0.4Z" fill="#e8d7ce"></path></g><g transform="translate(655 183)"><path d="M3.1 -1.7C4.1 -0.1 4.9 1.6 4.4 2.6C3.9 3.5 1.9 3.7 0 3.7C-2 3.7 -3.9 3.5 -4.8 2.4C-5.7 1.2 -5.5 -0.9 -4.5 -2.5C-3.5 -4.1 -1.8 -5.2 -0.4 -5C1.1 -4.8 2.1 -3.3 3.1 -1.7Z" fill="#e8d7ce"></path></g><g transform="translate(81 590)"><path d="M1.2 -0.5C1.5 -0.2 1.6 0.4 1.4 0.8C1.1 1.3 0.6 1.6 0 1.6C-0.5 1.5 -1 1.2 -1.2 0.8C-1.4 0.3 -1.4 -0.2 -1.1 -0.5C-0.9 -0.8 -0.4 -0.8 0 -0.8C0.5 -0.8 0.9 -0.8 1.2 -0.5Z" fill="#e8d7ce"></path></g><g transform="translate(216 527)"><path d="M0.4 -0.2C0.5 -0.1 0.5 0.1 0.4 0.3C0.3 0.5 0.2 0.7 0 0.7C-0.2 0.7 -0.4 0.5 -0.4 0.4C-0.5 0.2 -0.4 0 -0.3 -0.1C-0.2 -0.2 -0.1 -0.2 0 -0.3C0.2 -0.3 0.4 -0.3 0.4 -0.2Z" fill="#e8d7ce"></path></g><g transform="translate(864 365)"><path d="M6.1 -3.5C6.8 -2.4 5.3 -0.1 4 1.7C2.6 3.5 1.3 4.7 0.1 4.6C-1.1 4.6 -2.2 3.2 -3.6 1.5C-4.9 -0.3 -6.5 -2.5 -6 -3.5C-5.4 -4.5 -2.7 -4.3 0 -4.3C2.7 -4.3 5.5 -4.5 6.1 -3.5Z" fill="#e8d7ce"></path></g><g transform="translate(222 472)"><path d="M1.7 -1.3C2.1 -0.3 2.3 0.6 2 1.3C1.7 1.9 0.8 2.4 -0.3 2.6C-1.5 2.7 -3 2.7 -3.4 1.9C-3.9 1.2 -3.3 -0.2 -2.5 -1.4C-1.8 -2.7 -0.9 -3.9 -0.1 -3.8C0.6 -3.7 1.3 -2.4 1.7 -1.3Z" fill="#e8d7ce"></path></g><g transform="translate(144 62)"><path d="M3.4 -1.9C3.9 -1.2 3.2 0.1 2.5 1.1C1.7 2 0.9 2.6 0 2.6C-0.9 2.6 -1.7 2 -2.7 1C-3.7 -0.1 -4.7 -1.7 -4.3 -2.4C-3.9 -3.1 -1.9 -2.9 -0.2 -2.8C1.5 -2.6 3 -2.6 3.4 -1.9Z" fill="#e8d7ce"></path></g><g transform="translate(304 326)"><path d="M5.9 -3C7 -1.6 6.6 1 5.4 2.9C4.2 4.8 2.1 6 0 6C-2.1 6 -4.1 4.8 -5 3C-6 1.3 -5.8 -1 -4.8 -2.3C-3.7 -3.7 -1.9 -4.1 0.3 -4.3C2.4 -4.5 4.9 -4.3 5.9 -3Z" fill="#e8d7ce"></path></g><g transform="translate(457 330)"><path d="M1.6 -1.1C1.7 -0.7 1.2 -0.1 0.9 0.4C0.5 0.9 0.3 1.4 -0.1 1.5C-0.4 1.5 -0.7 1.1 -1.1 0.5C-1.4 0 -1.8 -0.6 -1.6 -1C-1.4 -1.5 -0.7 -1.7 0 -1.8C0.7 -1.8 1.5 -1.5 1.6 -1.1Z" fill="#e8d7ce"></path></g><g transform="translate(412 280)"><path d="M0.9 -0.6C0.9 -0.4 0.7 0 0.5 0.2C0.3 0.4 0.2 0.6 -0.2 0.7C-0.5 0.8 -1 0.8 -1.2 0.6C-1.3 0.4 -1.1 0 -0.8 -0.4C-0.5 -0.8 -0.3 -1.1 0.1 -1.1C0.4 -1.2 0.8 -0.9 0.9 -0.6Z" fill="#e8d7ce"></path></g><g transform="translate(672 460)"><path d="M1.6 -0.9C2 -0.1 2.4 0.7 2.1 1.3C1.8 1.9 0.9 2.2 -0.2 2.3C-1.3 2.4 -2.6 2.3 -2.8 1.8C-3.1 1.2 -2.2 0.2 -1.6 -0.6C-0.9 -1.5 -0.5 -2.2 0.1 -2.2C0.6 -2.2 1.1 -1.6 1.6 -0.9Z" fill="#e8d7ce"></path></g><g transform="translate(727 568)"><path d="M2.4 -2.1C2.7 -0.9 2.3 0.1 1.8 0.9C1.2 1.8 0.6 2.4 -0.1 2.5C-0.9 2.6 -1.8 2.1 -2.4 1.2C-3.1 0.3 -3.4 -0.9 -3 -2.2C-2.5 -3.5 -1.3 -4.8 -0.1 -4.7C1.1 -4.7 2.1 -3.2 2.4 -2.1Z" fill="#e8d7ce"></path></g><g transform="translate(272 14)"><path d="M1.7 -1.8C2.1 -0.4 2 0.4 1.7 1C1.3 1.6 0.7 2 -0.7 2.4C-2.1 2.8 -4.1 3.2 -5.2 2.1C-6.4 1.1 -6.6 -1.4 -5.5 -3.2C-4.5 -4.9 -2.3 -5.8 -0.8 -5.4C0.7 -4.9 1.4 -3.1 1.7 -1.8Z" fill="#e8d7ce"></path></g><g transform="translate(1 437)"><path d="M3.2 -1C4.3 0.1 5.6 2 5.1 3.1C4.6 4.1 2.3 4.3 0.1 4.2C-2.1 4.1 -4.1 3.9 -5.6 2.3C-7 0.7 -7.8 -2.1 -6.8 -3.1C-5.7 -4.2 -2.9 -3.4 -0.9 -2.8C1 -2.3 2.1 -2 3.2 -1Z" fill="#e8d7ce"></path></g><g transform="translate(347 258)"><path d="M2.4 -1.2C2.9 -0.7 2.7 0.4 2.2 1.3C1.7 2.1 0.9 2.8 -0.1 2.9C-1.1 2.9 -2.2 2.4 -2.6 1.7C-3 0.9 -2.7 -0.2 -2.1 -0.9C-1.5 -1.5 -0.8 -1.7 0.1 -1.7C1 -1.8 2 -1.8 2.4 -1.2Z" fill="#e8d7ce"></path></g><g transform="translate(786 158)"><path d="M3.3 -1.8C4.2 -0.4 4.8 1.4 4.2 2.5C3.6 3.6 1.8 4.1 -0.1 4.2C-2 4.3 -4 3.9 -4.4 2.9C-4.9 1.8 -3.7 0.2 -2.7 -1.3C-1.7 -2.9 -0.8 -4.3 0.2 -4.4C1.2 -4.5 2.4 -3.3 3.3 -1.8Z" fill="#e8d7ce"></path></g><g transform="translate(377 269)"><path d="M2.7 -2.1C3 -1.1 2.3 -0.1 1.7 1.2C1.1 2.6 0.5 4.2 -0.5 4.5C-1.6 4.8 -3.2 3.8 -3.9 2.5C-4.5 1.1 -4.2 -0.6 -3.4 -1.9C-2.6 -3.2 -1.3 -4.1 0 -4.1C1.2 -4 2.5 -3.1 2.7 -2.1Z" fill="#e8d7ce"></path></g><g transform="translate(179 320)"><path d="M3.9 -1.8C4.6 -1.1 4.4 0.7 3.6 1.7C2.8 2.8 1.4 3.1 -0.1 3.2C-1.6 3.2 -3.1 3 -4.2 1.8C-5.2 0.6 -5.7 -1.5 -5 -2.3C-4.2 -3.1 -2.1 -2.7 -0.2 -2.5C1.6 -2.4 3.2 -2.6 3.9 -1.8Z" fill="#e8d7ce"></path></g><g transform="translate(540 26)"><path d="M2.7 -2C3 -1.1 2.4 0 1.8 1.2C1.2 2.4 0.6 3.8 -0.4 4.1C-1.5 4.3 -2.9 3.4 -3.2 2.4C-3.5 1.3 -2.6 0.2 -1.9 -1C-1.1 -2.1 -0.6 -3.2 0.3 -3.4C1.2 -3.6 2.4 -2.8 2.7 -2Z" fill="#e8d7ce"></path></g><g transform="translate(637 315)"><path d="M0.7 -0.4C0.8 -0.2 0.8 0.2 0.7 0.3C0.5 0.5 0.3 0.5 0 0.5C-0.3 0.5 -0.5 0.5 -0.6 0.3C-0.7 0.2 -0.6 -0.1 -0.5 -0.3C-0.4 -0.5 -0.2 -0.7 0 -0.8C0.3 -0.8 0.5 -0.6 0.7 -0.4Z" fill="#e8d7ce"></path></g><g transform="translate(116 212)"><path d="M2.9 -0.9C3.9 0.1 4.9 1.8 4.5 2.6C4 3.4 2 3.3 -0.3 3.5C-2.5 3.6 -5 4 -6.2 2.8C-7.4 1.5 -7.3 -1.3 -6 -2.4C-4.8 -3.5 -2.4 -2.9 -0.7 -2.5C0.9 -2.1 1.9 -1.9 2.9 -0.9Z" fill="#e8d7ce"></path></g><g transform="translate(399 480)"><path d="M2.9 -1.2C3.7 -0.2 4.4 1.3 3.9 2.3C3.3 3.2 1.7 3.5 0.1 3.4C-1.5 3.4 -3 3 -3.8 1.9C-4.6 0.8 -4.8 -1 -4 -1.9C-3.3 -2.8 -1.6 -2.8 -0.3 -2.7C1 -2.5 2.1 -2.1 2.9 -1.2Z" fill="#e8d7ce"></path></g><g transform="translate(815 516)"><path d="M0.4 -0.2C0.5 0 0.7 0.3 0.6 0.4C0.6 0.6 0.3 0.7 0.1 0.7C-0.1 0.6 -0.2 0.4 -0.3 0.2C-0.3 0.1 -0.3 -0.1 -0.3 -0.2C-0.2 -0.3 -0.1 -0.4 0 -0.4C0.1 -0.5 0.3 -0.3 0.4 -0.2Z" fill="#e8d7ce"></path></g><g transform="translate(665 553)"><path d="M4.1 -2C5.5 0.1 6.9 2.5 6.3 4C5.6 5.5 2.8 6.2 0.1 6.2C-2.7 6.1 -5.3 5.4 -6.1 3.8C-6.8 2.2 -5.6 -0.2 -4.3 -2.2C-3 -4.2 -1.5 -5.9 -0.1 -5.9C1.3 -5.8 2.7 -4.1 4.1 -2Z" fill="#e8d7ce"></path></g><g transform="translate(610 215)"><path d="M1.6 -1.3C1.8 -0.5 1.7 0.2 1.4 0.9C1 1.6 0.5 2.2 -0.1 2.3C-0.8 2.4 -1.6 1.9 -1.7 1.3C-1.9 0.7 -1.5 0 -1.1 -0.9C-0.7 -1.8 -0.4 -3 0.2 -3.1C0.7 -3.2 1.3 -2.2 1.6 -1.3Z" fill="#e8d7ce"></path></g><g transform="translate(782 72)"><path d="M2.8 -1.6C3.2 -0.9 2.9 0.3 2.3 1C1.7 1.8 0.8 2 -0.3 2.2C-1.5 2.4 -3 2.5 -3.5 1.8C-4 1.1 -3.5 -0.3 -2.8 -1.2C-2 -2.1 -1 -2.5 0.1 -2.6C1.2 -2.6 2.4 -2.3 2.8 -1.6Z" fill="#e8d7ce"></path></g><g transform="translate(219 193)"><path d="M4.9 -3.4C5.6 -1.6 5 0.4 3.9 2.7C2.9 5 1.4 7.4 -0.4 7.7C-2.3 8 -4.7 6 -5.9 3.6C-7.2 1.2 -7.4 -1.6 -6.2 -3.6C-5 -5.6 -2.5 -6.9 -0.2 -6.8C2.1 -6.6 4.2 -5.1 4.9 -3.4Z" fill="#e8d7ce"></path></g><g transform="translate(639 459)"><path d="M5.5 -2.4C6.5 -1.4 6.3 1 5.2 2.3C4 3.6 2 3.7 0.5 3.4C-1 3.1 -1.9 2.4 -2.5 1.4C-3.1 0.5 -3.2 -0.7 -2.7 -1.4C-2.2 -2 -1.1 -2.1 0.6 -2.5C2.3 -2.8 4.5 -3.4 5.5 -2.4Z" fill="#e8d7ce"></path></g><g transform="translate(216 388)"><path d="M0.8 -0.6C0.9 -0.3 0.7 0 0.6 0.3C0.4 0.5 0.2 0.6 0 0.6C-0.2 0.6 -0.4 0.5 -0.5 0.3C-0.6 0.1 -0.7 -0.2 -0.6 -0.5C-0.5 -0.7 -0.2 -1.1 0 -1.1C0.3 -1.1 0.7 -0.8 0.8 -0.6Z" fill="#e8d7ce"></path></g><g transform="translate(759 389)"><path d="M0.8 -0.7C1 -0.1 1.1 0.3 1 0.9C0.8 1.5 0.4 2.3 -0.2 2.4C-0.8 2.5 -1.5 1.9 -1.9 1.2C-2.3 0.4 -2.3 -0.4 -1.9 -1.1C-1.5 -1.8 -0.8 -2.2 -0.2 -2.1C0.3 -2 0.6 -1.3 0.8 -0.7Z" fill="#e8d7ce"></path></g><g transform="translate(277 108)"><path d="M5.1 -2.6C5.7 -1.8 4.8 0.2 3.7 1.6C2.6 3.1 1.3 3.8 0 3.8C-1.3 3.8 -2.5 3 -3.2 1.8C-3.9 0.7 -4 -0.9 -3.4 -1.6C-2.7 -2.4 -1.4 -2.4 0.4 -2.7C2.2 -2.9 4.4 -3.4 5.1 -2.6Z" fill="#e8d7ce"></path></g><g transform="translate(451 411)"><path d="M2 -1.1C2.4 -0.6 2.2 0.3 1.8 0.9C1.4 1.5 0.7 1.7 0 1.7C-0.6 1.7 -1.3 1.4 -1.7 0.8C-2.1 0.3 -2.2 -0.5 -1.9 -1.1C-1.6 -1.6 -0.8 -1.8 0 -1.9C0.8 -1.9 1.7 -1.7 2 -1.1Z" fill="#e8d7ce"></path></g><g transform="translate(348 16)"><path d="M4.7 -3.5C5.3 -1.7 4.4 0.1 3.4 1.4C2.3 2.7 1.2 3.5 -0.1 3.5C-1.4 3.6 -2.9 3.1 -3.6 2C-4.3 0.8 -4.3 -0.8 -3.6 -2.7C-2.9 -4.5 -1.4 -6.6 0.3 -6.8C2.1 -6.9 4.1 -5.3 4.7 -3.5Z" fill="#e8d7ce"></path></g><g transform="translate(632 19)"><path d="M4.4 -2.5C4.9 -1.7 3.9 0 3 1C2 2.1 1 2.5 -0.5 2.8C-2 3.1 -4 3.3 -4.6 2.4C-5.3 1.5 -4.6 -0.3 -3.6 -1.4C-2.6 -2.5 -1.3 -2.8 0.3 -3C2 -3.2 4 -3.3 4.4 -2.5Z" fill="#e8d7ce"></path></g><g transform="translate(593 85)"><path d="M2 -1.1C2.3 -0.5 2.2 0.3 1.8 1C1.4 1.6 0.7 2 0 2C-0.7 2 -1.3 1.6 -1.6 1C-1.9 0.4 -1.8 -0.3 -1.5 -0.8C-1.2 -1.3 -0.6 -1.6 0.1 -1.7C0.8 -1.8 1.6 -1.6 2 -1.1Z" fill="#e8d7ce"></path></g><g transform="translate(37 7)"><path d="M4.4 -1.5C5.8 -0.2 7 2.3 6.2 4.2C5.5 6.1 2.7 7.4 0.3 7.3C-2.2 7.1 -4.3 5.4 -5.6 3.2C-6.9 1 -7.3 -1.7 -6.2 -2.9C-5.1 -4.1 -2.6 -3.7 -0.5 -3.4C1.5 -3.1 3.1 -2.9 4.4 -1.5Z" fill="#e8d7ce"></path></g><g transform="translate(525 456)"><path d="M3.2 -2.1C4 -0.5 4.4 1.1 3.7 2.6C3.1 4.2 1.6 5.6 0.1 5.6C-1.4 5.5 -2.7 3.9 -3.1 2.5C-3.5 1.1 -2.8 -0.1 -2.2 -1.7C-1.5 -3.2 -0.7 -5.2 0.2 -5.3C1.2 -5.4 2.5 -3.8 3.2 -2.1Z" fill="#e8d7ce"></path></g><g transform="translate(528 344)"><path d="M5.4 -2.6C6.4 -1.4 6.1 1 5 2.5C3.9 4.1 2 4.8 -0.2 4.9C-2.3 5 -4.5 4.5 -5.6 2.9C-6.7 1.3 -6.7 -1.2 -5.6 -2.6C-4.4 -3.9 -2.2 -3.9 0 -3.9C2.2 -3.9 4.4 -3.9 5.4 -2.6Z" fill="#e8d7ce"></path></g><g transform="translate(82 332)"><path d="M3.6 -1.6C5 0.3 6.6 2.5 6 3.6C5.4 4.7 2.7 4.6 0.6 4.3C-1.6 3.9 -3.1 3.3 -4.5 1.7C-6 0.1 -7.3 -2.4 -6.5 -3.9C-5.8 -5.5 -2.9 -5.9 -0.9 -5.4C1.1 -4.9 2.3 -3.4 3.6 -1.6Z" fill="#e8d7ce"></path></g><g transform="translate(798 417)"><path d="M1.2 -0.6C1.4 -0.4 1.2 0.1 1 0.6C0.7 1 0.4 1.4 0 1.4C-0.3 1.4 -0.5 0.9 -0.7 0.5C-0.8 0.2 -0.8 -0.2 -0.7 -0.4C-0.6 -0.6 -0.3 -0.6 0.1 -0.7C0.5 -0.8 1.1 -0.9 1.2 -0.6Z" fill="#e8d7ce"></path></g><g transform="translate(730 134)"><path d="M1.9 -1C2.6 0.1 3.4 1.2 3.1 1.9C2.8 2.5 1.4 2.5 0.3 2.3C-0.7 2.1 -1.4 1.7 -1.8 1.1C-2.1 0.4 -2.1 -0.4 -1.7 -1.3C-1.4 -2.1 -0.7 -3.1 0 -3C0.6 -3 1.2 -2.1 1.9 -1Z" fill="#e8d7ce"></path></g><g transform="translate(714 240)"><path d="M1.3 -0.8C1.5 -0.4 1.3 0.1 1 0.5C0.8 1 0.4 1.3 0.1 1.2C-0.2 1.1 -0.3 0.7 -0.5 0.4C-0.7 0 -0.8 -0.3 -0.7 -0.6C-0.7 -1 -0.3 -1.4 0.1 -1.5C0.5 -1.5 1.1 -1.2 1.3 -0.8Z" fill="#e8d7ce"></path></g><g transform="translate(264 272)"><path d="M0.5 -0.3C0.7 -0.1 0.7 0.1 0.6 0.3C0.4 0.5 0.2 0.5 0 0.5C-0.3 0.6 -0.5 0.5 -0.6 0.3C-0.7 0.2 -0.7 -0.1 -0.6 -0.3C-0.4 -0.4 -0.2 -0.4 0 -0.4C0.2 -0.4 0.4 -0.4 0.5 -0.3Z" fill="#e8d7ce"></path></g><g transform="translate(690 190)"><path d="M7.9 -4.7C9.3 -2.1 9 1.4 7.3 3.7C5.7 5.9 2.9 6.8 -0.2 7C-3.3 7.1 -6.6 6.4 -7.5 4.6C-8.3 2.8 -6.8 -0.1 -5.2 -2.8C-3.5 -5.6 -1.8 -8.1 0.7 -8.5C3.2 -8.9 6.5 -7.3 7.9 -4.7Z" fill="#e8d7ce"></path></g><g transform="translate(700 479)"><path d="M3.6 -2.2C4.1 -1.3 3.4 0.2 2.6 1.7C1.8 3.3 0.9 5 -0.4 5.2C-1.6 5.4 -3.3 4.1 -3.8 2.7C-4.3 1.3 -3.6 -0.2 -2.8 -1.3C-2 -2.4 -1 -3.1 0.3 -3.3C1.6 -3.5 3.2 -3.1 3.6 -2.2Z" fill="#e8d7ce"></path></g><g transform="translate(145 326)"><path d="M2.1 -1.3C2.5 -0.4 2.6 0.6 2.2 1.3C1.8 2.1 0.9 2.6 -0.1 2.7C-1.2 2.8 -2.3 2.4 -3.1 1.4C-3.9 0.4 -4.4 -1.2 -3.9 -2.2C-3.3 -3.1 -1.6 -3.4 -0.4 -3.2C0.8 -2.9 1.6 -2.2 2.1 -1.3Z" fill="#e8d7ce"></path></g><g transform="translate(58 260)"><path d="M3.9 -2.2C5 -0.4 5.7 1.7 5 3.2C4.3 4.7 2.1 5.7 -0.2 5.9C-2.6 6 -5.2 5.3 -5.6 3.9C-6 2.6 -4.2 0.6 -2.9 -1.4C-1.6 -3.3 -0.8 -5.3 0.3 -5.5C1.4 -5.7 2.9 -4.1 3.9 -2.2Z" fill="#e8d7ce"></path></g><g transform="translate(65 385)"><path d="M0.8 -0.4C1 -0.3 0.9 0.1 0.7 0.3C0.5 0.6 0.3 0.7 0 0.7C-0.2 0.7 -0.4 0.5 -0.5 0.3C-0.7 0 -0.8 -0.2 -0.7 -0.4C-0.6 -0.6 -0.3 -0.6 0 -0.6C0.4 -0.6 0.7 -0.6 0.8 -0.4Z" fill="#e8d7ce"></path></g><g transform="translate(797 447)"><path d="M1.9 -1.2C2.6 0 3.3 1.2 3 2.1C2.7 3 1.3 3.7 0.1 3.6C-1.2 3.6 -2.3 2.8 -2.9 1.8C-3.4 0.7 -3.3 -0.6 -2.7 -1.8C-2.1 -3 -1.1 -4.1 -0.2 -3.9C0.6 -3.8 1.3 -2.5 1.9 -1.2Z" fill="#e8d7ce"></path></g><g transform="translate(460 214)"><path d="M0.7 -0.5C0.8 -0.1 1 0.3 0.8 0.7C0.7 1.1 0.4 1.6 -0.1 1.7C-0.5 1.7 -1 1.3 -1.4 0.7C-1.8 0.1 -2.1 -0.7 -1.9 -1.1C-1.6 -1.6 -0.8 -1.8 -0.3 -1.6C0.2 -1.5 0.5 -0.9 0.7 -0.5Z" fill="#e8d7ce"></path></g><g transform="translate(121 341)"><path d="M2.9 -1.5C3.4 -0.9 3 0.3 2.4 1.5C1.8 2.6 0.9 3.6 -0.1 3.7C-1.1 3.8 -2.3 2.9 -2.6 1.9C-2.9 1 -2.4 -0.1 -1.8 -0.7C-1.2 -1.3 -0.6 -1.6 0.3 -1.7C1.2 -1.9 2.5 -2 2.9 -1.5Z" fill="#e8d7ce"></path></g><g transform="translate(380 349)"><path d="M3.8 -1.9C4.6 -0.8 4.8 1 4 2.1C3.3 3.2 1.6 3.6 -0.3 3.7C-2.1 3.8 -4.3 3.8 -5.7 2.3C-7.1 0.8 -7.8 -2.1 -6.8 -3.3C-5.7 -4.5 -2.8 -4.1 -0.7 -3.7C1.5 -3.4 3 -3 3.8 -1.9Z" fill="#e8d7ce"></path></g><g transform="translate(884 188)"><path d="M2.8 -1.6C3.5 -0.3 4.1 1.2 3.6 3C3.1 4.8 1.5 7 -0.4 7.2C-2.3 7.4 -4.5 5.7 -5.5 3.6C-6.5 1.5 -6.1 -0.9 -5 -2.5C-3.8 -4.1 -1.9 -4.8 -0.5 -4.5C1 -4.3 2 -3 2.8 -1.6Z" fill="#e8d7ce"></path></g><g transform="translate(583 220)"><path d="M5.2 -3.5C5.6 -2.3 4.1 -0.4 2.9 1.1C1.6 2.6 0.8 3.7 -0.3 3.9C-1.5 4 -2.9 3.3 -3.8 1.9C-4.8 0.6 -5.1 -1.3 -4.4 -2.7C-3.7 -4 -1.8 -4.9 0.3 -5C2.4 -5.2 4.8 -4.7 5.2 -3.5Z" fill="#e8d7ce"></path></g><g transform="translate(890 324)"><path d="M3 -2.2C3.4 -1 3 0.2 2.3 1.6C1.7 3 0.8 4.5 -0.3 4.7C-1.5 4.9 -2.9 3.7 -3.5 2.4C-4.1 1.1 -3.7 -0.4 -3 -1.8C-2.2 -3.2 -1.1 -4.5 0.1 -4.5C1.3 -4.6 2.5 -3.4 3 -2.2Z" fill="#e8d7ce"></path></g><g transform="translate(497 403)"><path d="M3.3 -2.6C4.2 -0.3 4.9 1.5 4.3 3C3.8 4.5 1.9 5.8 -0.2 5.9C-2.2 6 -4.5 4.9 -5.4 3.2C-6.4 1.5 -6 -0.9 -4.9 -3.3C-3.8 -5.8 -1.9 -8.4 -0.4 -8.2C1.2 -7.9 2.3 -5 3.3 -2.6Z" fill="#e8d7ce"></path></g><g transform="translate(121 176)"><path d="M4.2 -2.1C5 -1.1 4.8 0.8 3.9 2.4C3.1 4 1.5 5.3 -0.5 5.6C-2.5 5.9 -4.9 5.1 -5.4 3.7C-5.8 2.3 -4.3 0.4 -3 -0.9C-1.8 -2.1 -0.9 -2.7 0.4 -2.9C1.7 -3.2 3.4 -3.1 4.2 -2.1Z" fill="#e8d7ce"></path></g><g transform="translate(2 269)"><path d="M1.5 -0.8C1.9 -0.1 2.2 0.7 2 1.3C1.7 2 0.9 2.5 0.3 2.4C-0.3 2.2 -0.7 1.4 -1 0.7C-1.4 0 -1.8 -0.6 -1.6 -1.2C-1.4 -1.7 -0.7 -2.1 -0.1 -2.1C0.5 -2 1.1 -1.5 1.5 -0.8Z" fill="#e8d7ce"></path></g><g transform="translate(888 37)"><path d="M1.5 -1C1.6 -0.6 1.2 -0.1 0.9 0.3C0.5 0.8 0.3 1.1 -0.1 1.1C-0.4 1.2 -0.8 0.9 -1.2 0.5C-1.6 0 -2 -0.7 -1.8 -1.1C-1.6 -1.5 -0.8 -1.7 -0.1 -1.6C0.7 -1.6 1.4 -1.4 1.5 -1Z" fill="#e8d7ce"></path></g><g transform="translate(90 195)"><path d="M5.1 -3.8C6 -1.3 5.8 1 4.8 2.6C3.8 4.1 1.9 5 -0.4 5.3C-2.7 5.5 -5.4 5.1 -6.9 3.2C-8.4 1.3 -8.8 -2 -7.4 -4.7C-6.1 -7.4 -3 -9.5 -0.5 -9.2C2.1 -8.9 4.2 -6.3 5.1 -3.8Z" fill="#e8d7ce"></path></g><g transform="translate(688 7)"><path d="M1.6 -1C1.9 -0.5 1.7 0.2 1.4 0.6C1 1 0.5 1.1 -0.2 1.2C-1 1.3 -1.9 1.5 -2.3 1.1C-2.7 0.7 -2.5 -0.3 -2 -0.9C-1.5 -1.6 -0.8 -1.8 0 -1.8C0.7 -1.8 1.4 -1.5 1.6 -1Z" fill="#e8d7ce"></path></g><g transform="translate(313 130)"><path d="M3.4 -2.4C4 -0.9 3.8 0.6 3.1 2.6C2.4 4.6 1.2 7.1 -0.5 7.4C-2.3 7.7 -4.5 5.8 -6 3.3C-7.5 0.9 -8.3 -2.2 -7.1 -3.9C-6 -5.7 -3 -6.2 -0.8 -5.8C1.4 -5.3 2.7 -3.8 3.4 -2.4Z" fill="#e8d7ce"></path></g><g transform="translate(339 229)"><path d="M1.8 -1.3C2.1 -0.5 1.9 0.2 1.5 0.7C1.1 1.1 0.6 1.2 0.1 1.1C-0.5 1.1 -0.9 1 -1.5 0.4C-2 -0.1 -2.7 -1.1 -2.5 -1.8C-2.3 -2.5 -1.1 -3.1 -0.2 -3C0.8 -2.8 1.5 -2.1 1.8 -1.3Z" fill="#e8d7ce"></path></g><g transform="translate(898 281)"><path d="M3.3 -2C3.9 -0.8 3.9 0.7 3.3 1.6C2.6 2.4 1.3 2.6 -0.4 2.9C-2.1 3.1 -4.2 3.4 -4.9 2.6C-5.5 1.7 -4.7 -0.2 -3.6 -1.7C-2.5 -3.2 -1.3 -4.2 0 -4.2C1.3 -4.2 2.6 -3.2 3.3 -2Z" fill="#e8d7ce"></path></g><g transform="translate(658 589)"><path d="M1.2 -1C1.6 0 2 0.7 1.8 1.3C1.6 2 0.8 2.7 -0.1 2.7C-1.1 2.8 -2.2 2.3 -2.4 1.6C-2.7 0.9 -2.1 0 -1.6 -1.1C-1.1 -2.2 -0.5 -3.4 -0.1 -3.4C0.4 -3.4 0.8 -2.1 1.2 -1Z" fill="#e8d7ce"></path></g><g transform="translate(482 358)"><path d="M0.9 -0.7C1.1 -0.2 1.1 0.2 0.9 0.7C0.7 1.1 0.4 1.6 -0.2 1.8C-0.8 1.9 -1.7 1.7 -2.2 1C-2.8 0.3 -3.1 -0.8 -2.7 -1.4C-2.3 -2 -1.1 -2.1 -0.4 -1.9C0.4 -1.7 0.7 -1.2 0.9 -0.7Z" fill="#e8d7ce"></path></g><g transform="translate(869 544)"><path d="M4.6 -2.1C5.6 -1 5.7 1.2 4.8 3.2C3.9 5.1 2 6.9 -0.3 7.1C-2.6 7.3 -5.1 5.9 -6.5 3.6C-7.9 1.4 -8 -1.6 -6.7 -3C-5.4 -4.4 -2.7 -4 -0.4 -3.8C1.8 -3.5 3.6 -3.3 4.6 -2.1Z" fill="#e8d7ce"></path></g><g transform="translate(592 138)"><path d="M0.3 -0.1C0.4 0.1 0.6 0.2 0.5 0.3C0.5 0.4 0.3 0.4 0 0.4C-0.2 0.4 -0.3 0.3 -0.4 0.2C-0.5 0.1 -0.6 -0.1 -0.5 -0.2C-0.4 -0.3 -0.2 -0.4 -0.1 -0.3C0.1 -0.3 0.2 -0.2 0.3 -0.1Z" fill="#e8d7ce"></path></g><g transform="translate(568 190)"><path d="M2.6 -1.4C2.9 -0.9 2.5 0.2 1.9 1.2C1.4 2.3 0.7 3.5 0 3.5C-0.7 3.5 -1.5 2.4 -2 1.3C-2.5 0.2 -2.8 -0.8 -2.5 -1.3C-2.1 -1.8 -1.1 -1.7 0 -1.8C1.1 -1.8 2.2 -1.8 2.6 -1.4Z" fill="#e8d7ce"></path></g><g transform="translate(882 72)"><path d="M0.4 -0.2C0.5 0 0.6 0.2 0.6 0.3C0.5 0.4 0.2 0.4 0.1 0.4C-0.1 0.3 -0.3 0.3 -0.3 0.2C-0.4 0.1 -0.3 0 -0.3 -0.2C-0.2 -0.4 -0.1 -0.7 0 -0.7C0.1 -0.7 0.3 -0.5 0.4 -0.2Z" fill="#e8d7ce"></path></g></g></svg>