<svg id="visual" viewBox="0 0 900 675" width="900" height="675" xmlns="http://www.w3.org/2000/svg" xmlns:xlink="http://www.w3.org/1999/xlink" version="1.1"><rect x="0" y="0" width="900" height="675" fill="#b2ccda"></rect><defs><linearGradient id="grad1_0" x1="25%" y1="0%" x2="100%" y2="100%"><stop offset="23.333333333333336%" stop-color="#f7770f" stop-opacity="1"></stop><stop offset="76.66666666666666%" stop-color="#f7770f" stop-opacity="1"></stop></linearGradient></defs><defs><linearGradient id="grad1_1" x1="25%" y1="0%" x2="100%" y2="100%"><stop offset="23.333333333333336%" stop-color="#f7770f" stop-opacity="1"></stop><stop offset="76.66666666666666%" stop-color="#ff6b61" stop-opacity="1"></stop></linearGradient></defs><defs><linearGradient id="grad1_2" x1="25%" y1="0%" x2="100%" y2="100%"><stop offset="23.333333333333336%" stop-color="#ff749e" stop-opacity="1"></stop><stop offset="76.66666666666666%" stop-color="#ff6b61" stop-opacity="1"></stop></linearGradient></defs><defs><linearGradient id="grad1_3" x1="25%" y1="0%" x2="100%" y2="100%"><stop offset="23.333333333333336%" stop-color="#ff749e" stop-opacity="1"></stop><stop offset="76.66666666666666%" stop-color="#f68bce" stop-opacity="1"></stop></linearGradient></defs><defs><linearGradient id="grad1_4" x1="25%" y1="0%" x2="100%" y2="100%"><stop offset="23.333333333333336%" stop-color="#d2a3ea" stop-opacity="1"></stop><stop offset="76.66666666666666%" stop-color="#f68bce" stop-opacity="1"></stop></linearGradient></defs><defs><linearGradient id="grad1_5" x1="25%" y1="0%" x2="100%" y2="100%"><stop offset="23.333333333333336%" stop-color="#d2a3ea" stop-opacity="1"></stop><stop offset="76.66666666666666%" stop-color="#b2b7f2" stop-opacity="1"></stop></linearGradient></defs><defs><linearGradient id="grad1_6" x1="25%" y1="0%" x2="100%" y2="100%"><stop offset="23.333333333333336%" stop-color="#a6c4e9" stop-opacity="1"></stop><stop offset="76.66666666666666%" stop-color="#b2b7f2" stop-opacity="1"></stop></linearGradient></defs><defs><linearGradient id="grad1_7" x1="25%" y1="0%" x2="100%" y2="100%"><stop offset="23.333333333333336%" stop-color="#a6c4e9" stop-opacity="1"></stop><stop offset="76.66666666666666%" stop-color="#b2ccda" stop-opacity="1"></stop></linearGradient></defs><defs><linearGradient id="grad2_0" x1="0%" y1="0%" x2="75%" y2="100%"><stop offset="23.333333333333336%" stop-color="#f7770f" stop-opacity="1"></stop><stop offset="76.66666666666666%" stop-color="#f7770f" stop-opacity="1"></stop></linearGradient></defs><defs><linearGradient id="grad2_1" x1="0%" y1="0%" x2="75%" y2="100%"><stop offset="23.333333333333336%" stop-color="#ff6b61" stop-opacity="1"></stop><stop offset="76.66666666666666%" stop-color="#f7770f" stop-opacity="1"></stop></linearGradient></defs><defs><linearGradient id="grad2_2" x1="0%" y1="0%" x2="75%" y2="100%"><stop offset="23.333333333333336%" stop-color="#ff6b61" stop-opacity="1"></stop><stop offset="76.66666666666666%" stop-color="#ff749e" stop-opacity="1"></stop></linearGradient></defs><defs><linearGradient id="grad2_3" x1="0%" y1="0%" x2="75%" y2="100%"><stop offset="23.333333333333336%" stop-color="#f68bce" stop-opacity="1"></stop><stop offset="76.66666666666666%" stop-color="#ff749e" stop-opacity="1"></stop></linearGradient></defs><defs><linearGradient id="grad2_4" x1="0%" y1="0%" x2="75%" y2="100%"><stop offset="23.333333333333336%" stop-color="#f68bce" stop-opacity="1"></stop><stop offset="76.66666666666666%" stop-color="#d2a3ea" stop-opacity="1"></stop></linearGradient></defs><defs><linearGradient id="grad2_5" x1="0%" y1="0%" x2="75%" y2="100%"><stop offset="23.333333333333336%" stop-color="#b2b7f2" stop-opacity="1"></stop><stop offset="76.66666666666666%" stop-color="#d2a3ea" stop-opacity="1"></stop></linearGradient></defs><defs><linearGradient id="grad2_6" x1="0%" y1="0%" x2="75%" y2="100%"><stop offset="23.333333333333336%" stop-color="#b2b7f2" stop-opacity="1"></stop><stop offset="76.66666666666666%" stop-color="#a6c4e9" stop-opacity="1"></stop></linearGradient></defs><defs><linearGradient id="grad2_7" x1="0%" y1="0%" x2="75%" y2="100%"><stop offset="23.333333333333336%" stop-color="#b2ccda" stop-opacity="1"></stop><stop offset="76.66666666666666%" stop-color="#a6c4e9" stop-opacity="1"></stop></linearGradient></defs><g transform="translate(900, 0)"><path d="M0 562.5C-41.6 568.5 -83.2 574.6 -106.3 534.5C-129.5 494.5 -134.1 408.3 -156.1 376.9C-178.1 345.6 -217.5 369 -240 359.2C-262.6 349.4 -268.3 306.3 -282.1 282.1C-295.9 257.9 -317.8 252.6 -373.3 249.5C-428.9 246.3 -518.1 245.4 -519.7 215.3C-521.2 185.1 -435.1 125.8 -427.6 85.1C-420.1 44.3 -491.3 22.2 -562.5 0L0 0Z" fill="#aac9e2"></path><path d="M0 492.2C-36.4 497.5 -72.8 502.8 -93 467.7C-113.3 432.7 -117.4 357.3 -136.6 329.8C-155.9 302.4 -190.3 322.9 -210 314.3C-229.7 305.7 -234.8 268 -246.9 246.9C-259 225.7 -278.1 221 -326.7 218.3C-375.3 215.5 -453.4 214.7 -454.7 188.4C-456.1 162 -380.7 110.1 -374.2 74.4C-367.6 38.8 -429.9 19.4 -492.2 0L0 0Z" fill="#a9beef"></path><path d="M0 421.9C-31.2 426.4 -62.4 430.9 -79.7 400.9C-97.1 370.9 -100.6 306.2 -117.1 282.7C-133.6 259.2 -163.1 276.8 -180 269.4C-196.9 262 -201.2 229.8 -211.6 211.6C-222 193.5 -238.3 189.4 -280 187.1C-321.7 184.7 -388.6 184 -389.8 161.4C-390.9 138.8 -326.3 94.4 -320.7 63.8C-315.1 33.2 -368.5 16.6 -421.9 0L0 0Z" fill="#c1aef0"></path><path d="M0 351.6C-26 355.3 -52 359.1 -66.5 334.1C-80.9 309 -83.8 255.2 -97.6 235.6C-111.3 216 -135.9 230.6 -150 224.5C-164.1 218.4 -167.7 191.5 -176.3 176.3C-185 161.2 -198.6 157.9 -233.3 155.9C-268 153.9 -323.8 153.4 -324.8 134.5C-325.8 115.7 -271.9 78.6 -267.3 53.2C-262.6 27.7 -307.1 13.8 -351.6 0L0 0Z" fill="#e597df"></path><path d="M0 281.3C-20.8 284.3 -41.6 287.3 -53.2 267.3C-64.7 247.2 -67.1 204.2 -78.1 188.5C-89.1 172.8 -108.7 184.5 -120 179.6C-131.3 174.7 -134.2 153.2 -141.1 141.1C-148 129 -158.9 126.3 -186.7 124.7C-214.4 123.2 -259.1 122.7 -259.8 107.6C-260.6 92.6 -217.6 62.9 -213.8 42.5C-210.1 22.2 -245.7 11.1 -281.2 0L0 0Z" fill="#ff7eb8"></path><path d="M0 210.9C-15.6 213.2 -31.2 215.5 -39.9 200.4C-48.5 185.4 -50.3 153.1 -58.6 141.4C-66.8 129.6 -81.5 138.4 -90 134.7C-98.5 131 -100.6 114.9 -105.8 105.8C-111 96.7 -119.2 94.7 -140 93.5C-160.8 92.4 -194.3 92 -194.9 80.7C-195.5 69.4 -163.2 47.2 -160.4 31.9C-157.6 16.6 -184.2 8.3 -210.9 0L0 0Z" fill="#ff6d80"></path><path d="M0 140.6C-10.4 142.1 -20.8 143.6 -26.6 133.6C-32.4 123.6 -33.5 102.1 -39 94.2C-44.5 86.4 -54.4 92.3 -60 89.8C-65.6 87.3 -67.1 76.6 -70.5 70.5C-74 64.5 -79.4 63.1 -93.3 62.4C-107.2 61.6 -129.5 61.3 -129.9 53.8C-130.3 46.3 -108.8 31.5 -106.9 21.3C-105 11.1 -122.8 5.5 -140.6 0L0 0Z" fill="#ff6f3f"></path><path d="M0 70.3C-5.2 71.1 -10.4 71.8 -13.3 66.8C-16.2 61.8 -16.8 51 -19.5 47.1C-22.3 43.2 -27.2 46.1 -30 44.9C-32.8 43.7 -33.5 38.3 -35.3 35.3C-37 32.2 -39.7 31.6 -46.7 31.2C-53.6 30.8 -64.8 30.7 -65 26.9C-65.2 23.1 -54.4 15.7 -53.5 10.6C-52.5 5.5 -61.4 2.8 -70.3 0L0 0Z" fill="#f7770f"></path></g><g transform="translate(0, 675)"><path d="M0 -562.5C24.3 -490.2 48.6 -417.8 79.6 -400.2C110.6 -382.5 148.4 -419.4 174.1 -420.4C199.8 -421.3 213.4 -386.2 258.3 -386.6C303.3 -387 379.6 -422.9 397.7 -397.7C415.9 -372.6 375.8 -286.3 347.6 -232.2C319.3 -178.1 303 -156.2 349.2 -144.7C395.5 -133.1 504.2 -131.8 550.2 -109.4C596.2 -87.1 579.3 -43.5 562.5 0L0 0Z" fill="#aac9e2"></path><path d="M0 -492.2C21.2 -428.9 42.5 -365.6 69.6 -350.1C96.8 -334.7 129.9 -367 152.4 -367.8C174.8 -368.6 186.7 -337.9 226 -338.3C265.4 -338.7 332.2 -370.1 348 -348C363.9 -326 328.8 -250.5 304.1 -203.2C279.4 -155.9 265.1 -136.7 305.6 -126.6C346 -116.4 441.2 -115.4 481.4 -95.8C521.7 -76.2 506.9 -38.1 492.2 0L0 0Z" fill="#a9beef"></path><path d="M0 -421.9C18.2 -367.6 36.4 -313.4 59.7 -300.1C83 -286.9 111.3 -314.6 130.6 -315.3C149.9 -316 160 -289.7 193.8 -290C227.5 -290.3 284.7 -317.2 298.3 -298.3C311.9 -279.4 281.8 -214.7 260.7 -174.2C239.5 -133.6 227.2 -117.2 261.9 -108.5C296.6 -99.8 378.2 -98.9 412.7 -82.1C447.1 -65.3 434.5 -32.6 421.9 0L0 0Z" fill="#c1aef0"></path><path d="M0 -351.6C15.2 -306.4 30.3 -261.2 49.7 -250.1C69.1 -239 92.8 -262.1 108.8 -262.7C124.9 -263.3 133.4 -241.4 161.5 -241.6C189.6 -241.9 237.3 -264.3 248.6 -248.6C259.9 -232.9 234.9 -178.9 217.2 -145.1C199.6 -111.3 189.4 -97.6 218.3 -90.4C247.2 -83.2 315.2 -82.4 343.9 -68.4C372.6 -54.4 362.1 -27.2 351.6 0L0 0Z" fill="#e597df"></path><path d="M0 -281.2C12.1 -245.1 24.3 -208.9 39.8 -200.1C55.3 -191.2 74.2 -209.7 87.1 -210.2C99.9 -210.7 106.7 -193.1 129.2 -193.3C151.6 -193.5 189.8 -211.5 198.9 -198.9C207.9 -186.3 187.9 -143.2 173.8 -116.1C159.7 -89.1 151.5 -78.1 174.6 -72.3C197.7 -66.5 252.1 -65.9 275.1 -54.7C298.1 -43.5 289.7 -21.8 281.3 0L0 0Z" fill="#ff7eb8"></path><path d="M0 -210.9C9.1 -183.8 18.2 -156.7 29.8 -150.1C41.5 -143.4 55.7 -157.3 65.3 -157.6C74.9 -158 80 -144.8 96.9 -145C113.7 -145.1 142.4 -158.6 149.2 -149.2C155.9 -139.7 140.9 -107.4 130.3 -87.1C119.8 -66.8 113.6 -58.6 131 -54.2C148.3 -49.9 189.1 -49.4 206.3 -41C223.6 -32.6 217.3 -16.3 210.9 0L0 0Z" fill="#ff6d80"></path><path d="M0 -140.6C6.1 -122.5 12.1 -104.5 19.9 -100C27.7 -95.6 37.1 -104.9 43.5 -105.1C50 -105.3 53.3 -96.6 64.6 -96.7C75.8 -96.8 94.9 -105.7 99.4 -99.4C104 -93.1 93.9 -71.6 86.9 -58.1C79.8 -44.5 75.7 -39.1 87.3 -36.2C98.9 -33.3 126.1 -33 137.6 -27.4C149 -21.8 144.8 -10.9 140.6 0L0 0Z" fill="#ff6f3f"></path><path d="M0 -70.3C3 -61.3 6.1 -52.2 9.9 -50C13.8 -47.8 18.6 -52.4 21.8 -52.5C25 -52.7 26.7 -48.3 32.3 -48.3C37.9 -48.4 47.5 -52.9 49.7 -49.7C52 -46.6 47 -35.8 43.4 -29C39.9 -22.3 37.9 -19.5 43.7 -18.1C49.4 -16.6 63 -16.5 68.8 -13.7C74.5 -10.9 72.4 -5.4 70.3 0L0 0Z" fill="#f7770f"></path></g></svg>