<svg id="visual" viewBox="0 0 900 600" width="900" height="600" xmlns="http://www.w3.org/2000/svg" xmlns:xlink="http://www.w3.org/1999/xlink" version="1.1"><g><g transform="translate(458 350)"><path d="M18 -10.4C19.9 -7.2 15.4 -0.5 11.4 5.6C7.3 11.6 3.7 16.9 -0.8 17.3C-5.3 17.8 -10.5 13.5 -15.1 7.1C-19.7 0.8 -23.6 -7.6 -21 -11.2C-18.4 -14.8 -9.2 -13.8 -0.5 -13.5C8.1 -13.2 16.2 -13.6 18 -10.4Z" fill="#e0bead"></path></g><g transform="translate(262 389)"><path d="M11.2 -4.4C14.5 -0.8 17.1 5.3 15.1 9.5C13.1 13.7 6.6 16.1 2.2 14.8C-2.1 13.5 -4.2 8.6 -7.8 3.5C-11.3 -1.7 -16.3 -7 -15.3 -9.4C-14.2 -11.8 -7.1 -11.2 -1.6 -10.3C3.9 -9.4 7.9 -8.1 11.2 -4.4Z" fill="#e0bead"></path></g><g transform="translate(742 317)"><path d="M5.2 -2.9C5.9 -1.7 5.2 0.4 4.1 2.6C3 4.7 1.5 6.8 0 6.8C-1.6 6.8 -3.2 4.8 -3.8 3C-4.3 1.2 -3.9 -0.4 -3.1 -1.6C-2.3 -2.8 -1.2 -3.6 0.5 -3.9C2.2 -4.2 4.4 -4 5.2 -2.9Z" fill="#e0bead"></path></g><g transform="translate(817 109)"><path d="M3.8 -2.4C4.8 -0.4 5.4 1.5 4.7 2.7C4 3.9 2 4.3 0.5 4C-1 3.7 -1.9 2.7 -2.8 1.4C-3.6 0.2 -4.3 -1.3 -3.8 -3C-3.3 -4.6 -1.6 -6.4 -0.1 -6.3C1.4 -6.3 2.8 -4.3 3.8 -2.4Z" fill="#e0bead"></path></g><g transform="translate(826 508)"><path d="M13.1 -6.5C15.3 -3.8 14.1 1.8 11.4 6.8C8.7 11.7 4.3 15.9 1.1 15.2C-2.1 14.6 -4.1 9.1 -6.7 4.3C-9.2 -0.6 -12.3 -4.7 -11.2 -6.7C-10.2 -8.7 -5.1 -8.7 0.2 -8.8C5.5 -8.9 11 -9.2 13.1 -6.5Z" fill="#e0bead"></path></g><g transform="translate(348 62)"><path d="M3.4 -1.8C4.1 -0.9 4 0.7 3.3 1.4C2.6 2.1 1.3 2 0.4 1.8C-0.6 1.5 -1.2 1.3 -2 0.5C-2.7 -0.2 -3.7 -1.5 -3.4 -2.2C-3.1 -2.9 -1.6 -3.1 -0.1 -3C1.4 -3 2.8 -2.7 3.4 -1.8Z" fill="#e0bead"></path></g><g transform="translate(562 256)"><path d="M12.3 -6.4C14.1 -4.1 12.2 0.9 9.6 4.3C6.9 7.6 3.5 9.3 0.2 9.2C-3.1 9.1 -6.3 7.3 -7.8 4.6C-9.3 1.9 -9.2 -1.7 -7.6 -3.9C-6.1 -6.1 -3 -7 1.1 -7.7C5.3 -8.3 10.6 -8.8 12.3 -6.4Z" fill="#e0bead"></path></g><g transform="translate(807 24)"><path d="M3.5 -2.1C4.1 -1.1 3.7 0.4 3 1.6C2.2 2.8 1.1 3.6 -0.3 3.8C-1.7 4 -3.4 3.5 -4.1 2.3C-4.8 1.2 -4.5 -0.6 -3.7 -1.8C-2.8 -3 -1.4 -3.6 0 -3.6C1.5 -3.6 3 -3.1 3.5 -2.1Z" fill="#e0bead"></path></g><g transform="translate(382 393)"><path d="M5 -3.6C6 -1.1 6 1.2 5 4.2C4 7.3 2 11.1 -0.5 11.4C-3 11.7 -6.1 8.5 -7.3 5.3C-8.6 2.1 -8 -1.1 -6.5 -3.9C-5 -6.6 -2.5 -9 -0.3 -8.8C2 -8.7 4 -6.1 5 -3.6Z" fill="#e0bead"></path></g><g transform="translate(226 235)"><path d="M9.6 -7.1C10.4 -4.2 7.5 -0.8 5.3 1.6C3.1 3.9 1.6 5 -0.7 5.4C-3 5.8 -6 5.5 -8.3 3.1C-10.7 0.7 -12.4 -3.7 -11 -7.1C-9.5 -10.4 -4.7 -12.7 -0.2 -12.6C4.4 -12.5 8.8 -10.1 9.6 -7.1Z" fill="#e0bead"></path></g><g transform="translate(131 249)"><path d="M8.8 -4.6C11.2 -1 12.7 3.6 11.1 7.2C9.4 10.8 4.7 13.3 0.4 13.1C-4 12.9 -7.9 9.9 -10.3 5.8C-12.8 1.8 -13.6 -3.3 -11.6 -6.6C-9.7 -9.9 -4.8 -11.5 -0.8 -11.1C3.2 -10.6 6.5 -8.1 8.8 -4.6Z" fill="#e0bead"></path></g><g transform="translate(302 192)"><path d="M14.5 -9.2C17.9 -2.6 19 4.6 16.2 10.5C13.5 16.5 6.7 21.4 1.6 20.5C-3.6 19.6 -7.2 13 -9.1 7.5C-10.9 2.1 -11 -2.2 -9.2 -7.9C-7.4 -13.7 -3.7 -21 0.9 -21.5C5.6 -22.1 11.1 -15.9 14.5 -9.2Z" fill="#e0bead"></path></g><g transform="translate(58 569)"><path d="M1.9 -1.2C2.1 -0.8 1.6 -0.1 1.1 0.4C0.7 0.8 0.4 1 -0.1 1.1C-0.5 1.2 -1.1 1 -1.5 0.6C-1.8 0.2 -2 -0.6 -1.8 -1.1C-1.5 -1.6 -0.8 -1.8 0.1 -1.9C0.9 -1.9 1.7 -1.7 1.9 -1.2Z" fill="#e0bead"></path></g><g transform="translate(829 211)"><path d="M1.8 -1.1C2 -0.6 1.7 0.1 1.3 0.6C0.9 1.2 0.4 1.6 0 1.6C-0.4 1.6 -0.8 1.1 -1.2 0.6C-1.5 0.1 -1.8 -0.6 -1.6 -1C-1.4 -1.5 -0.7 -1.9 0 -1.9C0.8 -1.9 1.6 -1.6 1.8 -1.1Z" fill="#e0bead"></path></g><g transform="translate(635 250)"><path d="M4 -2.4C4.6 -1.2 4.2 0.5 3.4 1.9C2.5 3.3 1.3 4.4 0.1 4.3C-1.1 4.3 -2.1 3 -2.8 1.7C-3.6 0.4 -4 -1.1 -3.4 -2.2C-2.9 -3.4 -1.5 -4.3 0.1 -4.3C1.7 -4.4 3.4 -3.7 4 -2.4Z" fill="#e0bead"></path></g><g transform="translate(884 265)"><path d="M7.2 -5.2C9.3 -0.6 10.9 3.3 9.6 8.2C8.3 13 4.2 18.9 -1.1 19.5C-6.4 20.1 -12.8 15.6 -16.4 9.4C-19.9 3.2 -20.7 -4.6 -17.5 -9.9C-14.3 -15.2 -7.2 -17.9 -2.3 -16.6C2.6 -15.2 5.1 -9.8 7.2 -5.2Z" fill="#e0bead"></path></g><g transform="translate(371 456)"><path d="M2.7 -1.7C3.6 0.1 4.6 1.6 4.2 2.8C3.7 4 1.9 4.8 0.4 4.5C-1.1 4.3 -2.2 3.1 -2.6 2C-2.9 0.9 -2.5 -0.2 -1.9 -1.7C-1.4 -3.3 -0.7 -5.3 0.1 -5.4C0.9 -5.4 1.8 -3.5 2.7 -1.7Z" fill="#e0bead"></path></g><g transform="translate(116 145)"><path d="M2.5 -1.6C2.9 -0.8 2.6 0.3 2 1.1C1.5 1.9 0.8 2.5 0.1 2.5C-0.6 2.4 -1.2 1.7 -1.5 1.1C-1.8 0.4 -1.7 -0.3 -1.4 -1.1C-1.1 -1.9 -0.6 -2.9 0.2 -3C1 -3.2 2.1 -2.5 2.5 -1.6Z" fill="#e0bead"></path></g><g transform="translate(360 223)"><path d="M4.3 -3.4C5.8 0.1 7.3 2.6 6.6 4.3C5.9 6.1 2.9 7 0.4 6.8C-2.2 6.6 -4.4 5.2 -6.9 2.5C-9.3 -0.2 -12 -4.3 -10.9 -7.7C-9.7 -11 -4.9 -13.5 -1.7 -12.5C1.4 -11.5 2.8 -7 4.3 -3.4Z" fill="#e0bead"></path></g><g transform="translate(149 551)"><path d="M3.9 -1.3C5.4 0.3 7.1 2.8 6.5 5.3C6 7.9 3 10.6 0.4 10.4C-2.2 10.2 -4.4 7 -5 4.4C-5.7 1.8 -4.8 -0.2 -3.7 -1.6C-2.6 -3 -1.3 -3.8 -0.1 -3.8C1.2 -3.7 2.4 -2.9 3.9 -1.3Z" fill="#e0bead"></path></g><g transform="translate(684 376)"><path d="M14.2 -7C17 -3.4 16.9 3.1 14 9.4C11.2 15.6 5.6 21.5 0 21.5C-5.7 21.5 -11.3 15.7 -15.3 8.8C-19.3 2 -21.6 -5.9 -18.7 -9.5C-15.9 -13.1 -8 -12.5 -1.1 -11.8C5.7 -11.2 11.4 -10.5 14.2 -7Z" fill="#e0bead"></path></g><g transform="translate(612 537)"><path d="M3.9 -2.5C4.4 -1.4 3.7 0.2 2.8 1C2 1.9 1 2.1 0.1 2C-0.7 1.9 -1.4 1.6 -2.2 0.7C-3 -0.1 -3.9 -1.5 -3.6 -2.5C-3.2 -3.5 -1.6 -4.3 0 -4.3C1.7 -4.3 3.4 -3.7 3.9 -2.5Z" fill="#e0bead"></path></g><g transform="translate(200 177)"><path d="M18.8 -10.3C21.9 -5.4 20.5 2.8 16.6 6.3C12.6 9.9 6.3 8.8 0.3 8.6C-5.7 8.4 -11.3 9.1 -12.9 6.9C-14.6 4.7 -12.1 -0.5 -9.3 -5.2C-6.5 -10 -3.2 -14.4 2.3 -15.7C7.8 -17 15.6 -15.3 18.8 -10.3Z" fill="#e0bead"></path></g><g transform="translate(445 107)"><path d="M4.1 -2.2C5.7 0.4 7.7 3 7 5.1C6.4 7.2 3.2 8.9 0.6 8.6C-2 8.2 -4 5.9 -5.2 3.4C-6.4 0.9 -6.9 -1.6 -5.9 -3.9C-4.9 -6.2 -2.4 -8.1 -0.6 -7.8C1.3 -7.4 2.5 -4.8 4.1 -2.2Z" fill="#e0bead"></path></g><g transform="translate(66 371)"><path d="M7.5 -3.9C8.6 -2.5 7.6 0.7 6 3.3C4.4 6 2.2 8.2 0.4 8C-1.5 7.8 -2.9 5.1 -4.3 2.6C-5.7 0.1 -6.9 -2.3 -6.2 -3.5C-5.5 -4.8 -2.7 -4.9 0.3 -5C3.2 -5.2 6.5 -5.4 7.5 -3.9Z" fill="#e0bead"></path></g><g transform="translate(732 40)"><path d="M6.4 -4.3C7.5 -1.8 7 1 5.7 4.5C4.4 8.1 2.2 12.3 -1 12.9C-4.1 13.4 -8.2 10.3 -10.3 6.2C-12.5 2.2 -12.7 -2.6 -10.7 -5.7C-8.6 -8.9 -4.3 -10.2 -0.8 -9.7C2.6 -9.3 5.3 -6.9 6.4 -4.3Z" fill="#e0bead"></path></g><g transform="translate(574 468)"><path d="M6.8 -3.9C7.9 -2 7.4 1 5.9 2.4C4.5 3.9 2.3 3.9 -0.8 4.3C-3.9 4.8 -7.7 5.8 -8.9 4.4C-10.1 3.1 -8.7 -0.6 -6.8 -2.9C-4.8 -5.2 -2.4 -6.3 0.2 -6.4C2.8 -6.5 5.7 -5.7 6.8 -3.9Z" fill="#e0bead"></path></g><g transform="translate(262 490)"><path d="M10.7 -5.7C13.4 -1.5 14.8 3.9 12.8 7.8C10.8 11.7 5.4 14 0.7 13.7C-4 13.3 -8.1 10.1 -8.9 6.9C-9.7 3.7 -7.4 0.4 -5.4 -3.5C-3.4 -7.3 -1.7 -11.6 1.2 -12.3C4 -13 8 -10 10.7 -5.7Z" fill="#e0bead"></path></g><g transform="translate(536 349)"><path d="M3.4 -1.5C4.2 -0.5 4.6 1.2 3.9 2C3.3 2.8 1.6 2.9 0.4 2.6C-0.8 2.4 -1.5 1.8 -1.9 1.1C-2.3 0.4 -2.3 -0.4 -1.9 -1.1C-1.5 -1.9 -0.8 -2.4 0.3 -2.5C1.3 -2.7 2.6 -2.5 3.4 -1.5Z" fill="#e0bead"></path></g><g transform="translate(437 41)"><path d="M12.7 -5.1C16.4 -0.9 19.3 5.9 17 10.2C14.8 14.5 7.4 16.3 0.3 16.1C-6.7 15.9 -13.5 13.8 -15.4 9.6C-17.4 5.5 -14.6 -0.6 -11.2 -4.6C-7.8 -8.5 -3.9 -10.3 0.3 -10.4C4.5 -10.6 9 -9.2 12.7 -5.1Z" fill="#e0bead"></path></g><g transform="translate(140 329)"><path d="M9.9 -7.7C10.8 -4.2 8.1 -0.5 5.8 2.3C3.6 5.2 1.8 7.4 0 7.4C-1.9 7.4 -3.7 5.3 -6.4 2.2C-9 -0.9 -12.5 -5 -11.5 -8.6C-10.6 -12.2 -5.3 -15.2 -0.4 -15C4.5 -14.8 9 -11.3 9.9 -7.7Z" fill="#e0bead"></path></g><g transform="translate(210 21)"><path d="M13.3 -5.9C16 -3.1 16 3.1 13.3 6.3C10.6 9.6 5.3 10 1 9.4C-3.3 8.8 -6.7 7.3 -7.5 5.1C-8.4 2.9 -6.7 0 -5 -2.2C-3.4 -4.5 -1.7 -6 1.8 -7.1C5.3 -8.1 10.7 -8.7 13.3 -5.9Z" fill="#e0bead"></path></g><g transform="translate(707 259)"><path d="M1.4 -1.1C1.7 -0.3 1.7 0.3 1.4 1.1C1.2 1.8 0.6 2.7 -0.3 2.8C-1.1 3 -2.3 2.5 -2.4 1.8C-2.6 1.1 -1.8 0.2 -1.3 -0.7C-0.7 -1.6 -0.4 -2.6 0.1 -2.7C0.6 -2.7 1.1 -1.9 1.4 -1.1Z" fill="#e0bead"></path></g><g transform="translate(657 315)"><path d="M9.3 -3.9C11.2 -2 11.5 2.4 9.6 4.9C7.8 7.3 3.9 7.9 1.1 7.2C-1.7 6.6 -3.4 4.8 -4.2 2.9C-5 1.1 -4.9 -0.8 -4 -2.1C-3.2 -3.5 -1.6 -4.2 1 -4.8C3.7 -5.4 7.3 -5.9 9.3 -3.9Z" fill="#e0bead"></path></g><g transform="translate(312 589)"><path d="M2.8 -1.7C3.5 -0.6 3.6 0.8 3 1.9C2.5 3 1.2 3.9 0.2 3.8C-0.9 3.7 -1.9 2.7 -2.3 1.7C-2.6 0.6 -2.4 -0.3 -2 -1.3C-1.5 -2.3 -0.8 -3.4 0.2 -3.5C1.1 -3.6 2.2 -2.7 2.8 -1.7Z" fill="#e0bead"></path></g><g transform="translate(51 80)"><path d="M2.6 -1.7C3 -1 2.4 0 1.8 1.4C1.2 2.7 0.6 4.3 -0.3 4.5C-1.3 4.7 -2.6 3.5 -3 2.3C-3.3 1.1 -2.7 0 -2 -1C-1.4 -1.9 -0.7 -2.6 0.2 -2.8C1.2 -2.9 2.3 -2.5 2.6 -1.7Z" fill="#e0bead"></path></g><g transform="translate(556 121)"><path d="M1.5 -0.7C1.9 -0.2 2.1 0.5 1.8 1.5C1.5 2.4 0.7 3.5 0.1 3.4C-0.6 3.4 -1.2 2.2 -1.8 1.1C-2.3 0.1 -2.9 -0.9 -2.6 -1.4C-2.2 -1.8 -1.1 -1.6 -0.3 -1.5C0.6 -1.3 1.2 -1.2 1.5 -0.7Z" fill="#e0bead"></path></g><g transform="translate(479 527)"><path d="M1.9 -1.1C2.1 -0.6 1.9 0.2 1.5 0.6C1.1 1 0.5 1 0 1C-0.6 1 -1.1 1 -1.4 0.7C-1.6 0.4 -1.5 -0.2 -1.3 -0.7C-1 -1.2 -0.5 -1.6 0.2 -1.7C0.8 -1.8 1.6 -1.6 1.9 -1.1Z" fill="#e0bead"></path></g><g transform="translate(571 7)"><path d="M5.3 -3C5.9 -1.9 4.9 0.1 3.7 2.5C2.6 4.8 1.3 7.4 0.1 7.3C-1 7.2 -2.1 4.5 -3.3 2.1C-4.6 -0.3 -6.1 -2.3 -5.5 -3.3C-5 -4.3 -2.5 -4.2 -0.1 -4.1C2.3 -4 4.6 -4 5.3 -3Z" fill="#e0bead"></path></g><g transform="translate(673 132)"><path d="M14.5 -7.5C17.1 -3.9 16.4 2.6 13.5 6.8C10.5 11 5.2 13 -0.2 13.1C-5.6 13.2 -11.2 11.5 -13.3 7.8C-15.4 4.1 -14 -1.6 -11.2 -5.4C-8.4 -9.1 -4.2 -10.9 0.9 -11.4C6 -11.9 11.9 -11.1 14.5 -7.5Z" fill="#e0bead"></path></g><g transform="translate(899 541)"><path d="M6 -3C7.2 -1.5 7.1 1.3 5.9 2.8C4.7 4.2 2.3 4.4 0.5 4.1C-1.3 3.8 -2.6 3 -3.2 1.9C-3.8 0.7 -3.9 -0.8 -3.2 -2C-2.6 -3.2 -1.3 -4.1 0.6 -4.5C2.4 -4.8 4.9 -4.5 6 -3Z" fill="#e0bead"></path></g><g transform="translate(441 469)"><path d="M6.2 -4.5C7 -2.3 5.8 0.2 4.4 1.6C3.1 3.1 1.5 3.5 -1.1 4.1C-3.7 4.7 -7.4 5.6 -8.6 4.2C-9.9 2.9 -8.6 -0.7 -6.7 -3.5C-4.9 -6.4 -2.4 -8.5 0.1 -8.6C2.7 -8.7 5.5 -6.7 6.2 -4.5Z" fill="#e0bead"></path></g><g transform="translate(249 102)"><path d="M5.2 -2.6C6.5 -0.6 7.3 2 6.4 4.5C5.4 6.9 2.7 9.1 0.2 9C-2.3 8.9 -4.5 6.4 -6 3.7C-7.4 1 -8 -2 -6.9 -3.9C-5.8 -5.7 -2.9 -6.4 -0.5 -6.1C1.9 -5.8 3.8 -4.6 5.2 -2.6Z" fill="#e0bead"></path></g><g transform="translate(411 182)"><path d="M4.6 -2.5C5.4 -1.2 5.2 0.9 4.3 2.9C3.4 4.9 1.7 6.9 0.2 6.8C-1.3 6.7 -2.7 4.5 -3.9 2.3C-5.2 0.1 -6.4 -2.1 -5.7 -3.4C-5 -4.6 -2.5 -4.8 -0.3 -4.7C1.9 -4.5 3.7 -3.9 4.6 -2.5Z" fill="#e0bead"></path></g><g transform="translate(540 193)"><path d="M7.7 -5.8C9.4 -1.5 9.7 2.1 8.2 5.7C6.7 9.3 3.3 12.7 -0.6 13.1C-4.6 13.5 -9.2 10.7 -10.5 7.3C-11.8 3.8 -9.8 -0.3 -7.5 -5C-5.2 -9.6 -2.6 -14.7 0.2 -14.8C3 -14.9 6 -10.1 7.7 -5.8Z" fill="#e0bead"></path></g><g transform="translate(763 595)"><path d="M2.4 -1.7C2.7 -0.9 2.2 0 1.6 0.8C1.1 1.7 0.6 2.4 -0.2 2.5C-1 2.6 -2 2.2 -2.2 1.5C-2.5 0.8 -2 -0.1 -1.6 -0.9C-1.1 -1.8 -0.5 -2.7 0.3 -2.8C1.1 -3 2.1 -2.4 2.4 -1.7Z" fill="#e0bead"></path></g><g transform="translate(35 213)"><path d="M14.9 -9.9C16.7 -5.7 13.5 0.2 10.2 5.5C6.9 10.9 3.4 15.8 -1.7 16.8C-6.8 17.8 -13.7 14.8 -15.5 10.3C-17.3 5.8 -14 -0.2 -10.6 -5.4C-7.2 -10.7 -3.6 -15.1 1.5 -16C6.6 -16.9 13.2 -14.2 14.9 -9.9Z" fill="#e0bead"></path></g><g transform="translate(121 478)"><path d="M5.9 -3.8C6.9 -1.7 6.4 0.8 5.1 2.6C3.9 4.3 1.9 5.2 -1 5.8C-4 6.4 -8.1 6.7 -9.2 5C-10.3 3.4 -8.4 -0.2 -6.4 -2.9C-4.4 -5.6 -2.2 -7.4 0.1 -7.5C2.5 -7.6 4.9 -5.9 5.9 -3.8Z" fill="#e0bead"></path></g><g transform="translate(675 525)"><path d="M5.3 -3.1C6.7 -0.7 7.5 2 6.5 4.4C5.5 6.7 2.8 8.6 0.2 8.5C-2.4 8.4 -4.7 6.2 -5.8 3.9C-6.8 1.5 -6.5 -1 -5.3 -3.3C-4.2 -5.7 -2.1 -7.7 -0.1 -7.7C2 -7.6 4 -5.5 5.3 -3.1Z" fill="#e0bead"></path></g><g transform="translate(820 442)"><path d="M7.9 -3.3C9.7 -1.5 10.2 2.4 8.7 4.6C7.1 6.9 3.6 7.6 -0.5 7.9C-4.5 8.2 -9.1 8 -10.4 5.9C-11.7 3.8 -9.7 -0.4 -7.4 -2.4C-5.2 -4.5 -2.6 -4.5 0.2 -4.6C3.1 -4.8 6.1 -5 7.9 -3.3Z" fill="#e0bead"></path></g><g transform="translate(158 421)"><path d="M4.7 -2.7C5.5 -1.3 5.2 0.8 4.3 2.2C3.3 3.6 1.7 4.4 0.1 4.3C-1.4 4.2 -2.8 3.3 -3.9 1.8C-5.1 0.4 -5.9 -1.7 -5.2 -3.2C-4.4 -4.6 -2.2 -5.3 -0.1 -5.2C1.9 -5.1 3.9 -4.2 4.7 -2.7Z" fill="#e0bead"></path></g><g transform="translate(459 261)"><path d="M16.9 -9C19.7 -5 18.1 2.3 14.6 7.5C11.1 12.7 5.5 15.7 0.8 15.3C-3.9 14.8 -7.9 10.8 -9.6 6.7C-11.3 2.6 -10.7 -1.7 -8.8 -5.2C-6.8 -8.8 -3.4 -11.8 1.8 -12.8C7.1 -13.9 14.1 -13.1 16.9 -9Z" fill="#e0bead"></path></g><g transform="translate(277 310)"><path d="M15.5 -10.9C17.5 -5.5 14.7 0.7 11.4 5.7C8 10.6 4 14.4 -0.7 14.8C-5.4 15.2 -10.8 12.2 -12.3 8.4C-13.7 4.5 -11.3 -0.3 -8.6 -6.1C-5.9 -12 -3 -18.8 1.9 -19.9C6.7 -21 13.5 -16.3 15.5 -10.9Z" fill="#e0bead"></path></g><g transform="translate(890 406)"><path d="M15.2 -6.7C18.4 -3.2 18.8 3.9 15.8 8.6C12.8 13.3 6.4 15.5 1.8 14.5C-2.9 13.5 -5.8 9.3 -8.6 4.7C-11.4 0.1 -14.2 -4.8 -12.7 -7.3C-11.3 -9.7 -5.6 -9.7 0.2 -9.8C6 -10 12 -10.2 15.2 -6.7Z" fill="#e0bead"></path></g></g></svg>