<svg id="visual" viewBox="0 0 900 600" width="900" height="600" xmlns="http://www.w3.org/2000/svg" xmlns:xlink="http://www.w3.org/1999/xlink" version="1.1"><rect x="0" y="0" width="900" height="600" fill="#85b3f9"></rect><defs><linearGradient id="grad1_0" x1="33.3%" y1="0%" x2="100%" y2="100%"><stop offset="20%" stop-color="#f7770f" stop-opacity="1"></stop><stop offset="80%" stop-color="#f7770f" stop-opacity="1"></stop></linearGradient></defs><defs><linearGradient id="grad1_1" x1="33.3%" y1="0%" x2="100%" y2="100%"><stop offset="20%" stop-color="#f7770f" stop-opacity="1"></stop><stop offset="80%" stop-color="#ff6850" stop-opacity="1"></stop></linearGradient></defs><defs><linearGradient id="grad1_2" x1="33.3%" y1="0%" x2="100%" y2="100%"><stop offset="20%" stop-color="#ff6482" stop-opacity="1"></stop><stop offset="80%" stop-color="#ff6850" stop-opacity="1"></stop></linearGradient></defs><defs><linearGradient id="grad1_3" x1="33.3%" y1="0%" x2="100%" y2="100%"><stop offset="20%" stop-color="#ff6482" stop-opacity="1"></stop><stop offset="80%" stop-color="#ff6faf" stop-opacity="1"></stop></linearGradient></defs><defs><linearGradient id="grad1_4" x1="33.3%" y1="0%" x2="100%" y2="100%"><stop offset="20%" stop-color="#f082d4" stop-opacity="1"></stop><stop offset="80%" stop-color="#ff6faf" stop-opacity="1"></stop></linearGradient></defs><defs><linearGradient id="grad1_5" x1="33.3%" y1="0%" x2="100%" y2="100%"><stop offset="20%" stop-color="#f082d4" stop-opacity="1"></stop><stop offset="80%" stop-color="#cd95ee" stop-opacity="1"></stop></linearGradient></defs><defs><linearGradient id="grad1_6" x1="33.3%" y1="0%" x2="100%" y2="100%"><stop offset="20%" stop-color="#a7a6fa" stop-opacity="1"></stop><stop offset="80%" stop-color="#cd95ee" stop-opacity="1"></stop></linearGradient></defs><defs><linearGradient id="grad1_7" x1="33.3%" y1="0%" x2="100%" y2="100%"><stop offset="20%" stop-color="#a7a6fa" stop-opacity="1"></stop><stop offset="80%" stop-color="#85b3f9" stop-opacity="1"></stop></linearGradient></defs><defs><linearGradient id="grad2_0" x1="0%" y1="0%" x2="66.7%" y2="100%"><stop offset="20%" stop-color="#f7770f" stop-opacity="1"></stop><stop offset="80%" stop-color="#f7770f" stop-opacity="1"></stop></linearGradient></defs><defs><linearGradient id="grad2_1" x1="0%" y1="0%" x2="66.7%" y2="100%"><stop offset="20%" stop-color="#ff6850" stop-opacity="1"></stop><stop offset="80%" stop-color="#f7770f" stop-opacity="1"></stop></linearGradient></defs><defs><linearGradient id="grad2_2" x1="0%" y1="0%" x2="66.7%" y2="100%"><stop offset="20%" stop-color="#ff6850" stop-opacity="1"></stop><stop offset="80%" stop-color="#ff6482" stop-opacity="1"></stop></linearGradient></defs><defs><linearGradient id="grad2_3" x1="0%" y1="0%" x2="66.7%" y2="100%"><stop offset="20%" stop-color="#ff6faf" stop-opacity="1"></stop><stop offset="80%" stop-color="#ff6482" stop-opacity="1"></stop></linearGradient></defs><defs><linearGradient id="grad2_4" x1="0%" y1="0%" x2="66.7%" y2="100%"><stop offset="20%" stop-color="#ff6faf" stop-opacity="1"></stop><stop offset="80%" stop-color="#f082d4" stop-opacity="1"></stop></linearGradient></defs><defs><linearGradient id="grad2_5" x1="0%" y1="0%" x2="66.7%" y2="100%"><stop offset="20%" stop-color="#cd95ee" stop-opacity="1"></stop><stop offset="80%" stop-color="#f082d4" stop-opacity="1"></stop></linearGradient></defs><defs><linearGradient id="grad2_6" x1="0%" y1="0%" x2="66.7%" y2="100%"><stop offset="20%" stop-color="#cd95ee" stop-opacity="1"></stop><stop offset="80%" stop-color="#a7a6fa" stop-opacity="1"></stop></linearGradient></defs><defs><linearGradient id="grad2_7" x1="0%" y1="0%" x2="66.7%" y2="100%"><stop offset="20%" stop-color="#85b3f9" stop-opacity="1"></stop><stop offset="80%" stop-color="#a7a6fa" stop-opacity="1"></stop></linearGradient></defs><g transform="translate(900, 0)"><path d="M0 540.8C-14.8 439 -29.6 337.2 -69.1 347.2C-108.5 357.2 -172.6 479.1 -207 499.7C-241.3 520.2 -245.9 439.3 -270 404.1C-294.1 368.9 -337.7 379.3 -362.7 362.7C-387.8 346.2 -394.2 302.8 -398.3 266.1C-402.4 229.5 -404.1 199.7 -418.5 173.4C-432.9 147.1 -460 124.3 -482.5 96C-505 67.7 -522.9 33.8 -540.8 0L0 0Z" fill="#95adfb"></path><path d="M0 473.2C-13 384.1 -25.9 295 -60.4 303.8C-95 312.6 -151 419.2 -181.1 437.2C-211.2 455.2 -215.2 384.4 -236.3 353.6C-257.3 322.8 -295.5 331.9 -317.4 317.4C-339.3 302.9 -344.9 264.9 -348.5 232.9C-352.1 200.8 -353.6 174.7 -366.2 151.7C-378.8 128.7 -402.5 108.8 -422.2 84C-441.9 59.2 -457.6 29.6 -473.2 0L0 0Z" fill="#ba9ef5"></path><path d="M0 405.6C-11.1 329.2 -22.2 252.9 -51.8 260.4C-81.4 267.9 -129.5 359.4 -155.2 374.7C-181 390.1 -184.4 329.5 -202.5 303.1C-220.6 276.6 -253.3 284.5 -272.1 272.1C-290.8 259.7 -295.6 227.1 -298.7 199.6C-301.8 172.1 -303.1 149.7 -313.9 130C-324.7 110.3 -345 93.2 -361.9 72C-378.8 50.8 -392.2 25.4 -405.6 0L0 0Z" fill="#df8be2"></path><path d="M0 338C-9.3 274.4 -18.5 210.7 -43.2 217C-67.8 223.3 -107.9 299.5 -129.4 312.3C-150.8 325.1 -153.7 274.6 -168.8 252.6C-183.8 230.5 -211.1 237 -226.7 226.7C-242.4 216.4 -246.4 189.2 -248.9 166.3C-251.5 143.4 -252.6 124.8 -261.6 108.3C-270.6 91.9 -287.5 77.7 -301.6 60C-315.7 42.3 -326.8 21.1 -338 0L0 0Z" fill="#fe78c3"></path><path d="M0 270.4C-7.4 219.5 -14.8 168.6 -34.5 173.6C-54.3 178.6 -86.3 239.6 -103.5 249.8C-120.7 260.1 -123 219.7 -135 202C-147.1 184.4 -168.9 189.6 -181.4 181.4C-193.9 173.1 -197.1 151.4 -199.1 133.1C-201.2 114.7 -202 99.8 -209.3 86.7C-216.5 73.5 -230 62.1 -241.3 48C-252.5 33.8 -261.5 16.9 -270.4 0L0 0Z" fill="#ff6899"></path><path d="M0 202.8C-5.6 164.6 -11.1 126.4 -25.9 130.2C-40.7 134 -64.7 179.7 -77.6 187.4C-90.5 195.1 -92.2 164.7 -101.3 151.5C-110.3 138.3 -126.6 142.2 -136 136C-145.4 129.8 -147.8 113.5 -149.4 99.8C-150.9 86.1 -151.5 74.9 -156.9 65C-162.4 55.1 -172.5 46.6 -181 36C-189.4 25.4 -196.1 12.7 -202.8 0L0 0Z" fill="#ff6469"></path><path d="M0 135.2C-3.7 109.7 -7.4 84.3 -17.3 86.8C-27.1 89.3 -43.2 119.8 -51.7 124.9C-60.3 130 -61.5 109.8 -67.5 101C-73.5 92.2 -84.4 94.8 -90.7 90.7C-96.9 86.6 -98.5 75.7 -99.6 66.5C-100.6 57.4 -101 49.9 -104.6 43.3C-108.2 36.8 -115 31.1 -120.6 24C-126.3 16.9 -130.7 8.5 -135.2 0L0 0Z" fill="#ff6f35"></path><path d="M0 67.6C-1.9 54.9 -3.7 42.1 -8.6 43.4C-13.6 44.7 -21.6 59.9 -25.9 62.5C-30.2 65 -30.7 54.9 -33.8 50.5C-36.8 46.1 -42.2 47.4 -45.3 45.3C-48.5 43.3 -49.3 37.8 -49.8 33.3C-50.3 28.7 -50.5 25 -52.3 21.7C-54.1 18.4 -57.5 15.5 -60.3 12C-63.1 8.5 -65.4 4.2 -67.6 0L0 0Z" fill="#f7770f"></path></g><g transform="translate(0, 600)"><path d="M0 -540.8C25.3 -483.8 50.5 -426.8 81.7 -410.9C113 -395.1 150.1 -420.5 165.3 -399.1C180.5 -377.7 173.8 -309.6 185.6 -277.7C197.3 -245.8 227.5 -250.2 238.3 -238.3C249.1 -226.4 240.6 -198.3 295.2 -197.2C349.7 -196.2 467.3 -222.2 499.7 -207C532 -191.7 479.1 -135.2 471.8 -93.8C464.4 -52.5 502.6 -26.2 540.8 0L0 0Z" fill="#95adfb"></path><path d="M0 -473.2C22.1 -423.3 44.2 -373.4 71.5 -359.6C98.8 -345.7 131.3 -367.9 144.7 -349.2C158 -330.5 152.1 -270.9 162.4 -243C172.6 -215.1 199 -218.9 208.5 -208.5C218 -198.1 210.5 -173.5 258.3 -172.6C306 -171.7 408.9 -194.4 437.2 -181.1C465.5 -167.8 419.2 -118.3 412.8 -82.1C406.4 -45.9 439.8 -23 473.2 0L0 0Z" fill="#ba9ef5"></path><path d="M0 -405.6C19 -362.9 37.9 -320.1 61.3 -308.2C84.7 -296.3 112.6 -315.4 124 -299.3C135.4 -283.3 130.4 -232.2 139.2 -208.3C148 -184.4 170.6 -187.6 178.7 -178.7C186.8 -169.8 180.5 -148.7 221.4 -147.9C262.3 -147.1 350.5 -166.7 374.7 -155.2C399 -143.8 359.3 -101.4 353.8 -70.4C348.3 -39.3 377 -19.7 405.6 0L0 0Z" fill="#df8be2"></path><path d="M0 -338C15.8 -302.4 31.6 -266.7 51.1 -256.8C70.6 -247 93.8 -262.8 103.3 -249.4C112.8 -236.1 108.6 -193.5 116 -173.6C123.3 -153.6 142.2 -156.4 148.9 -148.9C155.7 -141.5 150.4 -123.9 184.5 -123.3C218.6 -122.6 292.1 -138.9 312.3 -129.4C332.5 -119.8 299.4 -84.5 294.8 -58.6C290.3 -32.8 314.1 -16.4 338 0L0 0Z" fill="#fe78c3"></path><path d="M0 -270.4C12.6 -241.9 25.3 -213.4 40.9 -205.5C56.5 -197.6 75 -210.2 82.7 -199.6C90.3 -188.9 86.9 -154.8 92.8 -138.9C98.6 -122.9 113.7 -125.1 119.1 -119.1C124.6 -113.2 120.3 -99.1 147.6 -98.6C174.9 -98.1 233.7 -111.1 249.8 -103.5C266 -95.9 239.6 -67.6 235.9 -46.9C232.2 -26.2 251.3 -13.1 270.4 0L0 0Z" fill="#ff6899"></path><path d="M0 -202.8C9.5 -181.4 19 -160 30.7 -154.1C42.4 -148.2 56.3 -157.7 62 -149.7C67.7 -141.7 65.2 -116.1 69.6 -104.1C74 -92.2 85.3 -93.8 89.4 -89.4C93.4 -84.9 90.2 -74.4 110.7 -74C131.1 -73.6 175.2 -83.3 187.4 -77.6C199.5 -71.9 179.7 -50.7 176.9 -35.2C174.2 -19.7 188.5 -9.8 202.8 0L0 0Z" fill="#ff6469"></path><path d="M0 -135.2C6.3 -121 12.6 -106.7 20.4 -102.7C28.2 -98.8 37.5 -105.1 41.3 -99.8C45.1 -94.4 43.5 -77.4 46.4 -69.4C49.3 -61.5 56.9 -62.5 59.6 -59.6C62.3 -56.6 60.2 -49.6 73.8 -49.3C87.4 -49 116.8 -55.6 124.9 -51.7C133 -47.9 119.8 -33.8 117.9 -23.5C116.1 -13.1 125.7 -6.6 135.2 0L0 0Z" fill="#ff6f35"></path><path d="M0 -67.6C3.2 -60.5 6.3 -53.3 10.2 -51.4C14.1 -49.4 18.8 -52.6 20.7 -49.9C22.6 -47.2 21.7 -38.7 23.2 -34.7C24.7 -30.7 28.4 -31.3 29.8 -29.8C31.1 -28.3 30.1 -24.8 36.9 -24.7C43.7 -24.5 58.4 -27.8 62.5 -25.9C66.5 -24 59.9 -16.9 59 -11.7C58.1 -6.6 62.8 -3.3 67.6 0L0 0Z" fill="#f7770f"></path></g></svg>