<svg id="visual" viewBox="0 0 900 675" width="900" height="675" xmlns="http://www.w3.org/2000/svg" xmlns:xlink="http://www.w3.org/1999/xlink" version="1.1"><g><g transform="translate(822 324)"><path d="M42.4 -46.2C54.3 -40.5 62.9 -26.6 66.9 -10.7C71 5.1 70.5 22.7 63.4 38.2C56.4 53.7 42.8 66.9 27 71.6C11.1 76.3 -6.9 72.4 -19.4 63.5C-31.9 54.5 -38.8 40.5 -39.4 28.2C-39.9 15.9 -34.1 5.5 -29.7 -2.8C-25.3 -11 -22.3 -17 -17.6 -24C-12.9 -30.9 -6.4 -38.9 4.4 -44.2C15.2 -49.4 30.5 -51.9 42.4 -46.2Z" fill="none" stroke="#4f5248" stroke-width="3"></path></g><g transform="translate(202 343)"><path d="M20.4 -21.7C25.4 -20.1 27.7 -12.7 27.8 -5.8C27.9 1.1 25.8 7.4 21.7 10.6C17.6 13.9 11.4 14 6.3 14.8C1.2 15.6 -2.8 17.1 -8.1 17.4C-13.5 17.6 -20.2 16.6 -25.1 12.4C-30.1 8.2 -33.3 0.9 -32.3 -5.8C-31.2 -12.6 -26.1 -18.7 -20 -20.1C-13.9 -21.6 -7 -18.3 0.4 -18.7C7.7 -19.2 15.4 -23.3 20.4 -21.7Z" fill="none" stroke="#4f5248" stroke-width="3"></path></g><g transform="translate(553 107)"><path d="M19.7 -24.4C22.1 -21.5 18.3 -12 18.7 -4.2C19 3.7 23.5 9.9 23.6 17.3C23.7 24.6 19.4 33 13.2 34.6C6.9 36.2 -1.2 31 -7.8 26.4C-14.3 21.8 -19.2 17.9 -25.1 12.2C-31.1 6.6 -38.1 -0.7 -36.9 -6.3C-35.6 -11.9 -26.1 -15.8 -18.6 -17.9C-11 -20 -5.5 -20.2 1.6 -22.1C8.6 -23.9 17.3 -27.4 19.7 -24.4Z" fill="none" stroke="#4f5248" stroke-width="3"></path></g><g transform="translate(478 527)"><path d="M25 -29.3C31 -24.7 33.7 -15.5 31.5 -8.4C29.3 -1.4 22.2 3.7 18 9.8C13.7 15.9 12.4 23.1 8.9 24.2C5.4 25.4 -0.2 20.6 -9.5 19.9C-18.8 19.2 -31.9 22.6 -34.2 19.3C-36.6 16.1 -28.2 6.3 -24.6 -2.6C-20.9 -11.5 -22 -19.5 -18.7 -24.7C-15.4 -29.9 -7.7 -32.2 0.9 -33.2C9.4 -34.2 18.9 -34 25 -29.3Z" stroke="#4f5248" fill="none" stroke-width="3"></path></g><g transform="translate(16 443)"><path d="M16.2 -24.6C22.7 -13.9 30.7 -10.4 39.2 -1.1C47.8 8.2 56.9 23.1 51.6 27.5C46.3 31.8 26.7 25.5 12 29.1C-2.6 32.7 -12.2 46.2 -16.3 44.7C-20.4 43.3 -19.1 26.8 -27.1 14.8C-35 2.8 -52.1 -4.7 -56.6 -15.3C-61.1 -25.9 -52.9 -39.6 -41.3 -49.3C-29.8 -59.1 -14.9 -64.9 -5 -58.9C4.9 -53 9.8 -35.2 16.2 -24.6Z" stroke="#4f5248" fill="none" stroke-width="3"></path></g><g transform="translate(416 266)"><path d="M31.1 -37.8C43.8 -26.5 59.9 -19.9 64 -9.4C68.2 1.2 60.4 15.8 50.8 26.4C41.2 37 29.7 43.6 17.4 48.4C5.1 53.1 -8.2 56 -21.8 53.7C-35.3 51.4 -49.2 43.9 -51.3 33.1C-53.5 22.3 -43.8 8.1 -37.9 -3.4C-32 -15 -29.8 -24 -24.1 -36.5C-18.4 -49.1 -9.2 -65.2 0 -65.3C9.2 -65.3 18.5 -49.1 31.1 -37.8Z" stroke="#4f5248" fill="none" stroke-width="3"></path></g><g transform="translate(278 73)"><path d="M35.1 -41.6C43.4 -34.9 46.6 -21.8 49 -8.5C51.5 4.8 53.3 18.3 48 28.1C42.8 37.9 30.5 43.9 19.6 43.3C8.7 42.7 -0.8 35.5 -7.8 29.5C-14.9 23.5 -19.5 18.7 -21.8 13.3C-24.2 7.8 -24.3 1.8 -22.6 -3.3C-20.9 -8.4 -17.4 -12.5 -13.3 -19.9C-9.2 -27.4 -4.6 -38.2 4.4 -43.4C13.4 -48.6 26.8 -48.3 35.1 -41.6Z" stroke="#4f5248" fill="none" stroke-width="3"></path></g><g transform="translate(36 131)"><path d="M6.1 -6C8.5 -5.1 11.7 -3.9 12.7 -1.7C13.7 0.4 12.5 3.5 10.4 5C8.3 6.5 5.3 6.4 2.7 7.5C0 8.5 -2.3 10.6 -3.9 10.2C-5.6 9.9 -6.5 7.1 -7.1 4.7C-7.7 2.4 -7.9 0.5 -7.8 -1.6C-7.6 -3.6 -7.1 -5.7 -5.7 -6.8C-4.4 -7.9 -2.2 -7.9 -0.2 -7.7C1.8 -7.4 3.6 -6.9 6.1 -6Z" stroke="#4f5248" fill="none" stroke-width="3"></path></g><g transform="translate(754 602)"><path d="M10.8 -15.5C13.4 -10.7 14.5 -6.7 15.8 -2.4C17 2 18.4 6.7 17.3 11.4C16.2 16.1 12.7 20.7 7.7 23.6C2.6 26.6 -3.9 27.8 -8.6 25.3C-13.2 22.9 -15.9 16.8 -17.5 11.4C-19.2 5.9 -19.8 1.2 -17.9 -2.1C-16.1 -5.3 -11.7 -7 -8.2 -11.7C-4.8 -16.4 -2.4 -24.2 0.8 -25.2C4.1 -26.2 8.2 -20.4 10.8 -15.5Z" stroke="#4f5248" fill="none" stroke-width="3"></path></g><g transform="translate(91 616)"><path d="M33.1 -42.9C43.2 -31 52 -20.8 49.4 -12.2C46.8 -3.5 32.8 3.7 24.4 10.3C16 16.9 13.3 22.9 8.4 25.9C3.5 28.8 -3.5 28.8 -11 27.3C-18.6 25.9 -26.8 23 -34.7 16.6C-42.6 10.1 -50.3 -0.1 -48.8 -8.7C-47.4 -17.3 -36.9 -24.4 -27.3 -36.4C-17.6 -48.5 -8.8 -65.4 1.3 -67C11.5 -68.6 23 -54.8 33.1 -42.9Z" stroke="#4f5248" fill="none" stroke-width="3"></path></g><g transform="translate(759 26)"><path d="M23.5 -33.6C29 -23.4 30.9 -14.6 31.4 -6.3C32 2 31.2 9.8 29.1 20C27 30.2 23.6 42.7 14.8 49.9C6.1 57.1 -8 58.9 -15.9 52.3C-23.8 45.7 -25.5 30.7 -26.6 19.7C-27.7 8.8 -28.2 1.9 -27.4 -5.2C-26.6 -12.4 -24.6 -19.6 -19.8 -29.9C-15.1 -40.2 -7.5 -53.4 0.7 -54.3C9 -55.2 18.1 -43.7 23.5 -33.6Z" stroke="#4f5248" fill="none" stroke-width="3"></path></g><g transform="translate(338 644)"><path d="M15.1 -18C17.3 -16.2 15.2 -9.2 15.9 -3.1C16.7 3.1 20.4 8.5 19.9 13.6C19.5 18.8 14.9 23.6 10.2 23.4C5.4 23.1 0.5 17.7 -3.1 14C-6.7 10.3 -8.8 8.3 -11.6 5.7C-14.4 3 -17.7 -0.4 -18.7 -4.7C-19.6 -9.1 -18.2 -14.5 -14.6 -16C-11.1 -17.5 -5.6 -15.2 0.5 -15.7C6.5 -16.3 13 -19.7 15.1 -18Z" stroke="#4f5248" fill="none" stroke-width="3"></path></g><g transform="translate(636 271)"><path d="M26.5 -31.4C35.1 -24.3 43.5 -16.7 50.3 -4.9C57.2 7 62.6 23.1 55.7 29.4C48.8 35.7 29.6 32.1 15.1 34.3C0.6 36.5 -9.3 44.5 -15.4 42.3C-21.6 40.1 -24.2 27.8 -30.9 17.3C-37.7 6.8 -48.7 -1.9 -48.6 -9.6C-48.4 -17.3 -37.1 -24 -27.2 -30.8C-17.2 -37.6 -8.6 -44.5 0.2 -44.7C8.9 -44.9 17.8 -38.4 26.5 -31.4Z" stroke="#4f5248" fill="none" stroke-width="3"></path></g></g></svg>