<svg id="visual" viewBox="0 0 900 675" width="900" height="675" xmlns="http://www.w3.org/2000/svg" xmlns:xlink="http://www.w3.org/1999/xlink" version="1.1"><g><g transform="translate(652 343)"><path d="M58 -63.9C75.6 -54.4 90.5 -36.5 94.1 -16.5C97.7 3.5 90.1 25.5 75.3 36.3C60.5 47 38.6 46.4 20.5 50.5C2.5 54.5 -11.8 63 -28.2 63.2C-44.6 63.4 -63.1 55.3 -74 40.6C-85 26 -88.4 4.9 -81.3 -10.7C-74.3 -26.4 -56.7 -36.5 -41.4 -46.4C-26.1 -56.3 -13.1 -66 3.6 -70.2C20.2 -74.5 40.4 -73.4 58 -63.9Z" fill="none" stroke="#4f5248" stroke-width="3"></path></g><g transform="translate(478 590)"><path d="M32.9 -40.5C38 -34.9 34.3 -20.2 33.4 -8.4C32.5 3.4 34.5 12.2 33.6 24.8C32.8 37.3 29.1 53.7 19.8 59.1C10.5 64.5 -4.5 59 -18 52.7C-31.5 46.4 -43.5 39.2 -50.7 28.4C-57.9 17.7 -60.2 3.3 -56.5 -8.6C-52.7 -20.5 -42.9 -29.9 -32.5 -34.6C-22 -39.2 -11 -39 1.4 -40.7C13.9 -42.4 27.8 -46 32.9 -40.5Z" fill="none" stroke="#4f5248" stroke-width="3"></path></g><g transform="translate(263 254)"><path d="M37.8 -46.8C46.4 -37.7 49.2 -23.4 48.1 -11.2C47 1 42 11.2 35.3 18C28.5 24.9 20.1 28.4 10.7 33.5C1.4 38.7 -8.8 45.5 -19 44.9C-29.1 44.3 -39.1 36.4 -44.8 26.1C-50.4 15.8 -51.7 3.2 -48.1 -7C-44.5 -17.2 -36 -25 -27.2 -33.9C-18.3 -42.9 -9.2 -53.1 2.7 -56.3C14.6 -59.5 29.1 -55.8 37.8 -46.8Z" fill="none" stroke="#4f5248" stroke-width="3"></path></g><g transform="translate(233 555)"><path d="M25.1 -23.4C36.8 -20.2 53.5 -16.3 61.6 -5.6C69.7 5 69.4 22.4 59.7 30.1C50.1 37.8 31.2 35.8 16.9 36.9C2.6 38 -7.2 42.3 -14 39.4C-20.9 36.6 -24.9 26.6 -30.1 17.4C-35.3 8.3 -41.7 -0.1 -43.5 -10.8C-45.4 -21.5 -42.7 -34.6 -34.7 -38.5C-26.7 -42.4 -13.3 -37.2 -3.3 -33.3C6.7 -29.3 13.5 -26.7 25.1 -23.4Z" fill="none" stroke="#4f5248" stroke-width="3"></path></g><g transform="translate(868 665)"><path d="M11.2 -14.7C15 -10.1 19.1 -7.1 22.6 -1.8C26.1 3.4 29 10.9 26.6 15.5C24.2 20.1 16.3 21.7 10.1 21.2C3.8 20.7 -0.9 18.1 -7.6 17.2C-14.3 16.4 -22.9 17.3 -25.5 14.1C-28.1 10.9 -24.7 3.6 -22.4 -3C-20.1 -9.6 -19 -15.5 -15.5 -20.2C-12 -24.8 -6 -28.3 -1.2 -26.9C3.7 -25.5 7.3 -19.3 11.2 -14.7Z" fill="none" stroke="#4f5248" stroke-width="3"></path></g><g transform="translate(842 91)"><path d="M38.3 -41.4C51.6 -34.5 65.5 -24.3 69.7 -10.8C73.9 2.7 68.3 19.4 58.5 31.2C48.7 43.1 34.7 49.9 19.8 56.1C4.9 62.3 -10.9 67.8 -25.4 64.7C-39.9 61.6 -53.2 50 -63.3 35.2C-73.5 20.4 -80.6 2.5 -76.2 -11.9C-71.8 -26.2 -56 -37 -41.4 -43.7C-26.8 -50.3 -13.4 -52.8 -0.4 -52.2C12.5 -51.7 25.1 -48.3 38.3 -41.4Z" fill="none" stroke="#4f5248" stroke-width="3"></path></g><g transform="translate(522 113)"><path d="M18.4 -24.7C22.6 -18.4 23.9 -11.4 25.3 -4.3C26.8 2.8 28.4 10.1 26.4 17C24.5 24 19 30.7 12.1 33.2C5.1 35.7 -3.3 34.1 -8.2 29.3C-13 24.6 -14.2 16.8 -15.2 10.8C-16.1 4.9 -16.7 0.9 -17 -4C-17.3 -8.9 -17.2 -14.7 -14.3 -21.2C-11.4 -27.7 -5.7 -35 0.7 -35.8C7.1 -36.6 14.2 -31 18.4 -24.7Z" fill="none" stroke="#4f5248" stroke-width="3"></path></g><g transform="translate(23 247)"><path d="M26.8 -28.9C36.1 -24.2 45.7 -17 49.1 -7.2C52.5 2.5 49.7 14.8 43.6 25.1C37.6 35.5 28.3 44 18.7 44.6C9.1 45.1 -1 37.7 -9 31.8C-17 25.8 -23.1 21.3 -30.3 14.6C-37.6 8 -46.2 -0.9 -45 -8C-43.8 -15.1 -32.8 -20.6 -23.7 -25.3C-14.6 -29.9 -7.3 -33.8 0.8 -34.7C8.8 -35.6 17.6 -33.5 26.8 -28.9Z" fill="none" stroke="#4f5248" stroke-width="3"></path></g><g transform="translate(5 555)"><path d="M13.2 -15.5C16.7 -12.9 18.7 -8.3 19.4 -3.6C20 1.1 19.2 5.9 17.1 10.2C15 14.6 11.6 18.6 7.8 18.9C4 19.1 -0.2 15.6 -3.4 12.9C-6.7 10.2 -9.1 8.4 -12.1 5.7C-15.1 3.1 -18.8 -0.4 -20.2 -5.5C-21.6 -10.6 -20.8 -17.2 -17.1 -19.8C-13.3 -22.4 -6.7 -20.9 -0.9 -19.9C4.9 -18.8 9.8 -18.1 13.2 -15.5Z" fill="none" stroke="#4f5248" stroke-width="3"></path></g><g transform="translate(895 388)"><path d="M37.7 -44.6C50.1 -34.5 62.3 -23.8 65.3 -10.9C68.3 2 62.1 17.1 54.1 31.5C46.1 45.8 36.3 59.3 22.5 66.4C8.6 73.5 -9.3 74.1 -24.1 68C-38.8 61.8 -50.4 48.8 -52.1 35.2C-53.8 21.7 -45.6 7.5 -39.9 -3.9C-34.1 -15.3 -30.8 -24 -24.5 -35.2C-18.3 -46.5 -9.1 -60.2 1.7 -62.3C12.6 -64.4 25.3 -54.8 37.7 -44.6Z" fill="none" stroke="#4f5248" stroke-width="3"></path></g><g transform="translate(176 29)"><path d="M17.8 -19.2C23.2 -16.6 28 -11.2 28.3 -5.5C28.7 0.1 24.6 6 21 11.8C17.3 17.7 14 23.5 9.3 24.8C4.7 26.2 -1.3 23 -6.6 20.2C-12 17.4 -16.8 14.9 -20.6 10.7C-24.4 6.5 -27.2 0.6 -26.4 -4.7C-25.5 -10.1 -21.1 -14.9 -16.1 -17.6C-11 -20.3 -5.5 -20.8 0.3 -21.2C6.2 -21.6 12.3 -21.8 17.8 -19.2Z" fill="none" stroke="#4f5248" stroke-width="3"></path></g></g></svg>