<svg id="visual" viewBox="0 0 900 675" width="900" height="675" xmlns="http://www.w3.org/2000/svg" xmlns:xlink="http://www.w3.org/1999/xlink" version="1.1"><g><g transform="translate(97 411)"><path d="M37.7 -44.2C48 -36.3 54.8 -23.6 54.6 -11.6C54.4 0.4 47.1 11.7 42.7 29.6C38.3 47.5 36.7 72.1 24.9 82.6C13 93.1 -9.1 89.5 -28.6 81.3C-48.1 73 -64.9 60.1 -70.4 43.9C-75.8 27.7 -69.9 8.2 -64.4 -9.3C-58.8 -26.7 -53.6 -42.2 -42.9 -50C-32.3 -57.8 -16.1 -57.9 -1.2 -56.5C13.7 -55 27.4 -52 37.7 -44.2Z" fill="#f1984f"></path></g><g transform="translate(683 462)"><path d="M24.7 -26.1C31.9 -23.4 37.5 -15.5 38.6 -7.1C39.8 1.3 36.5 10.2 30.8 15.5C25 20.8 16.9 22.5 9.1 25.7C1.2 28.9 -6.4 33.6 -11.8 31.9C-17.2 30.1 -20.4 21.9 -20.8 15C-21.2 8.1 -18.8 2.6 -16.7 -1.9C-14.6 -6.4 -12.9 -9.9 -10.2 -13.3C-7.5 -16.8 -3.7 -20.2 2.5 -23.2C8.8 -26.2 17.5 -28.7 24.7 -26.1Z" fill="#f1984f"></path></g><g transform="translate(740 182)"><path d="M29.6 -33.4C37.5 -28.6 42.5 -18.5 42.5 -8.9C42.5 0.6 37.3 9.6 31 15.3C24.6 21.1 17 23.5 9.7 26C2.3 28.4 -4.9 30.7 -10.7 28.8C-16.5 26.9 -20.9 20.8 -30.2 13.3C-39.4 5.8 -53.5 -3.1 -54.8 -12.1C-56.1 -21.2 -44.7 -30.4 -33.4 -34.7C-22.2 -38.9 -11.1 -38.2 -0.1 -38C10.8 -37.9 21.6 -38.3 29.6 -33.4Z" fill="#f1984f"></path></g><g transform="translate(377 301)"><path d="M25.2 -30.5C31.2 -25 33.7 -15.7 33.5 -7.3C33.3 1 30.4 8.4 26 14.2C21.7 19.9 16 24 9.3 27.1C2.6 30.3 -5 32.5 -11.6 30.6C-18.3 28.8 -23.9 22.9 -27 16.2C-30.2 9.5 -30.8 2 -30.5 -6.4C-30.2 -14.8 -29.1 -24 -23.8 -29.7C-18.6 -35.4 -9.3 -37.6 0.1 -37.7C9.6 -37.9 19.2 -36.1 25.2 -30.5Z" fill="#f1984f"></path></g><g transform="translate(107 160)"><path d="M16.2 -19.1C22.9 -13.7 31.6 -10.4 33.3 -5.2C35.1 0 29.9 7.2 24.9 13C19.9 18.8 15 23.3 9.7 24.3C4.3 25.3 -1.5 22.8 -8.4 21.1C-15.2 19.4 -23 18.6 -25.4 14.6C-27.8 10.6 -24.7 3.4 -21.4 -1.8C-18.2 -7 -14.7 -10.2 -11.1 -16.2C-7.5 -22.2 -3.8 -31 0.5 -31.6C4.7 -32.2 9.5 -24.6 16.2 -19.1Z" fill="#f1984f"></path></g><g transform="translate(438 569)"><path d="M23.2 -28.5C31 -21.1 39 -14.7 46.4 -3.6C53.9 7.6 60.9 23.4 57 35.4C53 47.4 38.1 55.7 24.1 56.7C10 57.7 -3.2 51.4 -16.8 46.4C-30.5 41.4 -44.5 37.6 -52.3 28.2C-60 18.8 -61.5 3.9 -60.8 -12.6C-60.2 -29.1 -57.4 -47.1 -46.9 -54.1C-36.5 -61 -18.2 -56.8 -5.3 -50.5C7.7 -44.2 15.4 -35.9 23.2 -28.5Z" fill="#f1984f"></path></g><g transform="translate(899 378)"><path d="M17.2 -20.6C22.6 -16 27.4 -10.8 28.2 -5.1C29 0.6 25.9 6.9 22.9 14.3C19.9 21.7 17 30.2 11.7 32.2C6.4 34.2 -1.4 29.6 -9.7 26.6C-18 23.6 -27 22.2 -34.8 16.3C-42.6 10.5 -49.4 0.3 -48 -8.6C-46.7 -17.6 -37.2 -25.3 -27.8 -29.2C-18.4 -33.1 -9.2 -33.1 -1.7 -31.2C5.9 -29.2 11.8 -25.2 17.2 -20.6Z" fill="#f1984f"></path></g><g transform="translate(336 76)"><path d="M14.3 -17C19.7 -12.5 26.1 -9.1 28.6 -3.7C31.2 1.7 30 9.2 25.6 13.1C21.3 17 13.9 17.5 7.6 18.9C1.3 20.3 -3.9 22.6 -7.6 21.1C-11.4 19.7 -13.7 14.5 -18.6 9.2C-23.6 3.9 -31.2 -1.5 -30.8 -5.7C-30.3 -9.8 -21.8 -12.8 -15.3 -17.1C-8.8 -21.4 -4.4 -27.1 0 -27.1C4.5 -27.2 8.9 -21.5 14.3 -17Z" fill="#f1984f"></path></g><g transform="translate(227 670)"><path d="M16.6 -22.1C21.4 -15.8 25 -10.4 27.2 -3.9C29.5 2.7 30.4 10.4 27.6 16.5C24.8 22.7 18.2 27.3 9.7 33.1C1.3 39 -9 46.1 -16.8 44.1C-24.5 42.2 -29.6 31.1 -32.1 21.2C-34.6 11.3 -34.5 2.6 -34.6 -7.7C-34.7 -18.1 -35.1 -30.2 -29.3 -36.3C-23.6 -42.4 -11.8 -42.5 -2.9 -39C5.9 -35.5 11.8 -28.3 16.6 -22.1Z" fill="#f1984f"></path></g><g transform="translate(611 4)"><path d="M48 -62.7C54.6 -51.7 47.2 -29.3 49 -9.9C50.9 9.5 62.2 25.9 60.5 40.8C58.9 55.7 44.4 68.9 29 70.7C13.5 72.4 -2.9 62.7 -18.3 55C-33.7 47.4 -48.2 41.8 -55.7 31.1C-63.1 20.3 -63.6 4.5 -61.1 -10.9C-58.5 -26.3 -52.9 -41.4 -42.2 -51.7C-31.5 -62 -15.8 -67.6 2.5 -70.5C20.7 -73.4 41.4 -73.7 48 -62.7Z" fill="#f1984f"></path></g><g transform="translate(889 610)"><path d="M20.8 -24C28.5 -18.3 37.4 -13.2 37.1 -7.6C36.7 -2 27.3 4.1 21.6 11.1C15.9 18.1 14.1 25.8 9 30C3.9 34.2 -4.5 34.8 -12.8 32.8C-21.1 30.9 -29.3 26.2 -31.6 19.5C-33.9 12.8 -30.3 4.1 -28.7 -5.1C-27.2 -14.3 -27.7 -23.9 -23.2 -30.1C-18.8 -36.4 -9.4 -39.1 -1.4 -37.5C6.6 -35.8 13.1 -29.6 20.8 -24Z" fill="#f1984f"></path></g><g transform="translate(897 11)"><path d="M17 -19.5C24.4 -14 34.5 -11 38.1 -4.7C41.6 1.6 38.7 11.1 34 20.1C29.4 29.1 23.1 37.7 14.7 41.1C6.2 44.4 -4.3 42.7 -14.1 39C-23.8 35.3 -32.7 29.7 -37.9 21.5C-43.1 13.3 -44.5 2.6 -41.5 -6.1C-38.5 -14.7 -30.9 -21.3 -23.3 -26.7C-15.6 -32.2 -7.8 -36.5 -1.5 -34.7C4.8 -32.9 9.6 -25 17 -19.5Z" fill="#f1984f"></path></g><g transform="translate(12 620)"><path d="M20.6 -27.1C26 -19.9 29.4 -12.9 31.6 -4.9C33.8 3 34.8 11.9 31.9 19.8C29 27.7 22.1 34.8 14.8 35.1C7.4 35.3 -0.4 28.9 -8 24.9C-15.7 20.8 -23.2 19.3 -30.1 14.1C-37 8.9 -43.4 0 -42.2 -7.5C-40.9 -15.1 -32 -21.3 -23.7 -28C-15.4 -34.7 -7.7 -41.9 -0.1 -41.8C7.6 -41.7 15.1 -34.3 20.6 -27.1Z" fill="#f1984f"></path></g></g></svg>