<svg id="visual" viewBox="0 0 900 600" width="900" height="600" xmlns="http://www.w3.org/2000/svg" xmlns:xlink="http://www.w3.org/1999/xlink" version="1.1"><g><g transform="translate(404 416)"><path d="M25 -27C31.8 -24 36.5 -15.6 40.1 -5.5C43.8 4.6 46.4 16.4 43 27.2C39.6 38 30.2 47.6 21.1 45.7C11.9 43.7 2.9 30.2 -7.5 24.6C-17.9 19.1 -29.8 21.6 -32.9 18.1C-35.9 14.6 -30.1 5.2 -29.8 -6.8C-29.5 -18.7 -34.7 -33.1 -30.6 -36.6C-26.6 -40 -13.3 -32.5 -2.1 -30C9.1 -27.5 18.1 -29.9 25 -27Z" fill="#F7760E"></path></g><g transform="translate(289 15)"><path d="M23 -21.9C32.8 -19.1 46 -14.8 50.6 -6.3C55.3 2.2 51.4 14.8 43 20.4C34.5 26 21.4 24.5 10.6 27.9C-0.2 31.3 -8.9 39.6 -18.9 40.8C-29 42 -40.5 36 -43.5 27C-46.6 17.9 -41.2 5.8 -37.7 -5.3C-34.1 -16.4 -32.4 -26.5 -26.4 -29.9C-20.4 -33.3 -10.2 -30.1 -1.8 -27.9C6.6 -25.8 13.1 -24.6 23 -21.9Z" fill="#F7760E"></path></g><g transform="translate(66 40)"><path d="M31.4 -31.6C39.9 -30.3 45.4 -19.6 47.3 -8.4C49.2 2.8 47.6 14.7 40.1 18.9C32.6 23.1 19.3 19.8 10.1 19.7C0.9 19.6 -4.3 22.7 -11 23.3C-17.7 23.8 -26 21.8 -31.3 16.3C-36.5 10.8 -38.7 1.8 -37.7 -7.1C-36.7 -16.1 -32.5 -24.9 -25.7 -26.6C-18.9 -28.2 -9.5 -22.7 1 -23.8C11.4 -25 22.9 -33 31.4 -31.6Z" fill="#F7760E"></path></g><g transform="translate(535 253)"><path d="M22.6 -29.9C27.9 -22.5 29.8 -14 28.3 -7.3C26.7 -0.5 21.8 4.6 17.5 8.2C13.1 11.7 9.4 13.7 4.1 19.2C-1.3 24.6 -8.4 33.5 -12.8 32.9C-17.3 32.3 -19.2 22.2 -25.1 13.7C-31 5.1 -41 -1.9 -41.4 -8.7C-41.9 -15.4 -32.8 -21.9 -24.3 -28.8C-15.8 -35.6 -7.9 -42.9 0.4 -43.4C8.6 -43.8 17.3 -37.4 22.6 -29.9Z" fill="#F7760E"></path></g><g transform="translate(738 437)"><path d="M13.7 -16.8C21.2 -10 33 -9 36.1 -4.4C39.2 0.1 33.6 8.1 27.9 14.4C22.3 20.7 16.6 25.3 10.2 27.2C3.9 29.2 -3.1 28.4 -11.7 27.4C-20.4 26.4 -30.7 25 -36.9 19C-43.1 13 -45.2 2.3 -42.6 -6.7C-40 -15.7 -32.8 -23 -24.9 -29.7C-17 -36.4 -8.5 -42.3 -2.7 -39.1C3.1 -35.9 6.2 -23.5 13.7 -16.8Z" fill="#F7760E"></path></g><g transform="translate(211 136)"><path d="M23.9 -34.8C26.6 -26.2 21.4 -14.5 22.9 -4.3C24.4 6 32.7 14.8 32 20.9C31.4 27 21.8 30.3 12.7 32.6C3.6 34.9 -5 36.1 -14.9 35C-24.8 33.9 -36 30.6 -43.3 22.7C-50.5 14.8 -53.9 2.3 -48.6 -5.2C-43.3 -12.8 -29.2 -15.5 -19.7 -22.8C-10.1 -30.2 -5.1 -42.2 2.8 -45.5C10.6 -48.8 21.2 -43.4 23.9 -34.8Z" fill="#F7760E"></path></g><g transform="translate(486 59)"><path d="M28.7 -38.1C34.3 -29.6 33.7 -17.7 35.1 -6.6C36.6 4.5 40.2 14.9 37.1 22.4C34 30 24.1 34.7 14.6 36.6C5.1 38.6 -4.2 37.8 -12.8 34.9C-21.5 31.9 -29.5 26.8 -32.4 19.7C-35.3 12.6 -33.2 3.6 -32.5 -6.6C-31.8 -16.9 -32.5 -28.2 -27.3 -36.7C-22.2 -45.2 -11.1 -50.8 0.3 -51.1C11.6 -51.5 23.2 -46.5 28.7 -38.1Z" fill="#F7760E"></path></g><g transform="translate(835 567)"><path d="M25.4 -31.6C28.1 -28 22.1 -15.4 22.3 -5.2C22.5 4.9 29 12.7 28 17.8C27 22.9 18.6 25.4 11.8 24.4C5 23.4 -0.2 19 -5.5 16.5C-10.9 14 -16.5 13.4 -24.2 9.4C-31.9 5.5 -41.8 -1.8 -39.8 -6C-37.8 -10.1 -24 -11.1 -15.4 -13.7C-6.8 -16.2 -3.4 -20.4 4 -25.1C11.4 -29.9 22.7 -35.2 25.4 -31.6Z" fill="#F7760E"></path></g><g transform="translate(592 424)"><path d="M21.4 -26.2C28.5 -19.5 35.6 -13.5 36.9 -6.4C38.3 0.7 33.9 8.9 29.5 17.5C25.1 26.1 20.6 35.2 13.3 39C5.9 42.7 -4.3 41.2 -11.5 36.5C-18.8 31.7 -23.1 23.8 -28.7 15.8C-34.2 7.8 -40.9 -0.3 -39.7 -7C-38.5 -13.6 -29.3 -18.8 -21.4 -25.4C-13.5 -31.9 -6.7 -39.9 0.2 -40.1C7.1 -40.3 14.3 -32.9 21.4 -26.2Z" fill="#F7760E"></path></g><g transform="translate(730 138)"><path d="M23.5 -26.7C30.8 -21.8 37.3 -14.8 41 -5.5C44.7 3.8 45.5 15.3 41.1 24.4C36.6 33.6 26.9 40.4 16.7 42.8C6.5 45.2 -4.2 43.2 -10 37C-15.8 30.8 -16.7 20.5 -21.7 12.3C-26.8 4.1 -36 -1.9 -38.3 -9.9C-40.6 -17.8 -36 -27.6 -28.4 -32.4C-20.9 -37.2 -10.4 -37 -1.2 -35.6C8.1 -34.2 16.2 -31.5 23.5 -26.7Z" fill="#F7760E"></path></g><g transform="translate(379 174)"><path d="M11.1 -17.1C14 -10.9 15.6 -6.9 19.7 -0.9C23.8 5.1 30.4 13.2 30 20.5C29.6 27.7 22.1 34.1 14.4 34.9C6.6 35.8 -1.5 31.1 -8.1 26.7C-14.8 22.4 -20 18.5 -26.2 12.7C-32.4 7 -39.6 -0.7 -38.3 -6.5C-37 -12.4 -27.2 -16.6 -19.4 -21.9C-11.6 -27.3 -5.8 -33.8 -0.8 -32.8C4.1 -31.8 8.3 -23.3 11.1 -17.1Z" fill="#F7760E"></path></g><g transform="translate(81 340)"><path d="M14.4 -20.7C18.4 -13.8 21.1 -9 22.3 -3.7C23.5 1.6 23.3 7.4 22.1 15.9C21 24.4 19 35.5 13 39.4C6.9 43.2 -3.1 39.6 -9 33.6C-14.9 27.6 -16.6 19.1 -17.2 12.5C-17.8 6 -17.4 1.5 -18.8 -5.5C-20.2 -12.5 -23.3 -22 -20.5 -29.1C-17.7 -36.2 -8.8 -40.8 -1.8 -38.7C5.2 -36.5 10.4 -27.6 14.4 -20.7Z" fill="#F7760E"></path></g><g transform="translate(183 468)"><path d="M24.1 -29.5C31 -22.9 36.3 -15.1 38.3 -6.4C40.2 2.3 38.8 11.9 34.2 19.6C29.6 27.4 21.9 33.1 14.3 33.3C6.7 33.4 -0.8 28 -11.2 26.2C-21.6 24.4 -35 26.2 -40 21.3C-45 16.4 -41.5 4.8 -37.4 -4.6C-33.4 -14 -28.7 -21.3 -22.4 -28C-16 -34.7 -8 -40.8 0.3 -41.2C8.6 -41.5 17.1 -36.1 24.1 -29.5Z" fill="#F7760E"></path></g><g transform="translate(363 599)"><path d="M21 -26.4C27.7 -19.4 34 -13.3 36.8 -5.3C39.7 2.7 39.2 12.5 34.2 18.3C29.2 24.1 19.6 26 12 25.5C4.4 25 -1.4 22.3 -6.6 19.7C-11.8 17.1 -16.4 14.6 -18.9 10.7C-21.3 6.8 -21.6 1.5 -19.8 -2.6C-18 -6.7 -14.2 -9.5 -10.6 -17C-6.9 -24.5 -3.5 -36.5 1.9 -38.8C7.2 -41 14.3 -33.3 21 -26.4Z" fill="#F7760E"></path></g><g transform="translate(828 36)"><path d="M30.2 -32.5C38.2 -29.3 43 -18.9 44.9 -7.9C46.7 3 45.7 14.4 39.8 21.3C33.8 28.2 22.9 30.6 14.2 29.8C5.4 29 -1.1 25 -7.9 22.3C-14.7 19.6 -21.8 18.1 -25.1 13.8C-28.4 9.5 -27.9 2.3 -29.6 -8.2C-31.2 -18.6 -35 -32.4 -30.4 -36.3C-25.9 -40.1 -12.9 -33.9 -0.9 -32.8C11.1 -31.7 22.2 -35.7 30.2 -32.5Z" fill="#F7760E"></path></g><g transform="translate(56 210)"><path d="M25.6 -30.2C32.9 -24.3 38.4 -16 40.8 -6.6C43.3 2.9 42.6 13.6 36.9 19.3C31.2 25.1 20.5 25.9 11.3 27.9C2.1 29.9 -5.6 33.1 -11.4 31.1C-17.1 29 -21 21.7 -27.1 14.2C-33.1 6.7 -41.3 -1 -43.6 -11.1C-45.9 -21.1 -42.2 -33.6 -34 -39.3C-25.7 -45 -12.9 -44 -1.9 -41.8C9.1 -39.6 18.2 -36.1 25.6 -30.2Z" fill="#F7760E"></path></g><g transform="translate(881 350)"><path d="M19.9 -24.8C22 -21.9 17.3 -12.1 15.1 -5.5C12.9 1.1 13.1 4.4 13.1 10.5C13.1 16.7 12.8 25.6 9.5 27.3C6.2 28.9 -0.2 23.4 -7.4 20.6C-14.6 17.8 -22.7 17.8 -26 14.1C-29.2 10.3 -27.6 2.9 -26.1 -4.4C-24.7 -11.7 -23.3 -18.9 -18.9 -21.4C-14.6 -23.9 -7.3 -21.7 0.8 -22.6C8.9 -23.6 17.8 -27.7 19.9 -24.8Z" fill="#F7760E"></path></g><g transform="translate(578 559)"><path d="M18.4 -21.1C25.4 -16.2 33.5 -11.7 37.1 -4.5C40.8 2.7 40 12.7 34.9 18.9C29.9 25.2 20.4 27.8 11.4 30.8C2.4 33.8 -6.2 37.2 -11.6 34.2C-17 31.2 -19.2 21.8 -24.6 13.6C-30.1 5.5 -38.7 -1.4 -37.9 -6.8C-37.1 -12.3 -27 -16.2 -19.1 -21C-11.2 -25.8 -5.6 -31.5 0.1 -31.6C5.8 -31.6 11.5 -26.1 18.4 -21.1Z" fill="#F7760E"></path></g><g transform="translate(619 21)"><path d="M31 -36.5C40.8 -28.7 49.8 -19.5 49.1 -10.6C48.4 -1.6 38.1 7.2 31.1 16.8C24.2 26.5 20.7 37 14.2 39.5C7.8 42 -1.8 36.5 -7.4 30.2C-13.1 23.9 -14.9 16.7 -18.7 10.6C-22.5 4.4 -28.4 -0.8 -29.6 -7.1C-30.7 -13.3 -27 -20.6 -21.3 -29.1C-15.6 -37.6 -7.8 -47.5 1.4 -49.1C10.6 -50.8 21.2 -44.3 31 -36.5Z" fill="#F7760E"></path></g><g transform="translate(268 287)"><path d="M15.1 -20.1C20.8 -13.3 27.4 -9.6 29.9 -4C32.4 1.6 30.9 9.3 26.8 14.7C22.7 20 16.1 23.1 8.8 27.1C1.4 31.1 -6.8 36.1 -10.5 33C-14.3 29.8 -13.6 18.6 -17.4 10.7C-21.3 2.7 -29.6 -2 -31 -7.4C-32.4 -12.9 -26.8 -19.1 -20.5 -25.8C-14.2 -32.4 -7.1 -39.5 -1.2 -38.1C4.7 -36.7 9.5 -26.8 15.1 -20.1Z" fill="#F7760E"></path></g><g transform="translate(41 470)"><path d="M24.6 -30.8C32.6 -22.6 40.3 -15.5 43.4 -6.4C46.5 2.8 45.1 14 39 20.6C32.9 27.2 22.1 29.2 11.3 34.6C0.5 40.1 -10.3 49 -16.3 46.2C-22.2 43.3 -23.4 28.7 -27.5 17.7C-31.7 6.7 -38.8 -0.7 -39.7 -8.9C-40.5 -17.2 -35.1 -26.3 -27.5 -34.5C-19.8 -42.7 -9.9 -50 -0.8 -49.1C8.3 -48.1 16.6 -38.9 24.6 -30.8Z" fill="#F7760E"></path></g><g transform="translate(706 301)"><path d="M19.7 -23.9C23.3 -20.5 22.3 -12.1 22.5 -4.8C22.8 2.5 24.4 8.7 21.7 11.8C19.1 14.9 12.2 14.7 5.5 18.8C-1.2 22.9 -7.8 31.2 -11.5 30.4C-15.3 29.6 -16.2 19.7 -21 11.9C-25.7 4.1 -34.3 -1.7 -35 -7.6C-35.6 -13.4 -28.3 -19.2 -21.1 -21.9C-14 -24.6 -7 -24.2 0.6 -24.9C8.1 -25.6 16.2 -27.2 19.7 -23.9Z" fill="#F7760E"></path></g><g transform="translate(869 173)"><path d="M25.1 -24.4C33 -23.2 40.4 -15.8 40.7 -8.1C41 -0.3 34.4 7.8 29.4 17.4C24.4 26.9 21.1 37.9 15.3 38.3C9.6 38.8 1.4 28.7 -6.3 23.3C-14.1 17.9 -21.4 17.3 -24.5 13.4C-27.5 9.6 -26.1 2.6 -26 -5.7C-25.9 -14 -26.9 -23.7 -22.8 -25.5C-18.7 -27.4 -9.3 -21.4 -0.4 -20.9C8.6 -20.4 17.1 -25.5 25.1 -24.4Z" fill="#F7760E"></path></g><g transform="translate(96 594)"><path d="M17 -20.4C20.4 -17.4 20.3 -10.5 24 -2.3C27.8 5.8 35.2 15.3 33.7 20.9C32.2 26.6 21.6 28.5 12.3 30.4C3 32.3 -5.1 34.2 -13.1 32.7C-21.1 31.2 -29.2 26.3 -31 19.6C-32.8 12.9 -28.4 4.3 -26.4 -4.2C-24.4 -12.8 -24.7 -21.3 -20.7 -24.2C-16.7 -27.1 -8.4 -24.3 -0.8 -23.4C6.8 -22.5 13.6 -23.4 17 -20.4Z" fill="#F7760E"></path></g></g></svg>