<svg id="visual" viewBox="0 0 900 675" width="900" height="675" xmlns="http://www.w3.org/2000/svg" xmlns:xlink="http://www.w3.org/1999/xlink" version="1.1"><g><g transform="translate(695 296)"><path d="M50 -51.6C64.9 -47.1 77 -31.4 81.5 -13.3C85.9 4.8 82.7 25.3 70.7 36C58.8 46.6 38.2 47.4 21.8 48.2C5.5 49 -6.5 49.9 -24.1 50.4C-41.7 50.8 -64.8 50.8 -76.5 39.7C-88.2 28.7 -88.4 6.5 -80.6 -10.1C-72.7 -26.7 -56.9 -37.8 -42.1 -42.3C-27.4 -46.9 -13.7 -44.8 1.9 -47.1C17.6 -49.4 35.2 -56.1 50 -51.6Z" fill="none" stroke="#4f5248" stroke-width="3"></path></g><g transform="translate(722 600)"><path d="M16.7 -20.1C21.1 -16.3 23.6 -10.4 24.2 -4.6C24.8 1.2 23.6 7.1 20.3 10.7C17 14.4 11.7 15.9 7.1 16.2C2.4 16.5 -1.5 15.6 -4.3 13.7C-7.1 11.8 -8.9 9 -10.7 6.1C-12.4 3.2 -14.2 0.2 -15.3 -4.3C-16.4 -8.7 -16.8 -14.6 -14.1 -18.7C-11.5 -22.8 -5.7 -25.1 0.2 -25.4C6.2 -25.6 12.4 -23.9 16.7 -20.1Z" fill="none" stroke="#4f5248" stroke-width="3"></path></g><g transform="translate(53 276)"><path d="M22 -24.8C28 -21.1 32.1 -13.7 30.7 -7.5C29.4 -1.2 22.5 3.9 19.2 12.4C15.8 20.8 16 32.5 11.6 35.9C7.2 39.2 -1.7 34.2 -10.1 30.1C-18.4 26 -26.3 22.8 -28.6 17.3C-30.9 11.7 -27.8 3.7 -27.2 -5.7C-26.7 -15.1 -28.7 -25.9 -24.6 -29.9C-20.5 -33.9 -10.3 -31.2 -1.2 -29.8C8 -28.4 15.9 -28.4 22 -24.8Z" fill="none" stroke="#4f5248" stroke-width="3"></path></g><g transform="translate(893 15)"><path d="M25.8 -29.8C35.5 -22.7 46.7 -16.4 49.3 -7.8C51.9 0.9 46 12 39.2 21.4C32.3 30.8 24.5 38.4 16.4 38.6C8.3 38.7 -0.2 31.4 -8.1 26.6C-16 21.9 -23.2 19.7 -30.9 14.1C-38.6 8.5 -46.7 -0.6 -45.8 -8.5C-44.8 -16.4 -34.9 -23.1 -25.8 -30.3C-16.6 -37.5 -8.3 -45.2 -0.1 -45C8.1 -44.9 16.2 -36.9 25.8 -29.8Z" fill="none" stroke="#4f5248" stroke-width="3"></path></g><g transform="translate(207 20)"><path d="M13.4 -15.7C18.3 -11.7 24.1 -8.5 27.5 -2.9C30.9 2.8 31.8 10.8 28.5 16.4C25.2 22 17.7 25 11.3 24.6C4.9 24.2 -0.5 20.2 -7.1 18.3C-13.7 16.4 -21.4 16.6 -27.5 12.7C-33.6 8.7 -38 0.6 -37.8 -7.8C-37.6 -16.1 -32.9 -24.8 -25.8 -28.4C-18.7 -31.9 -9.4 -30.4 -2.6 -27.3C4.2 -24.2 8.4 -19.6 13.4 -15.7Z" fill="none" stroke="#4f5248" stroke-width="3"></path></g><g transform="translate(635 15)"><path d="M24.4 -37.1C30.5 -24 33.5 -15.2 40.3 -3.2C47.1 8.9 57.8 24.2 53.8 31C49.8 37.8 31.2 36.1 17.8 35C4.4 33.8 -3.7 33.1 -11.3 30.6C-18.9 28 -26 23.5 -31.8 16.8C-37.6 10 -42.3 0.8 -44.9 -12.1C-47.6 -25 -48.3 -41.7 -40.5 -54.5C-32.7 -67.3 -16.3 -76.1 -3.6 -71.8C9.2 -67.5 18.3 -50.2 24.4 -37.1Z" fill="none" stroke="#4f5248" stroke-width="3"></path></g><g transform="translate(390 257)"><path d="M33.5 -34.9C43.3 -31.8 50.9 -21 49.2 -11.5C47.5 -1.9 36.5 6.4 29.7 16C22.8 25.6 20 36.5 12.3 43.7C4.5 50.9 -8.3 54.3 -16.6 49.6C-24.8 44.8 -28.6 31.8 -36 20.2C-43.4 8.6 -54.3 -1.4 -54.9 -11.6C-55.4 -21.8 -45.5 -32.2 -34.6 -35.1C-23.8 -38 -11.9 -33.5 0 -33.5C11.9 -33.5 23.8 -38 33.5 -34.9Z" fill="none" stroke="#4f5248" stroke-width="3"></path></g><g transform="translate(198 615)"><path d="M35.9 -38.5C50 -31 67.2 -22.9 68.2 -12.7C69.2 -2.4 54 10 44 23.6C34 37.2 29.1 52 19 58.3C8.9 64.7 -6.6 62.6 -16.3 54.7C-26 46.8 -29.9 33.2 -38.3 21C-46.7 8.8 -59.4 -2 -57.5 -9.7C-55.6 -17.4 -39.1 -22.1 -27 -30C-15 -37.8 -7.5 -48.8 1.7 -50.8C10.9 -52.9 21.8 -46 35.9 -38.5Z" fill="none" stroke="#4f5248" stroke-width="3"></path></g><g transform="translate(492 597)"><path d="M35 -45.6C44.7 -33.5 51.4 -21.9 58.9 -6.4C66.4 9.1 74.7 28.5 69.3 42C63.9 55.5 44.8 63.1 26.7 66.7C8.7 70.4 -8.4 70.1 -21.5 63.5C-34.7 56.8 -43.9 43.7 -50 30.3C-56.1 16.8 -59.1 2.9 -55.1 -8C-51.1 -18.9 -40.2 -26.8 -29.8 -38.8C-19.5 -50.7 -9.7 -66.5 1.5 -68.3C12.6 -70 25.3 -57.6 35 -45.6Z" fill="none" stroke="#4f5248" stroke-width="3"></path></g></g></svg>