<svg id="visual" viewBox="0 0 900 600" width="900" height="600" xmlns="http://www.w3.org/2000/svg" xmlns:xlink="http://www.w3.org/1999/xlink" version="1.1"><g><g transform="translate(561 440)"><path d="M16.9 -10.7C19.1 -5.9 16.2 0.9 12.6 7.6C8.9 14.3 4.5 20.9 -0.8 21.4C-6 21.8 -12 16.1 -14.1 10.2C-16.3 4.4 -14.6 -1.5 -11.6 -6.8C-8.7 -12.1 -4.3 -16.6 1.5 -17.5C7.3 -18.4 14.7 -15.5 16.9 -10.7Z" fill="#ff5500"></path></g><g transform="translate(644 36)"><path d="M13.1 -8.4C14.8 -4.6 12.6 0.7 9.7 4.7C6.9 8.7 3.4 11.4 -0.2 11.5C-3.7 11.6 -7.5 9 -9.5 5.5C-11.6 2 -11.9 -2.6 -10 -6.4C-8.2 -10.3 -4.1 -13.4 0.8 -13.9C5.7 -14.4 11.4 -12.1 13.1 -8.4Z" fill="#ff5500"></path></g><g transform="translate(187 147)"><path d="M9 -6C10.4 -2.8 9.4 1 7.5 4.5C5.6 7.9 2.8 11 -0.2 11.1C-3.3 11.3 -6.6 8.5 -8 5.3C-9.4 2.1 -9 -1.4 -7.4 -4.8C-5.8 -8.2 -2.9 -11.4 0.5 -11.7C3.8 -11.9 7.7 -9.3 9 -6Z" fill="#ff5500"></path></g><g transform="translate(664 209)"><path d="M2.1 -1.1C2.6 -0.4 2.6 0.6 2.2 1.2C1.8 1.9 0.9 2.2 0.1 2.1C-0.7 2.1 -1.3 1.6 -1.6 1C-1.9 0.4 -1.8 -0.3 -1.5 -0.9C-1.2 -1.5 -0.6 -2 0.1 -2.1C0.8 -2.2 1.7 -1.8 2.1 -1.1Z" fill="#ff5500"></path></g><g transform="translate(600 485)"><path d="M8.5 -4.8C9.6 -3 8.1 0.4 6.2 3.1C4.4 5.9 2.2 7.9 -0.2 8.1C-2.6 8.2 -5.3 6.4 -6.5 4C-7.7 1.7 -7.4 -1.2 -6.1 -3.2C-4.7 -5.2 -2.4 -6.2 0.7 -6.6C3.7 -7 7.4 -6.7 8.5 -4.8Z" fill="#ff5500"></path></g><g transform="translate(624 308)"><path d="M10.3 -5.5C12.5 -2.1 12.9 2.8 10.9 6.9C8.9 11 4.4 14.3 -0.8 14.8C-6 15.2 -12.1 12.9 -14.8 8.3C-17.6 3.8 -17.1 -2.9 -14 -6.8C-11 -10.6 -5.5 -11.7 -0.7 -11.3C4 -10.9 8.1 -8.9 10.3 -5.5Z" fill="#ff5500"></path></g><g transform="translate(125 240)"><path d="M13.9 -7.3C16.9 -2.9 17.3 3.7 14.6 8.1C11.8 12.6 5.9 14.9 0 14.9C-5.9 14.9 -11.8 12.5 -13.6 8.6C-15.3 4.7 -13 -0.7 -10.1 -5.1C-7.1 -9.4 -3.6 -12.6 1 -13.2C5.5 -13.8 11 -11.6 13.9 -7.3Z" fill="#ff5500"></path></g><g transform="translate(608 372)"><path d="M7.8 -4.3C9.6 -1.3 10.3 2.6 8.9 5.7C7.4 8.8 3.7 11.2 0.2 11.1C-3.2 10.9 -6.5 8.3 -7.7 5.3C-8.9 2.3 -8.1 -1 -6.5 -3.9C-4.9 -6.8 -2.4 -9.3 0.3 -9.4C3 -9.6 5.9 -7.4 7.8 -4.3Z" fill="#ff5500"></path></g><g transform="translate(328 358)"><path d="M11.7 -7.8C14.4 -2.2 15.2 3.5 12.9 8.7C10.6 13.9 5.3 18.6 0.2 18.5C-4.9 18.4 -9.8 13.5 -11.8 8.4C-13.8 3.4 -12.9 -1.8 -10.5 -7.3C-8 -12.8 -4 -18.7 0.3 -18.9C4.5 -19 9.1 -13.4 11.7 -7.8Z" fill="#ff5500"></path></g><g transform="translate(656 442)"><path d="M2.4 -1.6C2.9 -0.5 2.9 0.6 2.4 1.5C2 2.5 1 3.3 -0.3 3.5C-1.6 3.6 -3.1 3.2 -3.7 2.2C-4.2 1.1 -3.8 -0.4 -3 -1.6C-2.2 -2.8 -1.1 -3.8 -0.1 -3.7C1 -3.7 1.9 -2.7 2.4 -1.6Z" fill="#ff5500"></path></g><g transform="translate(86 144)"><path d="M3.1 -1.7C4 -0.2 4.8 1.5 4.2 2.6C3.7 3.8 1.8 4.4 0.1 4.3C-1.7 4.3 -3.4 3.6 -4.2 2.3C-5 1 -5 -0.9 -4.1 -2.4C-3.3 -4 -1.6 -5.1 -0.3 -4.9C1.1 -4.7 2.2 -3.3 3.1 -1.7Z" fill="#ff5500"></path></g><g transform="translate(878 152)"><path d="M10.1 -5.2C12.3 -2.1 12.6 2.7 10.6 5.8C8.6 8.9 4.3 10.4 -0.1 10.4C-4.4 10.5 -8.9 9.1 -11.1 5.8C-13.3 2.6 -13.2 -2.5 -11 -5.7C-8.8 -8.8 -4.4 -10 -0.2 -9.9C4 -9.8 8 -8.3 10.1 -5.2Z" fill="#ff5500"></path></g><g transform="translate(65 54)"><path d="M12.4 -7.2C14.7 -3.1 14.4 2.5 11.9 6C9.4 9.6 4.7 11.1 0.6 10.7C-3.5 10.4 -7.1 8.3 -8.8 5.2C-10.6 2 -10.5 -2 -8.8 -5.7C-7 -9.5 -3.5 -12.8 0.8 -13.3C5 -13.7 10.1 -11.2 12.4 -7.2Z" fill="#ff5500"></path></g><g transform="translate(384 439)"><path d="M4.8 -2.2C6.2 -0.3 7.4 2.3 6.6 4.2C5.7 6 2.9 7 0.2 6.9C-2.5 6.8 -4.9 5.5 -6.2 3.5C-7.4 1.4 -7.4 -1.4 -6.2 -3.3C-5 -5.1 -2.5 -5.8 -0.4 -5.6C1.7 -5.4 3.4 -4.2 4.8 -2.2Z" fill="#ff5500"></path></g><g transform="translate(540 382)"><path d="M17.3 -9.4C19.8 -5.5 17.6 1.7 13.9 6.3C10.3 11 5.1 13.1 0 13C-5.1 13 -10.1 10.9 -13.1 6.7C-16 2.4 -16.9 -3.9 -14.3 -7.7C-11.8 -11.6 -5.9 -12.9 0.7 -13.3C7.3 -13.7 14.7 -13.2 17.3 -9.4Z" fill="#ff5500"></path></g><g transform="translate(65 265)"><path d="M12.6 -5.7C15.6 -2.1 16.8 4.2 14.4 7.7C12 11.3 6 12.1 1 11.5C-3.9 10.9 -7.8 8.9 -9.8 5.5C-11.9 2.2 -12 -2.4 -10.1 -5.5C-8.1 -8.5 -4.1 -10 0.4 -10.2C4.8 -10.4 9.6 -9.4 12.6 -5.7Z" fill="#ff5500"></path></g><g transform="translate(72 379)"><path d="M12.2 -6.8C14.2 -3.5 13.2 1.8 10.7 6.7C8.1 11.7 4.1 16.3 -0.7 16.7C-5.5 17.1 -11 13.3 -12.9 8.7C-14.8 4.1 -13.1 -1.2 -10.4 -5C-7.6 -8.7 -3.8 -10.8 0.6 -11.2C5.1 -11.5 10.2 -10.2 12.2 -6.8Z" fill="#ff5500"></path></g><g transform="translate(453 546)"><path d="M9.7 -5.4C11.1 -3.2 9.7 0.8 7.6 3.6C5.5 6.4 2.8 8 0.3 7.9C-2.2 7.7 -4.4 5.7 -5.9 3.2C-7.5 0.7 -8.5 -2.4 -7.4 -4.4C-6.3 -6.4 -3.2 -7.3 0.5 -7.6C4.2 -7.9 8.3 -7.6 9.7 -5.4Z" fill="#ff5500"></path></g><g transform="translate(18 117)"><path d="M2 -1.2C2.4 -0.6 2.2 0.3 1.8 1C1.4 1.6 0.7 2.1 -0.2 2.2C-1 2.3 -2.1 2 -2.4 1.4C-2.8 0.7 -2.5 -0.3 -2 -1C-1.5 -1.8 -0.8 -2.2 0 -2.2C0.8 -2.2 1.7 -1.9 2 -1.2Z" fill="#ff5500"></path></g><g transform="translate(760 399)"><path d="M6.2 -3.7C7.5 -1.3 7.8 1.7 6.5 4.1C5.3 6.5 2.7 8.4 0 8.4C-2.7 8.5 -5.4 6.6 -6.7 4.1C-8 1.6 -7.9 -1.4 -6.5 -3.8C-5.2 -6.3 -2.6 -8.1 -0.1 -8C2.4 -8 4.9 -6.1 6.2 -3.7Z" fill="#ff5500"></path></g><g transform="translate(178 62)"><path d="M12.1 -7.6C15.4 -1.3 17.6 5.1 15.4 10.2C13.2 15.4 6.6 19.3 -0.5 19.7C-7.7 20 -15.3 16.6 -18.9 10.7C-22.4 4.8 -21.8 -3.7 -17.9 -10.4C-14.1 -17 -7.1 -21.8 -1.3 -21.1C4.4 -20.3 8.8 -14 12.1 -7.6Z" fill="#ff5500"></path></g><g transform="translate(242 589)"><path d="M16.5 -9.8C19 -5.1 17.1 1.8 13.7 6.2C10.2 10.6 5.1 12.4 0.4 12.2C-4.4 11.9 -8.7 9.7 -11.6 5.7C-14.5 1.7 -16 -4.2 -13.8 -8.7C-11.7 -13.2 -5.8 -16.3 0.6 -16.6C7 -16.9 13.9 -14.5 16.5 -9.8Z" fill="#ff5500"></path></g><g transform="translate(727 269)"><path d="M17.2 -9.8C20 -5.1 18.3 2.2 14.7 8.8C11.1 15.3 5.5 21 0.5 20.8C-4.6 20.5 -9.2 14.2 -12.2 8.1C-15.1 1.9 -16.4 -4.2 -14.1 -8.5C-11.8 -12.9 -5.9 -15.6 0.7 -16C7.2 -16.4 14.4 -14.4 17.2 -9.8Z" fill="#ff5500"></path></g><g transform="translate(672 582)"><path d="M3 -1.9C3.6 -0.9 3.3 0.4 2.7 1.4C2 2.4 1 3 -0.2 3.1C-1.4 3.2 -2.9 2.9 -3.3 2C-3.8 1.1 -3.2 -0.2 -2.5 -1.4C-1.8 -2.6 -0.9 -3.6 0.2 -3.7C1.3 -3.8 2.5 -3 3 -1.9Z" fill="#ff5500"></path></g><g transform="translate(457 2)"><path d="M14.5 -8.1C16.8 -4.4 15.2 1.7 12.2 5.6C9.1 9.5 4.6 11.1 -0.7 11.5C-5.9 11.9 -11.8 11.1 -14.8 7.2C-17.9 3.3 -18 -3.6 -15.1 -7.6C-12.1 -11.7 -6.1 -12.9 0 -12.9C6.1 -12.9 12.2 -11.7 14.5 -8.1Z" fill="#ff5500"></path></g><g transform="translate(784 223)"><path d="M10.8 -6.5C12.6 -3.1 11.7 1.6 9.5 4.8C7.2 8.1 3.6 9.9 0.2 9.8C-3.3 9.7 -6.5 7.7 -7.8 5C-9.1 2.3 -8.5 -1.1 -6.9 -4.4C-5.2 -7.7 -2.6 -10.9 0.9 -11.4C4.5 -12 9 -9.9 10.8 -6.5Z" fill="#ff5500"></path></g><g transform="translate(26 333)"><path d="M6.9 -4.3C8.1 -1.9 7.7 1.2 6.2 3C4.8 4.8 2.4 5.4 0.1 5.3C-2.2 5.2 -4.4 4.5 -5.8 2.7C-7.1 1 -7.6 -1.9 -6.5 -4.3C-5.4 -6.6 -2.7 -8.6 0.1 -8.6C2.8 -8.7 5.7 -6.8 6.9 -4.3Z" fill="#ff5500"></path></g><g transform="translate(5 243)"><path d="M14.7 -7.5C17.9 -2.9 18.7 4.2 15.8 8.6C12.9 12.9 6.5 14.7 1 14.1C-4.4 13.5 -8.8 10.5 -11.2 6.4C-13.7 2.3 -14.1 -3.1 -11.9 -7.1C-9.7 -11.2 -4.9 -14 0.4 -14.3C5.7 -14.5 11.4 -12.2 14.7 -7.5Z" fill="#ff5500"></path></g><g transform="translate(727 537)"><path d="M3 -1.6C3.7 -0.5 4 1 3.4 1.9C2.8 2.9 1.4 3.3 0.3 3.2C-0.9 3 -1.8 2.3 -2.5 1.3C-3.2 0.2 -3.7 -1.1 -3.3 -2.1C-2.8 -3.1 -1.4 -3.8 -0.1 -3.7C1.1 -3.6 2.3 -2.8 3 -1.6Z" fill="#ff5500"></path></g><g transform="translate(373 99)"><path d="M12.1 -7C15 -1.9 16.2 4.1 13.9 7.7C11.6 11.3 5.8 12.5 0.2 12.4C-5.5 12.3 -10.9 10.9 -12.6 7.6C-14.3 4.4 -12.2 -0.7 -9.5 -5.7C-6.7 -10.6 -3.4 -15.4 0.6 -15.8C4.6 -16.1 9.2 -12 12.1 -7Z" fill="#ff5500"></path></g><g transform="translate(175 341)"><path d="M10.2 -5.4C12.6 -1.9 13.3 3.1 11.3 7.1C9.3 11.2 4.7 14.4 0 14.3C-4.6 14.3 -9.1 11.1 -11.1 7C-13.1 3 -12.5 -1.9 -10.2 -5.4C-7.9 -8.9 -4 -10.9 0 -10.9C4 -10.9 7.9 -8.9 10.2 -5.4Z" fill="#ff5500"></path></g><g transform="translate(538 556)"><path d="M8.1 -4.9C9.7 -1.9 9.5 1.7 7.9 5.8C6.3 9.8 3.1 14.1 0 14.1C-3.2 14.1 -6.5 9.9 -8 5.9C-9.5 2 -9.3 -1.7 -7.7 -4.7C-6.1 -7.6 -3.1 -10 0.1 -10.1C3.3 -10.1 6.5 -7.9 8.1 -4.9Z" fill="#ff5500"></path></g><g transform="translate(218 286)"><path d="M9.4 -5.4C11.3 -2.2 11.3 2.2 9.4 6.3C7.5 10.4 3.8 14.3 -1.6 15.2C-6.9 16.1 -13.8 14.1 -17.1 9.1C-20.4 4.2 -20.1 -3.6 -16.7 -7.7C-13.2 -11.8 -6.6 -12.3 -1.4 -11.4C3.7 -10.6 7.5 -8.6 9.4 -5.4Z" fill="#ff5500"></path></g><g transform="translate(653 117)"><path d="M17.8 -9.9C21.5 -3.9 21.8 4.4 18.3 10.5C14.7 16.6 7.4 20.4 1.7 19.4C-4 18.4 -7.9 12.6 -11.2 6.7C-14.6 0.7 -17.3 -5.4 -15.3 -10.4C-13.3 -15.5 -6.7 -19.4 0.2 -19.5C7.1 -19.7 14.1 -16 17.8 -9.9Z" fill="#ff5500"></path></g><g transform="translate(474 104)"><path d="M11.3 -6.7C14.3 -1.3 16.2 4.6 14.2 8.7C12.1 12.7 6.1 14.9 -0.3 15.1C-6.6 15.3 -13.3 13.4 -15.1 9.4C-17 5.5 -14 -0.5 -10.7 -6.1C-7.4 -11.7 -3.7 -17.1 0.2 -17.2C4.1 -17.3 8.2 -12.2 11.3 -6.7Z" fill="#ff5500"></path></g><g transform="translate(560 252)"><path d="M12.4 -7C15 -2.7 15.4 3.2 12.9 7.9C10.4 12.6 5.2 16.1 -0.1 16.2C-5.4 16.2 -10.8 12.8 -12.5 8.5C-14.2 4.3 -12.3 -0.8 -9.5 -5.2C-6.8 -9.7 -3.4 -13.4 0.7 -13.8C4.9 -14.2 9.8 -11.4 12.4 -7Z" fill="#ff5500"></path></g><g transform="translate(757 329)"><path d="M3.9 -2.4C4.7 -1 4.6 0.8 3.8 2C3 3.1 1.5 3.7 0.1 3.7C-1.3 3.6 -2.7 3 -3.4 1.8C-4.2 0.6 -4.4 -1 -3.8 -2.4C-3.1 -3.7 -1.5 -4.8 0 -4.8C1.6 -4.9 3.2 -3.8 3.9 -2.4Z" fill="#ff5500"></path></g><g transform="translate(262 60)"><path d="M8.5 -4.4C10.5 -1.5 11.1 2.6 9.5 5.2C7.9 7.8 3.9 8.7 0.5 8.4C-3 8.2 -6 6.7 -8.1 3.8C-10.3 1 -11.6 -3.2 -10.1 -5.9C-8.6 -8.5 -4.3 -9.6 -0.5 -9.3C3.3 -9 6.6 -7.4 8.5 -4.4Z" fill="#ff5500"></path></g><g transform="translate(858 285)"><path d="M14.2 -7.4C17 -3.4 16.8 3.1 13.9 6.7C11.1 10.4 5.5 11.2 0.3 11C-5 10.8 -9.9 9.7 -12.7 6.1C-15.5 2.5 -16.1 -3.6 -13.6 -7.4C-11.2 -11.3 -5.6 -13 0.1 -13C5.7 -13 11.4 -11.5 14.2 -7.4Z" fill="#ff5500"></path></g><g transform="translate(840 358)"><path d="M10.7 -6.7C12.6 -2.9 11.9 1.8 9.7 5C7.5 8.1 3.8 9.8 -0.2 9.9C-4.1 9.9 -8.2 8.5 -10.4 5.3C-12.7 2.1 -13.1 -2.8 -11.1 -6.7C-9 -10.6 -4.5 -13.5 -0.1 -13.5C4.4 -13.4 8.8 -10.5 10.7 -6.7Z" fill="#ff5500"></path></g><g transform="translate(512 192)"><path d="M12.9 -9.4C15 -3.8 13.8 1.8 11.2 6.2C8.5 10.7 4.2 14.1 -1.4 14.9C-7.1 15.8 -14.2 14 -16.3 9.9C-18.3 5.8 -15.4 -0.7 -11.8 -7.1C-8.3 -13.6 -4.1 -20 0.6 -20.4C5.4 -20.8 10.8 -15 12.9 -9.4Z" fill="#ff5500"></path></g><g transform="translate(801 81)"><path d="M3.2 -2.2C3.8 -0.8 3.7 0.7 3.1 2.1C2.4 3.6 1.2 5 -0.2 5.1C-1.5 5.2 -3.1 3.9 -3.8 2.4C-4.6 0.9 -4.6 -0.9 -3.8 -2.4C-3 -4 -1.5 -5.3 -0.1 -5.2C1.3 -5.2 2.6 -3.7 3.2 -2.2Z" fill="#ff5500"></path></g><g transform="translate(803 503)"><path d="M14.4 -9.2C17 -3.9 16.1 2.5 13.2 7.2C10.2 11.9 5.1 15 0.4 14.8C-4.3 14.5 -8.6 11 -12 6.1C-15.3 1.2 -17.6 -5.2 -15.4 -10.2C-13.3 -15.2 -6.6 -18.9 -0.3 -18.7C5.9 -18.5 11.9 -14.4 14.4 -9.2Z" fill="#ff5500"></path></g><g transform="translate(231 414)"><path d="M14.5 -9.4C17 -4.2 15.8 2.1 12.8 7.6C9.8 13.1 4.9 17.8 0.2 17.7C-4.5 17.6 -9 12.7 -12.5 6.9C-16.1 1.1 -18.6 -5.5 -16.3 -10.6C-14.1 -15.7 -7 -19.2 -0.5 -18.9C6.1 -18.6 12.1 -14.5 14.5 -9.4Z" fill="#ff5500"></path></g><g transform="translate(380 324)"><path d="M8.1 -4.7C9.3 -2.6 8.3 0.8 6.6 3.1C4.9 5.4 2.4 6.5 -0.4 6.7C-3.2 6.9 -6.3 6.2 -7.8 4.1C-9.2 2 -8.8 -1.4 -7.3 -3.8C-5.7 -6.1 -2.8 -7.3 0.3 -7.5C3.4 -7.6 6.9 -6.8 8.1 -4.7Z" fill="#ff5500"></path></g><g transform="translate(326 598)"><path d="M8.9 -5.4C10.7 -1.9 10.9 2.2 9.2 4.9C7.4 7.7 3.7 8.9 0 8.9C-3.8 8.9 -7.5 7.7 -9 5.2C-10.4 2.6 -9.6 -1.2 -7.8 -4.7C-5.9 -8.1 -2.9 -11.1 0.3 -11.3C3.5 -11.5 7 -8.8 8.9 -5.4Z" fill="#ff5500"></path></g><g transform="translate(90 454)"><path d="M17.2 -9.7C19.5 -6.1 16.5 0.9 12.7 7.4C9 14 4.5 20.2 -0.5 20.5C-5.6 20.8 -11.1 15.2 -13.7 9.4C-16.2 3.5 -15.7 -2.6 -12.9 -6.6C-10.1 -10.5 -5.1 -12.3 1.2 -13C7.5 -13.7 15 -13.3 17.2 -9.7Z" fill="#ff5500"></path></g><g transform="translate(32 515)"><path d="M1.7 -1C2 -0.4 2 0.4 1.7 0.9C1.3 1.4 0.7 1.7 0 1.7C-0.6 1.7 -1.3 1.4 -1.6 0.9C-2 0.3 -2.1 -0.5 -1.8 -1.1C-1.4 -1.6 -0.7 -2 0 -2C0.7 -2 1.3 -1.6 1.7 -1Z" fill="#ff5500"></path></g><g transform="translate(92 559)"><path d="M6.3 -3.4C7.9 -0.9 8.7 2.3 7.5 4.5C6.3 6.7 3.2 7.8 0 7.8C-3.1 7.8 -6.2 6.6 -7.7 4.2C-9.2 1.9 -9.1 -1.7 -7.5 -4.2C-6 -6.7 -3 -8.1 -0.3 -7.9C2.4 -7.8 4.7 -5.9 6.3 -3.4Z" fill="#ff5500"></path></g><g transform="translate(445 228)"><path d="M9.3 -5.5C11.3 -1.8 11.8 2.6 9.9 5.4C8.1 8.2 4.1 9.4 -0.5 9.6C-5 9.9 -10 9.3 -11.7 6.5C-13.4 3.8 -11.9 -1.1 -9.4 -5C-6.9 -8.9 -3.5 -11.9 0.1 -11.9C3.6 -11.9 7.3 -9.1 9.3 -5.5Z" fill="#ff5500"></path></g><g transform="translate(268 493)"><path d="M11.5 -6.1C14.4 -1.5 16.1 4.4 14 7.8C11.8 11.3 5.9 12.4 0.2 12.3C-5.6 12.2 -11.2 10.9 -14.7 6.6C-18.2 2.4 -19.7 -4.9 -16.9 -9.4C-14.1 -13.9 -7.1 -15.6 -1.4 -14.8C4.3 -14 8.5 -10.7 11.5 -6.1Z" fill="#ff5500"></path></g><g transform="translate(870 64)"><path d="M1.5 -0.9C2 -0.2 2.2 0.6 2 1.1C1.7 1.5 0.8 1.6 0.1 1.5C-0.6 1.4 -1.2 1.3 -1.6 0.7C-2 0.2 -2.2 -0.6 -1.9 -1.2C-1.6 -1.9 -0.8 -2.3 -0.1 -2.3C0.6 -2.2 1.1 -1.6 1.5 -0.9Z" fill="#ff5500"></path></g><g transform="translate(686 379)"><path d="M1.8 -1.1C2.1 -0.6 1.9 0.2 1.5 0.9C1.1 1.6 0.6 2.3 -0.1 2.4C-0.7 2.4 -1.4 1.8 -1.7 1.2C-2 0.5 -1.8 -0.2 -1.4 -0.8C-1 -1.3 -0.5 -1.7 0.1 -1.8C0.8 -1.9 1.6 -1.6 1.8 -1.1Z" fill="#ff5500"></path></g><g transform="translate(488 308)"><path d="M13 -7.4C15.4 -3.4 14.8 2.4 12.2 7.2C9.5 12 4.8 15.7 0.1 15.6C-4.5 15.6 -9 11.7 -12 6.7C-15 1.7 -16.6 -4.4 -14.3 -8.4C-12.1 -12.4 -6.1 -14.3 -0.4 -14.1C5.3 -13.9 10.6 -11.5 13 -7.4Z" fill="#ff5500"></path></g><g transform="translate(202 496)"><path d="M9.8 -6.3C11.6 -2.6 11.2 1.8 9.2 4.9C7.2 8.1 3.6 9.9 -0.4 10.1C-4.4 10.3 -8.7 9 -11.2 5.6C-13.7 2.2 -14.3 -3.2 -12.1 -7.1C-9.9 -11 -5 -13.4 -0.5 -13.2C4 -12.9 8.1 -9.9 9.8 -6.3Z" fill="#ff5500"></path></g><g transform="translate(892 514)"><path d="M6.8 -3.2C8.4 -1.2 9 2.2 7.7 4.5C6.4 6.9 3.2 8.2 -0.1 8.3C-3.4 8.4 -6.8 7.1 -8.1 4.8C-9.3 2.5 -8.4 -0.9 -6.7 -3C-5 -5.1 -2.5 -5.9 0.1 -5.9C2.6 -5.9 5.2 -5.2 6.8 -3.2Z" fill="#ff5500"></path></g><g transform="translate(323 269)"><path d="M10.7 -5.7C13.2 -1.7 14.3 3.6 12.3 7.5C10.2 11.5 5.1 14 0.3 13.9C-4.5 13.7 -9 10.7 -10.4 7.1C-11.9 3.5 -10.2 -0.7 -8 -4.5C-5.7 -8.3 -2.9 -11.6 0.6 -11.9C4 -12.2 8.1 -9.6 10.7 -5.7Z" fill="#ff5500"></path></g><g transform="translate(572 194)"><path d="M9.1 -4.7C11.3 -1.5 12.2 3.1 10.5 6.2C8.8 9.4 4.4 11.2 0.1 11.2C-4.3 11.2 -8.5 9.3 -10.6 5.9C-12.8 2.4 -12.8 -2.5 -10.7 -5.7C-8.5 -8.9 -4.3 -10.3 -0.4 -10.1C3.4 -9.9 6.9 -7.9 9.1 -4.7Z" fill="#ff5500"></path></g><g transform="translate(893 9)"><path d="M13.3 -7.7C16.4 -2.2 17.7 4.4 15.2 9.7C12.7 15 6.3 18.9 1 18.3C-4.3 17.8 -8.6 12.6 -12.2 6.7C-15.8 0.9 -18.6 -5.8 -16.4 -10.7C-14.3 -15.7 -7.1 -19 -1 -18.4C5.1 -17.8 10.1 -13.3 13.3 -7.7Z" fill="#ff5500"></path></g><g transform="translate(743 12)"><path d="M7.6 -4.7C9 -1.9 8.7 1.5 7.2 3.8C5.6 6.1 2.8 7.3 0.1 7.3C-2.7 7.3 -5.4 6 -7.3 3.4C-9.2 0.9 -10.4 -2.9 -9 -5.6C-7.7 -8.4 -3.8 -10.1 -0.4 -9.9C3.1 -9.7 6.1 -7.5 7.6 -4.7Z" fill="#ff5500"></path></g><g transform="translate(563 2)"><path d="M4.1 -2.1C5.3 -0.1 6.5 2.2 5.8 3.9C5.1 5.7 2.6 7 0.5 6.7C-1.5 6.4 -3 4.5 -3.8 2.6C-4.7 0.8 -4.9 -1.1 -4.1 -2.7C-3.4 -4.3 -1.7 -5.8 -0.1 -5.7C1.4 -5.6 2.8 -4 4.1 -2.1Z" fill="#ff5500"></path></g><g transform="translate(366 210)"><path d="M3.4 -1.8C4.3 -0.5 4.7 1.2 4 2.3C3.4 3.3 1.7 3.8 0 3.8C-1.7 3.8 -3.5 3.4 -4.1 2.3C-4.7 1.3 -4.2 -0.4 -3.4 -1.8C-2.5 -3.1 -1.3 -4 0 -4C1.3 -4 2.6 -3.1 3.4 -1.8Z" fill="#ff5500"></path></g><g transform="translate(754 596)"><path d="M12.3 -8C14.6 -3.2 14.1 2.3 11.5 7C9 11.6 4.5 15.5 -0.5 15.8C-5.6 16.1 -11.1 12.9 -12.9 8.6C-14.7 4.3 -12.7 -0.9 -9.9 -6C-7.2 -11.2 -3.6 -16.2 0.7 -16.6C5 -17 10.1 -12.9 12.3 -8Z" fill="#ff5500"></path></g><g transform="translate(273 221)"><path d="M1.3 -0.6C1.7 -0.1 2 0.6 1.7 1.2C1.5 1.7 0.7 2.1 0.1 2.1C-0.5 2 -1 1.4 -1.3 0.8C-1.7 0.2 -1.9 -0.5 -1.6 -0.9C-1.4 -1.3 -0.7 -1.5 -0.1 -1.4C0.5 -1.3 0.9 -1.1 1.3 -0.6Z" fill="#ff5500"></path></g><g transform="translate(810 562)"><path d="M2.9 -1.6C3.7 -0.4 4 1 3.5 2C2.9 2.9 1.4 3.4 0 3.4C-1.5 3.4 -3.1 3.1 -3.7 2C-4.4 1 -4.2 -0.6 -3.4 -1.9C-2.6 -3.1 -1.3 -3.9 -0.1 -3.8C1.1 -3.8 2.2 -2.9 2.9 -1.6Z" fill="#ff5500"></path></g><g transform="translate(199 227)"><path d="M10.6 -7.4C12.5 -2.9 11.9 1.8 9.7 5.7C7.5 9.6 3.7 12.7 -0.3 12.8C-4.2 13 -8.5 10.2 -10.3 6.5C-12.1 2.8 -11.4 -1.7 -9.3 -6.3C-7.1 -11 -3.6 -15.8 0.4 -16C4.4 -16.2 8.8 -11.9 10.6 -7.4Z" fill="#ff5500"></path></g><g transform="translate(599 554)"><path d="M3 -2C3.7 -0.6 3.8 0.9 3.2 1.9C2.7 3 1.3 3.7 -0.3 3.9C-1.9 4 -3.9 3.7 -4.8 2.5C-5.6 1.2 -5.4 -0.9 -4.4 -2.5C-3.5 -4.1 -1.7 -5.2 -0.3 -5C1.2 -4.8 2.3 -3.4 3 -2Z" fill="#ff5500"></path></g><g transform="translate(841 419)"><path d="M3.1 -1.6C3.9 -0.4 4.3 1.1 3.7 2.6C3.1 4 1.6 5.3 -0.3 5.5C-2.2 5.7 -4.4 4.8 -5.5 3C-6.6 1.3 -6.6 -1.2 -5.4 -2.6C-4.3 -3.9 -2.2 -4 -0.5 -3.7C1.2 -3.5 2.3 -2.7 3.1 -1.6Z" fill="#ff5500"></path></g><g transform="translate(734 91)"><path d="M7.6 -4.8C9.1 -1.9 8.9 1.6 7.3 4.3C5.8 7 2.9 8.9 -0.1 9C-3.1 9 -6.2 7.2 -7.5 4.6C-8.8 2.1 -8.3 -1.2 -6.8 -4.2C-5.2 -7.1 -2.6 -9.8 0.2 -9.9C3.1 -10 6.2 -7.7 7.6 -4.8Z" fill="#ff5500"></path></g><g transform="translate(584 66)"><path d="M15 -8.5C18.1 -3.4 18.3 3.7 15.3 8.5C12.3 13.3 6.2 15.9 -0.4 16.1C-7.1 16.4 -14.1 14.3 -16 10.1C-17.9 6 -14.6 -0.3 -11 -5.7C-7.5 -11.1 -3.8 -15.6 1.1 -16.2C6 -16.9 12 -13.6 15 -8.5Z" fill="#ff5500"></path></g><g transform="translate(7 18)"><path d="M1.5 -0.8C1.9 -0.2 2.1 0.6 1.8 1.1C1.6 1.7 0.8 2 0.1 1.9C-0.5 1.8 -1 1.3 -1.2 0.8C-1.5 0.3 -1.4 -0.2 -1.2 -0.7C-0.9 -1.2 -0.5 -1.6 0.1 -1.7C0.6 -1.7 1.1 -1.3 1.5 -0.8Z" fill="#ff5500"></path></g><g transform="translate(408 498)"><path d="M9.4 -5.7C11 -2.5 10.5 1.6 8.5 4.9C6.6 8.1 3.3 10.5 0 10.5C-3.3 10.5 -6.5 8.1 -8.3 4.9C-10.1 1.7 -10.5 -2.3 -8.9 -5.4C-7.2 -8.5 -3.6 -10.8 0.1 -10.9C3.9 -10.9 7.7 -8.8 9.4 -5.7Z" fill="#ff5500"></path></g><g transform="translate(178 587)"><path d="M8.4 -5.8C9.5 -3 8 0.4 6.2 2.7C4.3 5 2.2 6.3 -0.2 6.4C-2.6 6.5 -5.2 5.5 -6.8 3.3C-8.5 1.2 -9.1 -2.2 -7.8 -5.2C-6.5 -8.1 -3.2 -10.6 0.2 -10.8C3.7 -10.9 7.3 -8.6 8.4 -5.8Z" fill="#ff5500"></path></g><g transform="translate(305 148)"><path d="M10.8 -5.7C12.9 -2.5 13 2.5 10.8 6.4C8.7 10.3 4.3 13 0.3 12.9C-3.7 12.7 -7.4 9.5 -9.8 5.5C-12.3 1.4 -13.5 -3.5 -11.7 -6.6C-9.8 -9.7 -4.9 -10.9 -0.3 -10.8C4.3 -10.6 8.6 -9 10.8 -5.7Z" fill="#ff5500"></path></g><g transform="translate(506 504)"><path d="M17 -8.1C20.6 -3.6 21 4.4 17.6 9.4C14.3 14.5 7.1 16.6 1.2 15.9C-4.7 15.2 -9.3 11.6 -13 6.4C-16.6 1.2 -19.3 -5.7 -16.9 -9.5C-14.6 -13.2 -7.3 -13.8 -0.3 -13.6C6.7 -13.4 13.4 -12.5 17 -8.1Z" fill="#ff5500"></path></g><g transform="translate(572 129)"><path d="M2.3 -1.5C2.6 -0.6 2.5 0.4 2 1.2C1.6 2.1 0.8 2.8 -0.1 2.8C-1.1 2.9 -2.1 2.4 -2.5 1.6C-2.8 0.8 -2.5 -0.2 -1.9 -1.1C-1.4 -2.1 -0.7 -2.9 0.1 -3C0.9 -3.1 1.9 -2.3 2.3 -1.5Z" fill="#ff5500"></path></g><g transform="translate(444 166)"><path d="M8.2 -4.1C9.9 -1.9 9.8 1.9 8.2 4.4C6.6 6.8 3.3 8 0.7 7.6C-2 7.2 -3.9 5.3 -4.8 3.3C-5.7 1.2 -5.6 -1 -4.6 -2.8C-3.6 -4.6 -1.8 -6 0.7 -6.5C3.3 -6.9 6.6 -6.3 8.2 -4.1Z" fill="#ff5500"></path></g><g transform="translate(747 477)"><path d="M5.4 -2.7C6.6 -1.1 6.8 1.5 5.8 3.1C4.7 4.6 2.4 5.2 0.1 5.1C-2.1 5 -4.2 4.3 -5.8 2.4C-7.3 0.6 -8.4 -2.5 -7.4 -4C-6.3 -5.6 -3.2 -5.6 -0.5 -5.3C2.1 -5 4.2 -4.3 5.4 -2.7Z" fill="#ff5500"></path></g><g transform="translate(112 315)"><path d="M10.3 -6.7C12.2 -2.7 11.8 2 9.7 5.1C7.6 8.3 3.8 9.9 0.2 9.8C-3.4 9.7 -6.9 7.8 -9.5 4.4C-12.1 1 -13.9 -4.1 -12.2 -8C-10.5 -11.9 -5.2 -14.7 -0.5 -14.5C4.2 -14.2 8.4 -10.7 10.3 -6.7Z" fill="#ff5500"></path></g><g transform="translate(667 513)"><path d="M1.3 -0.8C1.6 -0.1 2 0.6 1.7 1C1.5 1.5 0.8 1.6 0 1.6C-0.7 1.6 -1.4 1.4 -1.8 0.9C-2.2 0.4 -2.4 -0.5 -2 -1.2C-1.6 -1.9 -0.8 -2.4 -0.2 -2.3C0.4 -2.2 0.9 -1.5 1.3 -0.8Z" fill="#ff5500"></path></g><g transform="translate(340 540)"><path d="M4.9 -2.4C6.1 -0.7 6.6 1.7 5.7 3.3C4.8 4.8 2.4 5.5 0.4 5.3C-1.7 5.1 -3.4 4 -4.2 2.5C-5.1 0.9 -5.1 -1 -4.3 -2.5C-3.4 -3.9 -1.7 -4.9 0.1 -4.9C1.8 -4.9 3.7 -4 4.9 -2.4Z" fill="#ff5500"></path></g><g transform="translate(373 11)"><path d="M2.9 -1.8C3.5 -0.7 3.4 0.6 2.8 1.8C2.2 3.1 1.1 4.3 0 4.3C-1.1 4.2 -2.2 3.1 -2.9 1.7C-3.7 0.4 -4.2 -1.2 -3.6 -2.3C-3.1 -3.4 -1.5 -4.1 -0.2 -4C1.2 -3.9 2.4 -2.9 2.9 -1.8Z" fill="#ff5500"></path></g><g transform="translate(9 451)"><path d="M9.4 -5.7C10.9 -2.7 10.1 1.3 8.1 5C6.2 8.8 3.1 12.2 -1.2 12.9C-5.5 13.6 -11 11.6 -12.5 8.1C-14 4.6 -11.5 -0.3 -8.8 -3.9C-6 -7.6 -3 -10 0.5 -10.3C3.9 -10.5 7.8 -8.6 9.4 -5.7Z" fill="#ff5500"></path></g><g transform="translate(119 6)"><path d="M11.9 -6.6C15.1 -1.2 17.3 5 15.2 8.5C13 12 6.5 12.7 1 12.1C-4.5 11.5 -9 9.6 -11.6 5.9C-14.2 2.2 -14.9 -3.4 -12.7 -8.2C-10.4 -13 -5.2 -17 -0.5 -16.7C4.3 -16.4 8.6 -12 11.9 -6.6Z" fill="#ff5500"></path></g><g transform="translate(171 435)"><path d="M13.8 -7.4C16.9 -2.6 17.8 4.1 15.2 8.6C12.5 13 6.2 15.2 1 14.6C-4.1 14 -8.3 10.6 -10.5 6.4C-12.7 2.2 -13 -2.7 -10.9 -7C-8.9 -11.2 -4.4 -14.7 0.5 -15C5.3 -15.3 10.7 -12.3 13.8 -7.4Z" fill="#ff5500"></path></g><g transform="translate(751 155)"><path d="M2.5 -1.2C3.2 -0.3 3.7 1.1 3.2 2C2.7 2.9 1.4 3.5 0.3 3.3C-0.8 3.2 -1.5 2.3 -2.2 1.2C-2.8 0.2 -3.3 -1 -2.9 -1.8C-2.5 -2.5 -1.3 -2.8 -0.2 -2.7C0.9 -2.6 1.8 -2.1 2.5 -1.2Z" fill="#ff5500"></path></g><g transform="translate(310 444)"><path d="M3.8 -2.1C4.6 -0.8 4.7 1 4 2.1C3.2 3.2 1.6 3.6 0.1 3.6C-1.4 3.5 -2.7 2.9 -3.3 1.9C-3.9 0.8 -3.8 -0.6 -3.1 -1.9C-2.5 -3.1 -1.2 -4.1 0.1 -4.2C1.5 -4.3 3 -3.4 3.8 -2.1Z" fill="#ff5500"></path></g><g transform="translate(237 349)"><path d="M11.6 -7.1C13.4 -3.6 12.1 1.3 9.7 5.3C7.2 9.2 3.6 12.2 0.4 11.9C-2.7 11.7 -5.4 8.2 -7 4.8C-8.6 1.3 -9 -2 -7.6 -5.3C-6.3 -8.5 -3.1 -11.6 0.9 -12.1C4.9 -12.6 9.8 -10.6 11.6 -7.1Z" fill="#ff5500"></path></g><g transform="translate(200 4)"><path d="M5.7 -2.7C7.5 -0.1 9.3 3.1 8.3 5.7C7.3 8.3 3.7 10.3 0.3 10.1C-3.1 9.9 -6.2 7.6 -8 4.5C-9.9 1.4 -10.5 -2.5 -8.9 -4.9C-7.4 -7.3 -3.7 -8.3 -0.9 -7.8C1.9 -7.3 3.9 -5.3 5.7 -2.7Z" fill="#ff5500"></path></g><g transform="translate(465 462)"><path d="M9.7 -5.5C11.6 -2.2 11.6 2.2 9.7 5.3C7.7 8.3 3.9 9.8 -1.2 10.5C-6.2 11.2 -12.5 11 -14.3 8.1C-16.1 5.1 -13.4 -0.5 -10.3 -4.5C-7.2 -8.4 -3.6 -10.6 0.1 -10.7C3.9 -10.8 7.7 -8.7 9.7 -5.5Z" fill="#ff5500"></path></g><g transform="translate(480 391)"><path d="M5.6 -3.1C6.7 -1.3 6.6 1.2 5.5 3.4C4.4 5.5 2.2 7.2 -0.1 7.3C-2.4 7.4 -4.9 5.8 -6 3.7C-7.1 1.6 -6.8 -1.1 -5.6 -3C-4.4 -4.9 -2.2 -6 0 -6C2.2 -6 4.5 -5 5.6 -3.1Z" fill="#ff5500"></path></g><g transform="translate(870 217)"><path d="M4.2 -1.9C5.3 -0.6 5.9 1.6 5.1 3C4.3 4.3 2.2 5 0.3 4.8C-1.6 4.6 -3.2 3.7 -4.2 2.2C-5.2 0.7 -5.7 -1.5 -4.9 -2.6C-4.1 -3.8 -2.1 -4.1 -0.2 -4C1.6 -3.8 3.1 -3.3 4.2 -1.9Z" fill="#ff5500"></path></g><g transform="translate(36 597)"><path d="M4 -2.3C4.7 -1.1 4.5 0.7 3.6 2.6C2.8 4.6 1.4 6.7 -0.3 6.8C-1.9 7 -3.9 5.2 -5 3C-6.2 0.9 -6.5 -1.6 -5.6 -2.9C-4.6 -4.3 -2.3 -4.5 -0.3 -4.4C1.7 -4.2 3.3 -3.5 4 -2.3Z" fill="#ff5500"></path></g><g transform="translate(429 291)"><path d="M9.1 -5.7C10.9 -2 11.1 2.3 9.3 7C7.6 11.8 3.8 17.1 -0.3 17.2C-4.4 17.4 -8.7 12.5 -11.6 7.1C-14.4 1.7 -15.8 -4.1 -13.6 -8C-11.4 -11.9 -5.7 -14 -1.1 -13.4C3.6 -12.8 7.2 -9.5 9.1 -5.7Z" fill="#ff5500"></path></g><g transform="translate(241 122)"><path d="M10 -6.1C11.8 -2.6 11.3 1.8 9.3 5.1C7.2 8.5 3.6 10.7 -1.3 11.4C-6.2 12.2 -12.5 11.5 -15.4 7.7C-18.3 3.9 -17.8 -3.1 -14.7 -7.3C-11.5 -11.5 -5.8 -13.1 -0.8 -12.6C4.1 -12.1 8.2 -9.6 10 -6.1Z" fill="#ff5500"></path></g><g transform="translate(389 587)"><path d="M1.1 -0.8C1.3 -0.3 1.3 0.3 1.1 0.7C0.9 1.2 0.4 1.6 -0.2 1.7C-0.8 1.8 -1.5 1.6 -1.8 1.1C-2 0.6 -1.7 -0.1 -1.3 -0.7C-0.9 -1.4 -0.5 -2 0 -2C0.4 -2 0.9 -1.4 1.1 -0.8Z" fill="#ff5500"></path></g><g transform="translate(411 384)"><path d="M12.1 -7.4C15 -1.9 16.2 4.1 14 7.5C11.7 11 5.8 11.8 0.5 11.5C-4.8 11.2 -9.5 9.7 -11.4 6.5C-13.3 3.3 -12.3 -1.6 -9.9 -6.8C-7.5 -11.9 -3.8 -17.4 0.4 -17.6C4.6 -17.8 9.1 -12.9 12.1 -7.4Z" fill="#ff5500"></path></g><g transform="translate(817 159)"><path d="M4.9 -2.9C6 -1 6.1 1.3 5.2 3.1C4.2 4.8 2.1 6 0.1 5.9C-1.9 5.9 -3.8 4.6 -4.8 2.8C-5.9 1 -6.1 -1.4 -5.2 -3.2C-4.3 -5.1 -2.1 -6.5 -0.1 -6.5C1.9 -6.4 3.9 -4.9 4.9 -2.9Z" fill="#ff5500"></path></g><g transform="translate(4 175)"><path d="M14.3 -7C17 -3.6 16.7 2.9 13.8 6.9C10.9 10.8 5.4 12.1 0 12.1C-5.4 12.1 -10.7 10.7 -12.6 7.4C-14.5 4.1 -12.8 -1.2 -10.1 -4.6C-7.4 -7.9 -3.7 -9.4 1 -10C5.8 -10.6 11.6 -10.3 14.3 -7Z" fill="#ff5500"></path></g><g transform="translate(311 7)"><path d="M12.4 -5.9C15.6 -1.6 17.4 4.7 15.1 8.9C12.8 13.1 6.4 15.1 0.7 14.7C-4.9 14.2 -9.8 11.4 -13.1 6.6C-16.4 1.9 -18.1 -4.8 -15.7 -8.7C-13.2 -12.5 -6.6 -13.6 -1 -13C4.6 -12.5 9.2 -10.2 12.4 -5.9Z" fill="#ff5500"></path></g><g transform="translate(814 23)"><path d="M8.1 -3.8C10.3 -0.8 11.7 3.4 10.3 6.7C8.8 9.9 4.4 12.2 0.1 12.2C-4.1 12.1 -8.2 9.6 -10.1 6.1C-12 2.6 -11.7 -2 -9.6 -4.9C-7.5 -7.8 -3.8 -9.1 -0.4 -8.9C2.9 -8.6 5.9 -6.9 8.1 -3.8Z" fill="#ff5500"></path></g><g transform="translate(866 589)"><path d="M3.5 -1.9C4.5 -0.4 5 1.4 4.4 3C3.7 4.7 1.9 6.1 0.3 5.9C-1.2 5.7 -2.3 3.9 -3 2.2C-3.6 0.6 -3.7 -0.8 -3.1 -2.1C-2.5 -3.4 -1.3 -4.5 0 -4.5C1.3 -4.6 2.6 -3.4 3.5 -1.9Z" fill="#ff5500"></path></g><g transform="translate(140 518)"><path d="M5.2 -2.5C6.8 -0.2 8.2 2.6 7.3 4.4C6.4 6.1 3.2 6.7 0 6.7C-3.1 6.7 -6.3 6.1 -7.2 4.3C-8.2 2.5 -6.9 -0.4 -5.4 -2.7C-3.8 -4.9 -1.9 -6.6 -0.1 -6.6C1.8 -6.5 3.6 -4.8 5.2 -2.5Z" fill="#ff5500"></path></g><g transform="translate(524 50)"><path d="M7.1 -4.4C8.6 -1.4 8.9 1.9 7.5 4.5C6.1 7 3.1 8.7 -0.8 9.1C-4.6 9.6 -9.2 8.8 -11.1 5.9C-13 3.1 -12.2 -1.8 -9.9 -5.2C-7.6 -8.6 -3.8 -10.5 -0.5 -10.2C2.8 -9.9 5.6 -7.4 7.1 -4.4Z" fill="#ff5500"></path></g><g transform="translate(416 54)"><path d="M5.9 -2.8C7.4 -0.7 8.3 2.3 7.2 4.5C6.1 6.6 3.1 7.9 0.2 7.8C-2.6 7.7 -5.2 6.1 -6.7 3.7C-8.2 1.2 -8.7 -2 -7.4 -4C-6.1 -6 -3 -6.7 -0.4 -6.4C2.2 -6.1 4.3 -4.9 5.9 -2.8Z" fill="#ff5500"></path></g><g transform="translate(547 321)"><path d="M7.8 -4.2C9.7 -1.3 10.4 2.5 8.9 5.3C7.4 8.1 3.7 9.8 0.2 9.7C-3.4 9.6 -6.7 7.7 -8.4 4.9C-10 2 -9.8 -1.8 -8.1 -4.6C-6.5 -7.4 -3.2 -9.2 -0.1 -9.1C3 -9.1 6 -7.1 7.8 -4.2Z" fill="#ff5500"></path></g><g transform="translate(895 332)"><path d="M7.2 -4.5C8.6 -1.7 8.5 1.6 7.1 4.3C5.6 6.9 2.8 9 0.4 8.8C-2.1 8.6 -4.2 6.1 -5.4 3.6C-6.6 1.1 -6.8 -1.5 -5.7 -4C-4.7 -6.6 -2.3 -9.2 0.3 -9.3C2.9 -9.5 5.7 -7.2 7.2 -4.5Z" fill="#ff5500"></path></g><g transform="translate(63 205)"><path d="M9.1 -4.5C11.6 -0.8 13.5 4.1 11.9 7.2C10.3 10.4 5.1 11.9 0.1 11.9C-4.9 11.8 -9.7 10.1 -11.8 6.6C-14 3.2 -13.3 -2.1 -10.9 -5.7C-8.5 -9.4 -4.2 -11.4 -0.5 -11.1C3.3 -10.9 6.5 -8.2 9.1 -4.5Z" fill="#ff5500"></path></g><g transform="translate(123 97)"><path d="M1.3 -0.8C1.6 -0.3 1.6 0.3 1.3 0.8C1.1 1.2 0.5 1.5 -0.1 1.6C-0.7 1.6 -1.4 1.4 -1.6 1C-1.8 0.5 -1.6 -0.1 -1.2 -0.7C-0.9 -1.2 -0.5 -1.7 0 -1.7C0.5 -1.7 1.1 -1.3 1.3 -0.8Z" fill="#ff5500"></path></g><g transform="translate(797 285)"><path d="M11 -7.6C13.4 -2.3 13.8 2.9 11.6 7.8C9.4 12.7 4.7 17.2 -0.9 17.7C-6.5 18.2 -13.1 14.8 -16.3 9.3C-19.6 3.8 -19.6 -3.8 -16.4 -9.6C-13.1 -15.4 -6.5 -19.5 -1.1 -18.8C4.3 -18.2 8.7 -12.9 11 -7.6Z" fill="#ff5500"></path></g></g></svg>