<svg id="visual" viewBox="0 0 900 675" width="900" height="675" xmlns="http://www.w3.org/2000/svg" xmlns:xlink="http://www.w3.org/1999/xlink" version="1.1"><rect x="0" y="0" width="900" height="675" fill="#85b3f9"></rect><defs><linearGradient id="grad1_0" x1="25%" y1="0%" x2="100%" y2="100%"><stop offset="23.333333333333336%" stop-color="#f7770f" stop-opacity="1"></stop><stop offset="76.66666666666666%" stop-color="#f7770f" stop-opacity="1"></stop></linearGradient></defs><defs><linearGradient id="grad1_1" x1="25%" y1="0%" x2="100%" y2="100%"><stop offset="23.333333333333336%" stop-color="#f7770f" stop-opacity="1"></stop><stop offset="76.66666666666666%" stop-color="#ff6850" stop-opacity="1"></stop></linearGradient></defs><defs><linearGradient id="grad1_2" x1="25%" y1="0%" x2="100%" y2="100%"><stop offset="23.333333333333336%" stop-color="#ff6482" stop-opacity="1"></stop><stop offset="76.66666666666666%" stop-color="#ff6850" stop-opacity="1"></stop></linearGradient></defs><defs><linearGradient id="grad1_3" x1="25%" y1="0%" x2="100%" y2="100%"><stop offset="23.333333333333336%" stop-color="#ff6482" stop-opacity="1"></stop><stop offset="76.66666666666666%" stop-color="#ff6faf" stop-opacity="1"></stop></linearGradient></defs><defs><linearGradient id="grad1_4" x1="25%" y1="0%" x2="100%" y2="100%"><stop offset="23.333333333333336%" stop-color="#f082d4" stop-opacity="1"></stop><stop offset="76.66666666666666%" stop-color="#ff6faf" stop-opacity="1"></stop></linearGradient></defs><defs><linearGradient id="grad1_5" x1="25%" y1="0%" x2="100%" y2="100%"><stop offset="23.333333333333336%" stop-color="#f082d4" stop-opacity="1"></stop><stop offset="76.66666666666666%" stop-color="#cd95ee" stop-opacity="1"></stop></linearGradient></defs><defs><linearGradient id="grad1_6" x1="25%" y1="0%" x2="100%" y2="100%"><stop offset="23.333333333333336%" stop-color="#a7a6fa" stop-opacity="1"></stop><stop offset="76.66666666666666%" stop-color="#cd95ee" stop-opacity="1"></stop></linearGradient></defs><defs><linearGradient id="grad1_7" x1="25%" y1="0%" x2="100%" y2="100%"><stop offset="23.333333333333336%" stop-color="#a7a6fa" stop-opacity="1"></stop><stop offset="76.66666666666666%" stop-color="#85b3f9" stop-opacity="1"></stop></linearGradient></defs><defs><linearGradient id="grad2_0" x1="0%" y1="0%" x2="75%" y2="100%"><stop offset="23.333333333333336%" stop-color="#f7770f" stop-opacity="1"></stop><stop offset="76.66666666666666%" stop-color="#f7770f" stop-opacity="1"></stop></linearGradient></defs><defs><linearGradient id="grad2_1" x1="0%" y1="0%" x2="75%" y2="100%"><stop offset="23.333333333333336%" stop-color="#ff6850" stop-opacity="1"></stop><stop offset="76.66666666666666%" stop-color="#f7770f" stop-opacity="1"></stop></linearGradient></defs><defs><linearGradient id="grad2_2" x1="0%" y1="0%" x2="75%" y2="100%"><stop offset="23.333333333333336%" stop-color="#ff6850" stop-opacity="1"></stop><stop offset="76.66666666666666%" stop-color="#ff6482" stop-opacity="1"></stop></linearGradient></defs><defs><linearGradient id="grad2_3" x1="0%" y1="0%" x2="75%" y2="100%"><stop offset="23.333333333333336%" stop-color="#ff6faf" stop-opacity="1"></stop><stop offset="76.66666666666666%" stop-color="#ff6482" stop-opacity="1"></stop></linearGradient></defs><defs><linearGradient id="grad2_4" x1="0%" y1="0%" x2="75%" y2="100%"><stop offset="23.333333333333336%" stop-color="#ff6faf" stop-opacity="1"></stop><stop offset="76.66666666666666%" stop-color="#f082d4" stop-opacity="1"></stop></linearGradient></defs><defs><linearGradient id="grad2_5" x1="0%" y1="0%" x2="75%" y2="100%"><stop offset="23.333333333333336%" stop-color="#cd95ee" stop-opacity="1"></stop><stop offset="76.66666666666666%" stop-color="#f082d4" stop-opacity="1"></stop></linearGradient></defs><defs><linearGradient id="grad2_6" x1="0%" y1="0%" x2="75%" y2="100%"><stop offset="23.333333333333336%" stop-color="#cd95ee" stop-opacity="1"></stop><stop offset="76.66666666666666%" stop-color="#a7a6fa" stop-opacity="1"></stop></linearGradient></defs><defs><linearGradient id="grad2_7" x1="0%" y1="0%" x2="75%" y2="100%"><stop offset="23.333333333333336%" stop-color="#85b3f9" stop-opacity="1"></stop><stop offset="76.66666666666666%" stop-color="#a7a6fa" stop-opacity="1"></stop></linearGradient></defs><g transform="translate(900, 0)"><path d="M0 562.5C-41.6 571 -83.3 579.5 -109.7 551.7C-136.2 523.9 -147.4 459.8 -183.7 443.5C-220 427.1 -281.2 458.6 -279.5 418.2C-277.7 377.8 -212.8 265.6 -245.4 245.4C-278 225.2 -408 297 -433.2 289.5C-458.4 281.9 -378.7 194.9 -364.9 151.2C-351.2 107.4 -403.3 106.9 -447.2 89C-491.2 71 -526.8 35.5 -562.5 0L0 0Z" fill="#95adfb"></path><path d="M0 492.2C-36.4 499.6 -72.9 507.1 -96 482.7C-119.2 458.4 -129 402.3 -160.7 388C-192.5 373.8 -246.1 401.3 -244.5 366C-243 330.6 -186.2 232.4 -214.7 214.7C-243.2 197 -357 259.9 -379 253.3C-401.1 246.6 -331.4 170.5 -319.3 132.3C-307.3 94 -352.9 93.6 -391.3 77.8C-429.8 62.1 -461 31.1 -492.2 0L0 0Z" fill="#ba9ef5"></path><path d="M0 421.9C-31.2 428.2 -62.5 434.6 -82.3 413.8C-102.1 392.9 -110.6 344.8 -137.8 332.6C-165 320.4 -210.9 344 -209.6 313.7C-208.2 283.4 -159.6 199.2 -184 184C-208.5 168.9 -306 222.8 -324.9 217.1C-343.8 211.4 -284 146.2 -273.7 113.4C-263.4 80.6 -302.5 80.2 -335.4 66.7C-368.4 53.2 -395.1 26.6 -421.9 0L0 0Z" fill="#df8be2"></path><path d="M0 351.6C-26 356.9 -52.1 362.2 -68.6 344.8C-85.1 327.4 -92.1 287.4 -114.8 277.2C-137.5 267 -175.8 286.6 -174.7 261.4C-173.5 236.1 -133 166 -153.4 153.4C-173.7 140.7 -255 185.6 -270.7 180.9C-286.5 176.2 -236.7 121.8 -228.1 94.5C-219.5 67.1 -252.1 66.8 -279.5 55.6C-307 44.4 -329.3 22.2 -351.6 0L0 0Z" fill="#fe78c3"></path><path d="M0 281.3C-20.8 285.5 -41.6 289.7 -54.9 275.8C-68.1 261.9 -73.7 229.9 -91.8 221.7C-110 213.6 -140.6 229.3 -139.7 209.1C-138.8 188.9 -106.4 132.8 -122.7 122.7C-139 112.6 -204 148.5 -216.6 144.7C-229.2 140.9 -189.3 97.4 -182.5 75.6C-175.6 53.7 -201.7 53.5 -223.6 44.5C-245.6 35.5 -263.4 17.7 -281.2 0L0 0Z" fill="#ff6899"></path><path d="M0 210.9C-15.6 214.1 -31.2 217.3 -41.2 206.9C-51.1 196.5 -55.3 172.4 -68.9 166.3C-82.5 160.2 -105.5 172 -104.8 156.8C-104.1 141.7 -79.8 99.6 -92 92C-104.2 84.4 -153 111.4 -162.4 108.5C-171.9 105.7 -142 73.1 -136.8 56.7C-131.7 40.3 -151.2 40.1 -167.7 33.4C-184.2 26.6 -197.6 13.3 -210.9 0L0 0Z" fill="#ff6469"></path><path d="M0 140.6C-10.4 142.7 -20.8 144.9 -27.4 137.9C-34 131 -36.9 114.9 -45.9 110.9C-55 106.8 -70.3 114.7 -69.9 104.6C-69.4 94.5 -53.2 66.4 -61.3 61.3C-69.5 56.3 -102 74.3 -108.3 72.4C-114.6 70.5 -94.7 48.7 -91.2 37.8C-87.8 26.9 -100.8 26.7 -111.8 22.2C-122.8 17.7 -131.7 8.9 -140.6 0L0 0Z" fill="#ff6f35"></path><path d="M0 70.3C-5.2 71.4 -10.4 72.4 -13.7 69C-17 65.5 -18.4 57.5 -23 55.4C-27.5 53.4 -35.2 57.3 -34.9 52.3C-34.7 47.2 -26.6 33.2 -30.7 30.7C-34.7 28.1 -51 37.1 -54.1 36.2C-57.3 35.2 -47.3 24.4 -45.6 18.9C-43.9 13.4 -50.4 13.4 -55.9 11.1C-61.4 8.9 -65.9 4.4 -70.3 0L0 0Z" fill="#f7770f"></path></g><g transform="translate(0, 675)"><path d="M0 -562.5C33.7 -546 67.3 -529.5 103.8 -521.8C140.2 -514 179.4 -515 199 -480.4C218.5 -445.8 218.4 -375.6 220.6 -330.1C222.7 -284.6 227.1 -263.7 265.9 -265.9C304.7 -268 377.9 -293.2 434 -290C490.2 -286.8 529.2 -255.2 519.7 -215.3C510.2 -175.3 452.1 -127 451.2 -89.7C450.2 -52.5 506.4 -26.2 562.5 0L0 0Z" fill="#95adfb"></path><path d="M0 -492.2C29.5 -477.8 58.9 -463.3 90.8 -456.6C122.7 -449.8 157 -450.6 174.1 -420.4C191.2 -390.1 191.1 -328.7 193 -288.8C194.9 -249 198.7 -230.7 232.6 -232.6C266.6 -234.5 330.7 -256.6 379.8 -253.8C428.9 -251 463 -223.3 454.7 -188.4C446.4 -153.4 395.6 -111.1 394.8 -78.5C393.9 -45.9 443.1 -23 492.2 0L0 0Z" fill="#ba9ef5"></path><path d="M0 -421.9C25.3 -409.5 50.5 -397.1 77.8 -391.3C105.2 -385.5 134.6 -386.3 149.2 -360.3C163.9 -334.4 163.8 -281.7 165.4 -247.6C167 -213.4 170.3 -197.8 199.4 -199.4C228.5 -201 283.4 -219.9 325.5 -217.5C367.6 -215.1 396.9 -191.4 389.8 -161.4C382.6 -131.5 339.1 -95.3 338.4 -67.3C337.7 -39.4 379.8 -19.7 421.9 0L0 0Z" fill="#df8be2"></path><path d="M0 -351.6C21 -341.3 42.1 -331 64.9 -326.1C87.6 -321.3 112.2 -321.9 124.4 -300.3C136.6 -278.6 136.5 -234.8 137.9 -206.3C139.2 -177.9 141.9 -164.8 166.2 -166.2C190.4 -167.5 236.2 -183.3 271.3 -181.3C306.3 -179.3 330.7 -159.5 324.8 -134.5C318.9 -109.6 282.6 -79.4 282 -56.1C281.4 -32.8 316.5 -16.4 351.6 0L0 0Z" fill="#fe78c3"></path><path d="M0 -281.2C16.8 -273 33.7 -264.8 51.9 -260.9C70.1 -257 89.7 -257.5 99.5 -240.2C109.3 -222.9 109.2 -187.8 110.3 -165C111.3 -142.3 113.5 -131.9 132.9 -132.9C152.3 -134 188.9 -146.6 217 -145C245.1 -143.4 264.6 -127.6 259.8 -107.6C255.1 -87.7 226.1 -63.5 225.6 -44.9C225.1 -26.2 253.2 -13.1 281.3 0L0 0Z" fill="#ff6899"></path><path d="M0 -210.9C12.6 -204.8 25.3 -198.6 38.9 -195.7C52.6 -192.8 67.3 -193.1 74.6 -180.2C82 -167.2 81.9 -140.9 82.7 -123.8C83.5 -106.7 85.2 -98.9 99.7 -99.7C114.3 -100.5 141.7 -110 162.8 -108.8C183.8 -107.6 198.4 -95.7 194.9 -80.7C191.3 -65.7 169.5 -47.6 169.2 -33.7C168.8 -19.7 189.9 -9.8 210.9 0L0 0Z" fill="#ff6469"></path><path d="M0 -140.6C8.4 -136.5 16.8 -132.4 25.9 -130.4C35.1 -128.5 44.9 -128.8 49.7 -120.1C54.6 -111.5 54.6 -93.9 55.1 -82.5C55.7 -71.1 56.8 -65.9 66.5 -66.5C76.2 -67 94.5 -73.3 108.5 -72.5C122.5 -71.7 132.3 -63.8 129.9 -53.8C127.5 -43.8 113 -31.8 112.8 -22.4C112.6 -13.1 126.6 -6.6 140.6 0L0 0Z" fill="#ff6f35"></path><path d="M0 -70.3C4.2 -68.3 8.4 -66.2 13 -65.2C17.5 -64.3 22.4 -64.4 24.9 -60.1C27.3 -55.7 27.3 -47 27.6 -41.3C27.8 -35.6 28.4 -33 33.2 -33.2C38.1 -33.5 47.2 -36.7 54.3 -36.3C61.3 -35.9 66.1 -31.9 65 -26.9C63.8 -21.9 56.5 -15.9 56.4 -11.2C56.3 -6.6 63.3 -3.3 70.3 0L0 0Z" fill="#f7770f"></path></g></svg>